<svg width="50" height="51" viewBox="0 0 50 51" fill="none" xmlns="http://www.w3.org/2000/svg">
<g clip-path="url(#clip0_57_2037)">
<path d="M24.1589 50.8999H25.8409L32.872 42.1256C33.3908 41.4038 33.3879 40.4307 32.8646 39.7121L28.0429 33.0909H21.9569L17.1352 39.7121C16.612 40.4307 16.609 41.4038 17.1278 42.1256L24.1589 50.8999Z" fill="#B2F0FB"/>
<path d="M24.9995 38.1568C23.1515 38.1568 21.6479 39.6654 21.6479 41.5198C21.6479 43.3741 23.1515 44.8826 24.9995 44.8826C26.8476 44.8826 28.3511 43.3741 28.3511 41.5198C28.3511 39.6654 26.8476 38.1568 24.9995 38.1568ZM24.9995 42.9294C24.2284 42.9294 23.6011 42.297 23.6011 41.5197C23.6011 40.7423 24.2284 40.1098 24.9995 40.1098C25.7706 40.1098 26.3979 40.7423 26.3979 41.5197C26.3979 42.297 25.7706 42.9294 24.9995 42.9294Z" fill="#020288"/>
<path d="M24.9984 0.899994C16.8427 0.899994 10.2075 7.53515 10.2075 15.6909C10.2075 22.5122 14.8771 28.4242 21.4226 30.0466V32.1144H20.4488C19.9096 32.1144 19.4723 32.5517 19.4723 33.0909C19.4723 33.6302 19.9096 34.0675 20.4488 34.0675H29.548C30.0873 34.0675 30.5246 33.6302 30.5246 33.0909C30.5246 32.5517 30.0873 32.1144 29.548 32.1144H28.5743V30.0466C35.1196 28.4242 39.7893 22.5122 39.7893 15.6909C39.7893 7.53515 33.1542 0.899994 24.9984 0.899994ZM27.4151 28.3018C26.9545 28.3894 26.6212 28.7921 26.6212 29.261V32.1144H23.3757V29.261C23.3757 28.7921 23.0424 28.3894 22.5817 28.3018C16.5434 27.152 12.1606 21.8484 12.1606 15.6909C12.1606 8.6122 17.9197 2.85312 24.9984 2.85312C32.0771 2.85312 37.8362 8.6122 37.8362 15.6909C37.8362 21.8484 33.4535 27.1519 27.4151 28.3018Z" fill="#020288"/>
<path d="M29.3144 16.8772C28.7751 16.8772 28.3378 17.3145 28.3378 17.8537C28.3378 18.5046 27.8082 19.0342 27.1572 19.0342C26.5064 19.0342 25.9768 18.5046 25.9768 17.8537C25.9768 17.3145 25.5395 16.8772 25.0002 16.8772C24.4609 16.8772 24.0236 17.3145 24.0236 17.8537C24.0236 18.5046 23.494 19.0342 22.8432 19.0342C22.1922 19.0342 21.6626 18.5046 21.6626 17.8537C21.6626 17.3145 21.2253 16.8772 20.686 16.8772C20.1468 16.8772 19.7095 17.3145 19.7095 17.8537C19.7095 19.5816 21.1152 20.9873 22.8432 20.9873C23.2606 20.9873 23.6591 20.9053 24.0236 20.7565V23.5582C24.0236 24.0975 24.4609 24.5348 25.0002 24.5348C25.5395 24.5348 25.9768 24.0975 25.9768 23.5582V20.7565C26.3413 20.9052 26.7399 20.9873 27.1572 20.9873C28.8852 20.9873 30.2909 19.5816 30.2909 17.8537C30.2909 17.3145 29.8536 16.8772 29.3144 16.8772Z" fill="#020288"/>
<path d="M37.295 4.29306C37.545 4.29306 37.7948 4.19765 37.9855 4.00703L39.4255 2.56708C39.8068 2.18574 39.8068 1.56738 39.4255 1.18593C39.044 0.804681 38.4259 0.804681 38.0443 1.18593L36.6044 2.62587C36.223 3.00722 36.223 3.62558 36.6044 4.00703C36.7952 4.19775 37.0451 4.29306 37.295 4.29306Z" fill="#020288"/>
<path d="M12.014 27.2154L10.5741 28.6553C10.1927 29.0367 10.1927 29.655 10.5741 30.0365C10.7648 30.2271 11.0147 30.3225 11.2646 30.3225C11.5145 30.3225 11.7644 30.2271 11.9552 30.0365L13.3951 28.5965C13.7764 28.2152 13.7764 27.5968 13.3951 27.2154C13.0137 26.834 12.3956 26.834 12.014 27.2154Z" fill="#020288"/>
<path d="M37.9831 27.2156C37.6016 26.8343 36.9835 26.8343 36.6019 27.2156C36.2206 27.5969 36.2206 28.2153 36.6019 28.5967L38.0419 30.0367C38.2326 30.2273 38.4825 30.3227 38.7324 30.3227C38.9823 30.3227 39.2322 30.2273 39.4229 30.0367C39.8043 29.6553 39.8043 29.037 39.4229 28.6555L37.9831 27.2156Z" fill="#020288"/>
<path d="M12.014 4.00723C12.2048 4.19786 12.4547 4.29327 12.7046 4.29327C12.9545 4.29327 13.2044 4.19786 13.3951 4.00723C13.7764 3.62589 13.7764 3.00753 13.3951 2.62608L11.9552 1.18624C11.5738 0.804987 10.9556 0.804987 10.5741 1.18624C10.1927 1.56758 10.1927 2.18594 10.5741 2.56739L12.014 4.00723Z" fill="#020288"/>
<path d="M43.5598 14.7275H41.9141C41.3748 14.7275 40.9375 15.1648 40.9375 15.7041C40.9375 16.2433 41.3748 16.6806 41.9141 16.6806H43.5598C44.099 16.6806 44.5363 16.2433 44.5363 15.7041C44.5363 15.1648 44.099 14.7275 43.5598 14.7275Z" fill="#020288"/>
<path d="M8.08613 14.7275H6.44043C5.90117 14.7275 5.46387 15.1648 5.46387 15.7041C5.46387 16.2433 5.90117 16.6806 6.44043 16.6806H8.08613C8.62539 16.6806 9.0627 16.2433 9.0627 15.7041C9.0627 15.1648 8.62539 14.7275 8.08613 14.7275Z" fill="#020288"/>
</g>
<defs>
<clipPath id="clip0_57_2037">
<rect width="50" height="50" fill="white" transform="translate(0 0.899994)"/>
</clipPath>
</defs>
</svg>
