<svg width="45" height="46" viewBox="0 0 45 46" fill="none" xmlns="http://www.w3.org/2000/svg">
<path d="M21.7705 22.275L13.7109 17.8629L5.65137 22.275L5.66895 22.2838L5.65137 22.275V31.9605L13.7109 36.3199L21.7705 31.9605V22.275L21.7354 22.2926L21.7705 22.275Z" fill="#E2C4FF"/>
<path d="M42.0557 2.88635H2.94434C1.31836 2.88635 0 4.2135 0 5.83948V40.9694C0 42.5953 1.31836 43.9137 2.94434 43.9137H42.0469C43.6729 43.9137 44.9912 42.5953 44.9912 40.9694V5.83948C45 4.2135 43.6816 2.88635 42.0557 2.88635ZM1.75781 5.83948C1.75781 5.1803 2.29395 4.65295 2.94434 4.65295H42.0469C42.7061 4.65295 43.2334 5.18909 43.2334 5.83948V10.278H1.75781V5.83948ZM43.2422 40.9606C43.2422 41.6198 42.7061 42.1471 42.0557 42.1471H2.94434C2.28516 42.1471 1.75781 41.611 1.75781 40.9606V12.0358H43.2422V40.9606Z" fill="#020288"/>
<path d="M39.0937 6.57776H38.7686C38.2852 6.57776 37.8896 6.97327 37.8896 7.45667C37.8896 7.94006 38.2852 8.33557 38.7686 8.33557H39.0937C39.5771 8.33557 39.9727 7.94006 39.9727 7.45667C39.9727 6.97327 39.5859 6.57776 39.0937 6.57776Z" fill="#020288"/>
<path d="M33.6445 6.57776H33.3193C32.8359 6.57776 32.4404 6.97327 32.4404 7.45667C32.4404 7.94006 32.8359 8.33557 33.3193 8.33557H33.6445C34.1279 8.33557 34.5234 7.94006 34.5234 7.45667C34.5234 6.97327 34.1279 6.57776 33.6445 6.57776Z" fill="#020288"/>
<path d="M28.1865 6.57776H27.8613C27.3779 6.57776 26.9824 6.97327 26.9824 7.45667C26.9824 7.94006 27.3779 8.33557 27.8613 8.33557H28.1865C28.6699 8.33557 29.0654 7.94006 29.0654 7.45667C29.0654 6.97327 28.6787 6.57776 28.1865 6.57776Z" fill="#020288"/>
<path d="M12.085 6.57776H5.90625C5.42285 6.57776 5.02734 6.97327 5.02734 7.45667C5.02734 7.94006 5.42285 8.33557 5.90625 8.33557H12.085C12.5684 8.33557 12.9639 7.94006 12.9639 7.45667C12.9639 6.97327 12.5684 6.57776 12.085 6.57776Z" fill="#020288"/>
<path d="M26.6045 27.0826H39.3486C39.832 27.0826 40.2275 26.6871 40.2275 26.2037V22.275C40.2275 21.7916 39.832 21.3961 39.3486 21.3961H26.6045C26.1211 21.3961 25.7256 21.7916 25.7256 22.275V26.2037C25.7256 26.6871 26.1123 27.0826 26.6045 27.0826ZM27.4834 23.1539H38.4697V25.3248H27.4834V23.1539Z" fill="#020288"/>
<path d="M26.6045 31.7496H39.3486C39.832 31.7496 40.2275 31.3541 40.2275 30.8707C40.2275 30.3873 39.832 29.9918 39.3486 29.9918H26.6045C26.1211 29.9918 25.7256 30.3873 25.7256 30.8707C25.7256 31.3541 26.1123 31.7496 26.6045 31.7496Z" fill="#020288"/>
</svg>
