<svg width="50" height="51" viewBox="0 0 50 51" fill="none" xmlns="http://www.w3.org/2000/svg">
<g clip-path="url(#clip0_57_2070)">
<path d="M34.2012 10.0392C30.9811 10.0392 27.9859 11.0065 25.4883 12.6672C29.7583 15.5066 32.5742 20.3732 32.5742 25.9C32.5742 31.4269 29.7583 36.2935 25.4883 39.1328C27.9859 40.7937 30.9811 41.7609 34.2012 41.7609C42.9267 41.7609 50 34.6598 50 25.9C50 17.1403 42.9267 10.0392 34.2012 10.0392Z" fill="#FFF59B"/>
<path d="M33.5508 25.9C33.5508 20.0874 30.6011 14.9534 26.1252 11.9266C26.0641 11.8739 25.9973 11.8298 25.9267 11.7943C23.2933 10.0673 20.149 9.0625 16.7754 9.0625C7.52549 9.0625 0 16.6158 0 25.9C0 35.1842 7.52549 42.7375 16.7754 42.7375C20.149 42.7375 23.2933 41.7327 25.9267 40.0057C25.9973 39.9703 26.064 39.9262 26.125 39.8735C30.601 36.8467 33.5508 31.7126 33.5508 25.9ZM25.4827 37.9387C23.8239 36.7264 22.4581 35.2055 21.4421 33.4823H29.5265C28.4924 35.2291 27.1127 36.7465 25.4827 37.9387ZM20.476 20.2708H30.4969C30.8177 21.0565 31.0734 21.8757 31.2574 22.7215H19.7188C19.9011 21.8805 20.1549 21.0608 20.476 20.2708ZM19.3789 25.9C19.3789 25.4888 19.3957 25.0801 19.4287 24.6746H31.5478C31.5808 25.0788 31.5977 25.4874 31.5977 25.9C31.5977 26.3126 31.5809 26.7212 31.5478 27.1254H19.4288C19.3957 26.7199 19.3789 26.3112 19.3789 25.9ZM31.2574 29.0785C31.0735 29.9243 30.8177 30.7435 30.4969 31.5292H20.476C20.1549 30.7392 19.9011 29.9195 19.7188 29.0785H31.2574ZM29.5265 18.3177H21.4421C22.4581 16.5945 23.824 15.0736 25.4827 13.8613C27.1127 15.0535 28.4924 16.5709 29.5265 18.3177ZM1.95312 25.9C1.95312 17.6928 8.60234 11.0156 16.7754 11.0156C19.2828 11.0156 21.6468 11.6441 23.7193 12.7524C19.753 15.937 17.4258 20.7478 17.4258 25.9C17.4258 31.0522 19.7529 35.863 23.7193 39.0476C21.6468 40.1559 19.2828 40.7844 16.7754 40.7844C8.60234 40.7844 1.95312 34.1072 1.95312 25.9Z" fill="#020288"/>
</g>
<defs>
<clipPath id="clip0_57_2070">
<rect width="50" height="50" fill="white" transform="translate(0 0.899994)"/>
</clipPath>
</defs>
</svg>
