<svg width="45" height="45" viewBox="0 0 45 45" fill="none" xmlns="http://www.w3.org/2000/svg">
<g clip-path="url(#clip0_57_2051)">
<path d="M39.375 33.9248V40.2539H15.8213V33.9248H39.375Z" fill="#FFBDBC"/>
<path d="M41.9519 29.1787H22.9824L38.4435 13.7176C38.8533 13.3079 39.0789 12.7632 39.0789 12.1837C39.0789 11.6044 38.8533 11.0596 38.4435 10.6499L30.324 2.53037C29.9144 2.12063 29.3696 1.89501 28.7902 1.89501C28.2108 1.89501 27.666 2.12063 27.2563 2.53037L16.7002 13.0863V2.16923C16.7002 0.973125 15.7271 0 14.531 0H3.04813C1.85203 0 0.878906 0.973125 0.878906 2.16923V42.642C0.878906 43.9421 1.93676 45 3.23701 45H41.952C43.148 45 44.1211 44.0269 44.1211 42.8308V31.3479C44.1211 30.1518 43.148 29.1787 41.9519 29.1787ZM28.4992 3.77332C28.6041 3.66847 28.7264 3.65273 28.7902 3.65273C28.8539 3.65273 28.9762 3.66838 29.0811 3.77332L37.2007 11.8929C37.3055 11.9978 37.3212 12.1201 37.3212 12.1838C37.3212 12.2476 37.3055 12.3699 37.2007 12.4748L20.4965 29.1787H16.7002V15.5723L28.4992 3.77332ZM2.63672 42.6419V2.16923C2.63672 1.94238 2.82129 1.75781 3.04813 1.75781H14.531C14.7578 1.75781 14.9424 1.94238 14.9424 2.16923V43.2422H3.23701C2.90602 43.2422 2.63672 42.9729 2.63672 42.6419ZM42.3633 42.8308C42.3633 43.0576 42.1787 43.2422 41.9519 43.2422H16.7002V30.9365H41.952C42.1788 30.9365 42.3634 31.1211 42.3634 31.3479V42.8308H42.3633Z" fill="#020288"/>
<path d="M8.78931 35.5858C7.35722 35.5858 6.19214 36.7509 6.19214 38.183C6.19214 39.6151 7.35722 40.7802 8.78931 40.7802C10.2214 40.7802 11.3865 39.6151 11.3865 38.183C11.3865 36.7509 10.2214 35.5858 8.78931 35.5858ZM8.78931 39.0223C8.32647 39.0223 7.94995 38.6458 7.94995 38.183C7.94995 37.7202 8.32647 37.3436 8.78931 37.3436C9.25214 37.3436 9.62866 37.7202 9.62866 38.183C9.62866 38.6458 9.25214 39.0223 8.78931 39.0223Z" fill="#020288"/>
<path d="M11.9541 3.86719H5.625C5.13958 3.86719 4.74609 4.26067 4.74609 4.74609V32.0389C4.74609 32.5244 5.13958 32.9179 5.625 32.9179H11.9541C12.4395 32.9179 12.833 32.5244 12.833 32.0389V4.74609C12.833 4.26067 12.4395 3.86719 11.9541 3.86719ZM11.0752 17.5136H6.50391V12.4482H11.0752V17.5136ZM6.50391 19.2714H11.0752V24.3368H6.50391V19.2714ZM6.50391 5.625H11.0752V10.6904H6.50391V5.625ZM11.0752 31.16H6.50391V26.0946H11.0752V31.16Z" fill="#020288"/>
</g>
<defs>
<clipPath id="clip0_57_2051">
<rect width="45" height="45" fill="white"/>
</clipPath>
</defs>
</svg>
