<svg width="50" height="50" viewBox="0 0 50 50" fill="none" xmlns="http://www.w3.org/2000/svg">
<path d="M25.0003 25.3094C26.4264 25.3094 27.5825 24.1509 27.5825 22.7218C27.5825 21.2927 26.4264 20.1342 25.0003 20.1342C23.5743 20.1342 22.4182 21.2927 22.4182 22.7218C22.4182 24.1509 23.5743 25.3094 25.0003 25.3094Z" fill="#B2F0FB"/>
<path d="M7.54468 12.2247V33.219H42.4557V12.2247H7.54468ZM25.0002 29.0512C21.512 29.0512 18.6841 26.2174 18.6841 22.7218C18.6841 19.2262 21.512 16.3924 25.0002 16.3924C28.4885 16.3924 31.3164 19.2262 31.3164 22.7218C31.3164 26.2174 28.4885 29.0512 25.0002 29.0512Z" fill="#B2F0FB"/>
<path d="M49.0234 36.5393H47.729V9.89342C47.729 7.73258 45.9711 5.97467 43.8102 5.97467H6.18975C4.02891 5.97467 2.271 7.73258 2.271 9.89342V36.5393H0.976562C0.437305 36.5393 0 36.9766 0 37.5159V40.4507C0 42.4217 1.60361 44.0253 3.57461 44.0253H46.4253C48.3964 44.0253 49.9999 42.4216 49.9999 40.4507V37.5159C50 36.9766 49.5627 36.5393 49.0234 36.5393ZM4.22412 9.89342C4.22412 8.80953 5.10586 7.9278 6.18975 7.9278H24.0234V8.23512C24.0234 8.77438 24.4607 9.21168 25 9.21168C25.5393 9.21168 25.9766 8.77438 25.9766 8.23512V7.9278H43.8102C44.8941 7.9278 45.7759 8.80953 45.7759 9.89342V36.5393H4.22412V9.89342ZM1.95312 40.4507V38.4924H17.8399V42.0721H3.57461C2.68047 42.0721 1.95312 41.3447 1.95312 40.4507ZM19.7931 42.0721V38.4924H30.207V42.0721H19.7931ZM48.0469 40.4507C48.0469 41.3447 47.3195 42.0721 46.4254 42.0721H32.1601V38.4924H48.0469V40.4507Z" fill="#020288"/>
<path d="M25 30.0278C29.0213 30.0278 32.2928 26.7503 32.2928 22.7219C32.2928 18.6934 29.0213 15.4159 25 15.4159C20.9788 15.4159 17.7073 18.6933 17.7073 22.7219C17.7073 26.7504 20.9788 30.0278 25 30.0278ZM25 21.1109C25.8853 21.1109 26.6056 21.8336 26.6056 22.7219C26.6056 23.6102 25.8853 24.3329 25 24.3329C24.1148 24.3329 23.3945 23.6102 23.3945 22.7219C23.3945 21.8336 24.1148 21.1109 25 21.1109ZM25.9766 27.985V26.1496C27.1557 25.8122 28.0865 24.8795 28.423 23.6983H30.2506C29.85 25.8678 28.1401 27.5824 25.9766 27.985ZM30.2506 21.7453H28.423C28.0866 20.5641 27.1557 19.6315 25.9766 19.2941V17.4588C28.1401 17.8613 29.85 19.5761 30.2506 21.7453ZM24.0235 17.4588V19.2941C22.8444 19.6315 21.9136 20.5641 21.5771 21.7453H19.7495C20.15 19.5761 21.86 17.8613 24.0235 17.4588ZM21.5771 23.6984C21.9135 24.8796 22.8444 25.8123 24.0235 26.1497V27.985C21.86 27.5825 20.15 25.8678 19.7495 23.6984H21.5771Z" fill="#020288"/>
</svg>
