<svg width="40" height="40" viewBox="0 0 40 40" fill="none" xmlns="http://www.w3.org/2000/svg">
<path d="M10.0361 18.1824H16.7772V25.7048H10.0361V18.1824Z" fill="white"/>
<path d="M29.9648 35.8711H20.0986V28.3487H29.9648V35.8711Z" fill="white"/>
<path d="M32.1648 0.0217187L7.84078 0H7.83836C7.13602 0 6.47555 0.273359 5.97859 0.769844C5.48102 1.26695 5.20703 1.92805 5.20703 2.63141V37.3685C5.20703 38.8195 6.3875 40 7.83852 40H32.1625C33.6134 40 34.7939 38.8195 34.7939 37.3685V2.6532C34.7939 1.20352 33.6145 0.0230469 32.1648 0.0217187ZM33.2314 37.3685C33.2314 37.958 32.7519 38.4375 32.1625 38.4375H7.83852C7.24914 38.4375 6.76953 37.958 6.76953 37.3685V2.63148C6.76953 2.34578 6.88086 2.07719 7.08297 1.87523C7.28484 1.67352 7.55312 1.5625 7.83844 1.5625H7.83945L32.1634 1.58422C32.7523 1.58477 33.2314 2.0643 33.2314 2.6532V37.3685Z" fill="white"/>
<path d="M29.9648 3.71289H10.0361C9.60465 3.71289 9.25488 4.06273 9.25488 4.49414V13.6402C9.25488 14.0716 9.60465 14.4214 10.0361 14.4214H29.9648C30.3962 14.4214 30.7461 14.0716 30.7461 13.6402V4.49414C30.7461 4.06273 30.3963 3.71289 29.9648 3.71289ZM29.1836 12.3841L13.5483 5.27539H29.1836V12.3841ZM10.8174 5.75023L26.4528 12.859H10.8174V5.75023Z" fill="white"/>
<path d="M29.9648 19.1846H20.4277C19.9963 19.1846 19.6465 19.5344 19.6465 19.9658C19.6465 20.3972 19.9963 20.7471 20.4277 20.7471H29.9648C30.3963 20.7471 30.7461 20.3972 30.7461 19.9658C30.7461 19.5344 30.3963 19.1846 29.9648 19.1846Z" fill="white"/>
<path d="M29.9648 23.1406H20.4277C19.9963 23.1406 19.6465 23.4905 19.6465 23.9219C19.6465 24.3533 19.9963 24.7031 20.4277 24.7031H29.9648C30.3963 24.7031 30.7461 24.3533 30.7461 23.9219C30.7461 23.4905 30.3963 23.1406 29.9648 23.1406Z" fill="white"/>
<path d="M16.4481 33.3064H10.0361C9.60465 33.3064 9.25488 33.6562 9.25488 34.0876C9.25488 34.5191 9.60465 34.8689 10.0361 34.8689H16.4481C16.8796 34.8689 17.2293 34.5191 17.2293 34.0876C17.2293 33.6562 16.8796 33.3064 16.4481 33.3064Z" fill="white"/>
<path d="M16.4481 29.3506H10.0361C9.60465 29.3506 9.25488 29.7004 9.25488 30.1318C9.25488 30.5632 9.60465 30.9131 10.0361 30.9131H16.4481C16.8796 30.9131 17.2293 30.5632 17.2293 30.1318C17.2293 29.7004 16.8796 29.3506 16.4481 29.3506Z" fill="white"/>
</svg>
