<svg width="40" height="40" viewBox="0 0 40 40" fill="none" xmlns="http://www.w3.org/2000/svg">
<path d="M35.5224 15.4472C35.3399 15.4472 35.1566 15.3836 35.0085 15.254C34.6226 14.9167 34.1256 14.7308 33.6091 14.7308H28.0439C27.6125 14.7308 27.2627 14.381 27.2627 13.9496C27.2627 13.5182 27.6125 13.1683 28.0439 13.1683H33.6091C34.5039 13.1683 35.3661 13.4913 36.0369 14.0778C36.3618 14.3618 36.3949 14.8553 36.1108 15.1801C35.9564 15.3567 35.7399 15.4472 35.5224 15.4472Z" fill="white"/>
<path d="M4.47787 15.4472C4.2603 15.4472 4.04381 15.3569 3.88944 15.1801C3.60537 14.8553 3.6385 14.3617 3.96334 14.0778C4.63412 13.4913 5.49631 13.1683 6.39116 13.1683H11.1286C11.56 13.1683 11.9098 13.5182 11.9098 13.9496C11.9098 14.381 11.56 14.7308 11.1286 14.7308H6.39123C5.87475 14.7308 5.37772 14.9167 4.99186 15.254C4.84366 15.3836 4.66037 15.4472 4.47787 15.4472Z" fill="white"/>
<path d="M29.5231 0H8.02734V18.1221L18.2277 28.0534C19.2302 28.9727 20.7695 28.9727 21.7719 28.0534L31.9723 18.1221V2.44469L29.5231 0Z" fill="white"/>
<path d="M36.0349 14.0765C36.0327 14.0746 36.0305 14.0728 36.0283 14.0709C36.0259 14.0688 36.0234 14.0668 36.021 14.0647C36.0193 14.0633 36.0176 14.0619 36.0159 14.0605C36.0121 14.0573 36.0082 14.0542 36.0043 14.0511C36.0039 14.0508 36.0034 14.0504 36.003 14.0501C35.6999 13.8126 35.2604 13.83 34.977 14.1061L21.2358 27.4847C20.5292 28.1258 19.47 28.1258 18.7635 27.4847L5.02231 14.1061C4.73863 13.8298 4.29879 13.8126 3.99574 14.0506C3.99559 14.0507 3.99543 14.0508 3.99535 14.0509C3.9909 14.0544 3.98652 14.0579 3.98215 14.0615C3.98106 14.0624 3.97996 14.0633 3.97895 14.0642C3.97598 14.0667 3.97301 14.0692 3.97004 14.0717C3.96816 14.0733 3.96629 14.0748 3.96449 14.0764C3.15855 14.7772 2.69629 15.7915 2.69629 16.8594V36.3084C2.69629 37.3745 3.15707 38.3872 3.96059 39.0879C3.96145 39.0887 3.96231 39.0895 3.96316 39.0903C4.63457 39.6769 5.49676 40 6.39098 40H33.6084C34.5025 40 35.3647 39.6769 36.0363 39.0903C36.0372 39.0895 36.0379 39.0888 36.0388 39.088C36.8424 38.3873 37.3032 37.3745 37.3032 36.3084V16.8594C37.3031 15.7916 36.8408 14.7772 36.0349 14.0765ZM23.2722 27.6829L35.4646 15.812C35.6436 16.128 35.7406 16.4881 35.7406 16.8594V36.3084C35.7406 36.7062 35.6292 37.0912 35.425 37.4228L23.2722 27.6829ZM4.57426 37.4228C4.37004 37.0912 4.25871 36.7063 4.25871 36.3085V16.8594C4.25871 16.4881 4.35574 16.128 4.53473 15.8121L16.7263 27.682L4.57426 37.4228ZM33.6083 38.4375H6.39098C6.2184 38.4375 6.04785 38.4166 5.88293 38.3763L17.8651 28.7718C18.4908 29.2779 19.2453 29.5311 19.9997 29.5311C20.7537 29.5311 21.5078 29.2781 22.1333 28.7725L34.1164 38.3764C33.9514 38.4166 33.7809 38.4375 33.6083 38.4375Z" fill="white"/>
<path d="M13.5117 6.39026H26.4872C26.9186 6.39026 27.2684 6.04041 27.2684 5.60901C27.2684 5.1776 26.9186 4.82776 26.4872 4.82776H13.5117C13.0803 4.82776 12.7305 5.1776 12.7305 5.60901C12.7305 6.04041 13.0803 6.39026 13.5117 6.39026Z" fill="white"/>
<path d="M13.5117 10.1351H26.4872C26.9186 10.1351 27.2684 9.78529 27.2684 9.35388C27.2684 8.92248 26.9186 8.57263 26.4872 8.57263H13.5117C13.0803 8.57263 12.7305 8.92248 12.7305 9.35388C12.7305 9.78529 13.0803 10.1351 13.5117 10.1351Z" fill="white"/>
<path d="M13.5117 13.8799H26.4872C26.9186 13.8799 27.2684 13.53 27.2684 13.0986C27.2684 12.6672 26.9186 12.3174 26.4872 12.3174H13.5117C13.0803 12.3174 12.7305 12.6672 12.7305 13.0986C12.7305 13.53 13.0803 13.8799 13.5117 13.8799Z" fill="white"/>
<path d="M26.4873 16.0623H20.8623C20.4309 16.0623 20.0811 16.4121 20.0811 16.8435C20.0811 17.2749 20.4309 17.6248 20.8623 17.6248H26.4873C26.9187 17.6248 27.2686 17.2749 27.2686 16.8435C27.2686 16.4121 26.9187 16.0623 26.4873 16.0623Z" fill="white"/>
</svg>
