<svg width="40" height="40" viewBox="0 0 40 40" fill="none" xmlns="http://www.w3.org/2000/svg">
<g clip-path="url(#clip0_40_3551)">
<path fill-rule="evenodd" clip-rule="evenodd" d="M11.0898 24.6881H23.5913V30.9389H11.0898V24.6881Z" fill="white"/>
<path d="M39.2183 5.15442H11.0899C10.6584 5.15442 10.3086 5.50423 10.3086 5.93576V34.0642C10.3086 34.4957 10.6584 34.8455 11.0899 34.8455H39.2183C39.6499 34.8455 39.9997 34.4957 39.9997 34.0642V5.93576C39.9997 5.50423 39.6499 5.15442 39.2183 5.15442ZM38.437 33.2828H11.8713V6.71711H38.437V33.2828Z" fill="white"/>
<path d="M14.2159 28.5947H20.4666C21.5022 28.5562 21.5014 27.07 20.4666 27.032H14.2159C13.1803 27.0703 13.181 28.5566 14.2159 28.5947Z" fill="white"/>
<path d="M7.57464 14.5305H4.37113C3.33554 14.569 3.33632 16.0552 4.37113 16.0932H7.57464C8.61024 16.0548 8.60946 14.5686 7.57464 14.5305Z" fill="white"/>
<path d="M7.57408 19.2186H2.57425C1.53866 19.2571 1.53944 20.7433 2.57425 20.7813H7.57408C8.60967 20.7429 8.60889 19.2567 7.57408 19.2186Z" fill="white"/>
<path d="M7.57418 23.9066H0.776403C-0.259191 23.9451 -0.25841 25.4312 0.776403 25.4693H7.57418C8.60977 25.4309 8.60899 23.9447 7.57418 23.9066Z" fill="white"/>
<path fill-rule="evenodd" clip-rule="evenodd" d="M21.248 5.15442V15.3119L25.1548 13.6072L29.0615 15.3119V5.15442H21.248Z" fill="white"/>
</g>
<defs>
<clipPath id="clip0_40_3551">
<rect width="40" height="40" fill="white"/>
</clipPath>
</defs>
</svg>
