<svg width="888" height="898" viewBox="0 0 888 898" fill="none" xmlns="http://www.w3.org/2000/svg">
<g opacity="0.41">
<path opacity="0.41" d="M407.015 555.632C348.03 532.538 318.935 466.001 342.029 407.016" stroke="#86FAF3" stroke-width="0.830524" stroke-linecap="round"/>
<path opacity="0.41" d="M810.523 590.389C732.331 790.097 507.049 888.604 307.341 810.415" stroke="#86FAF3" stroke-width="0.830524" stroke-linecap="round"/>
<path opacity="0.41" d="M596.804 553.76C654.816 472.038 635.595 358.762 553.873 300.75C472.152 242.739 358.876 261.96 300.864 343.681" stroke="#86FAF3" stroke-width="0.830524" stroke-linecap="round"/>
<path opacity="0.41" d="M127.351 543.739C74.9491 366.26 176.345 179.905 353.823 127.504" stroke="#86FAF3" stroke-width="0.830524" stroke-linecap="round"/>
<path opacity="0.41" d="M345.72 200.358C208.484 257.334 143.421 414.774 200.397 552.01C257.373 689.246 414.813 754.309 552.049 697.333" stroke="#86FAF3" stroke-width="0.830524" stroke-linecap="round"/>
<path opacity="0.41" d="M524.368 414.377C519.52 403.63 512.441 394.036 503.602 386.233C494.764 378.43 484.366 372.596 473.101 369.118C461.835 365.64 449.958 364.597 438.259 366.059" stroke="#86FAF3" stroke-width="0.830524" stroke-linecap="round"/>
<path opacity="0.41" d="M478.874 418.788C471.064 410.842 460.446 406.281 449.306 406.088C438.166 405.895 427.397 410.085 419.316 417.756" stroke="#86FAF3" stroke-width="0.830524" stroke-linecap="round"/>
<path opacity="0.41" d="M448.833 459.78C454.879 459.78 459.781 454.878 459.781 448.832C459.781 442.785 454.879 437.884 448.833 437.884C442.786 437.884 437.885 442.785 437.885 448.832C437.885 454.878 442.786 459.78 448.833 459.78Z" stroke="#86FAF3" stroke-width="0.830524" stroke-linecap="round"/>
<path opacity="0.41" d="M753.59 624.784C656.414 793.098 441.192 850.766 272.879 753.59C104.565 656.414 46.8974 441.193 144.073 272.879" stroke="#86FAF3" stroke-width="0.830524" stroke-linecap="round"/>
<path opacity="0.41" d="M758.507 448.832C758.507 619.861 619.86 758.508 448.831 758.508C277.801 758.508 139.154 619.861 139.154 448.832" stroke="#86FAF3" stroke-width="0.830524" stroke-linecap="round"/>
<path opacity="0.41" d="M809.125 656.847C924.005 457.863 855.831 203.423 656.847 88.5389C457.863 -26.3446 203.423 41.8319 88.54 240.817" stroke="#86FAF3" stroke-width="0.830524" stroke-linecap="round"/>
<path opacity="0.41" d="M809.08 448.832C809.08 249.873 647.792 88.585 448.833 88.585" stroke="#86A0FA" stroke-width="0.830524" stroke-linecap="round"/>
<path opacity="0.41" d="M823.676 448.832C823.676 655.852 655.852 823.676 448.831 823.676C241.811 823.676 73.9873 655.852 73.9873 448.832" stroke="#86FAF3" stroke-width="0.830524" stroke-linecap="round"/>
<path opacity="0.41" d="M654.941 327.251C587.794 213.421 441.083 175.576 327.253 242.723C213.422 309.87 175.578 456.581 242.725 570.412" stroke="#86FAF3" stroke-width="0.830524" stroke-linecap="round"/>
<path opacity="0.41" d="M621.821 742.092C459.858 837.632 251.111 783.785 155.571 621.822C60.0313 459.859 113.878 251.111 275.841 155.572" stroke="#7B8085" stroke-opacity="0.5" stroke-width="0.830524" stroke-linecap="round"/>
<path opacity="0.41" d="M546.959 615.184C455.085 669.379 336.673 638.835 282.478 546.961C228.283 455.087 258.827 336.674 350.701 282.479" stroke="#86A0FA" stroke-width="0.830524" stroke-linecap="round"/>
<path opacity="0.41" d="M784.178 675.42C659.037 860.626 407.45 909.324 222.243 784.178C37.0361 659.037 -11.6559 407.45 113.485 222.243" stroke="#86A0FA" stroke-width="0.830524" stroke-linecap="round"/>
<path opacity="0.41" d="M684.134 310.068C760.82 440.068 717.599 607.621 587.599 684.307" stroke="#86A0FA" stroke-width="1.17518" stroke-linecap="round"/>
<path opacity="0.41" d="M530.439 400.693C557.025 445.763 542.041 503.852 496.971 530.439C451.901 557.025 393.812 542.041 367.226 496.971" stroke="#7B8085" stroke-opacity="0.5" stroke-width="0.830524" stroke-linecap="round"/>
<path opacity="0.41" d="M557.945 384.467C593.493 444.729 573.458 522.398 513.196 557.946C452.934 593.494 375.265 573.459 339.717 513.196" stroke="#86FAF3" stroke-width="0.830524" stroke-linecap="round"/>
<path opacity="0.41" d="M526.089 579.802C453.756 622.471 360.529 598.423 317.86 526.089C275.192 453.756 299.24 360.529 371.573 317.861" stroke="#86A0FA" stroke-width="0.830524" stroke-linecap="round"/>
<path opacity="0.41" d="M448.833 887.28C690.981 887.28 887.281 690.98 887.281 448.832C887.281 206.684 690.981 10.384 448.833 10.384C206.685 10.384 10.3848 206.684 10.3848 448.832C10.3848 690.98 206.685 887.28 448.833 887.28Z" stroke="#86FAF3" stroke-width="0.830524" stroke-linecap="round"/>
<path opacity="0.41" d="M823.676 448.832C823.676 241.811 655.852 73.988 448.831 73.988C241.811 73.988 73.9873 241.811 73.9873 448.832" stroke="#86A0FA" stroke-width="0.830524" stroke-linecap="round"/>
<path opacity="0.41" d="M448.832 743.911C285.864 743.911 153.753 611.799 153.753 448.832C153.753 285.864 285.864 153.753 448.832 153.753" stroke="#7B8085" stroke-opacity="0.5" stroke-width="0.830524" stroke-linecap="round"/>
<path opacity="0.41" d="M448.832 896.664C201.501 896.664 1 696.162 1 448.831C1 201.501 201.501 1 448.832 1" stroke="#86A0FA" stroke-width="0.830524" stroke-linecap="round"/>
<path opacity="0.41" d="M526.552 158.771C686.748 201.696 781.815 366.357 738.891 526.553C695.967 686.749 531.305 781.816 371.109 738.892" stroke="#7B8085" stroke-opacity="0.5" stroke-width="0.830524" stroke-linecap="round"/>
<path opacity="0.41" d="M526.552 158.771C686.748 201.696 781.815 366.357 738.891 526.553C695.967 686.749 531.305 781.816 371.109 738.892" stroke="#7B8085" stroke-opacity="0.5" stroke-width="0.830524" stroke-linecap="round"/>
<path opacity="0.41" d="M848.699 448.831C848.699 227.99 669.672 48.9629 448.83 48.9629C227.989 48.9629 48.9619 227.99 48.9619 448.831" stroke="#7B8085" stroke-opacity="0.5" stroke-width="0.830524" stroke-linecap="round"/>
<path opacity="0.41" d="M848.699 448.831C848.699 227.99 669.672 48.9629 448.83 48.9629C227.989 48.9629 48.9619 227.99 48.9619 448.831" stroke="#7B8085" stroke-opacity="0.5" stroke-width="0.830524" stroke-linecap="round"/>
<path opacity="0.41" d="M193.383 329.606C259.053 188.656 426.553 127.629 567.503 193.3C708.453 258.97 769.48 426.469 703.81 567.42" stroke="#86FAF3" stroke-width="0.830524" stroke-linecap="round"/>
<path opacity="0.41" d="M519.605 571.221C587.055 532.279 610.165 446.031 571.223 378.581C532.28 311.131 446.032 288.021 378.582 326.963" stroke="#86FAF3" stroke-width="0.830524" stroke-linecap="round"/>
<path opacity="0.41" d="M663.102 449.092C663.102 567.287 567.286 663.103 449.091 663.103C330.897 663.103 235.081 567.287 235.081 449.092" stroke="#86FAF3" stroke-width="0.830524" stroke-linecap="round"/>
<path opacity="0.41" d="M576.588 726.691C423.013 797.295 241.28 730.034 170.676 576.46" stroke="#7B8085" stroke-opacity="0.5" stroke-width="0.830524" stroke-linecap="round"/>
<path opacity="0.41" d="M162.782 168.06C317.952 9.97604 571.894 7.61404 729.978 162.784" stroke="#7B8085" stroke-opacity="0.5" stroke-width="0.830524" stroke-linecap="round"/>
<path opacity="0.41" d="M519.821 603.234C434.585 642.421 333.72 605.09 294.534 519.854C255.347 434.617 292.678 333.753 377.914 294.566" stroke="#7B8085" stroke-opacity="0.5" stroke-width="0.830524" stroke-linecap="round"/>
<path opacity="0.41" d="M404.193 352.039C457.639 327.468 520.886 350.876 545.458 404.323" stroke="#7B8085" stroke-opacity="0.5" stroke-width="0.830524" stroke-linecap="round"/>
<path opacity="0.41" d="M461.725 476.653C476.985 469.637 483.668 451.579 476.652 436.319" stroke="#7B8085" stroke-opacity="0.5" stroke-width="0.830524" stroke-linecap="round"/>
<path opacity="0.41" d="M448.602 508.786C415.347 508.804 388.373 481.86 388.354 448.604" stroke="#86A0FA" stroke-width="0.830524" stroke-linecap="round"/>
<path opacity="0.41" d="M443.617 466.649C433.692 463.99 427.802 453.788 430.461 443.863C433.121 433.938 443.322 428.048 453.247 430.708" stroke="#86A0FA" stroke-width="0.830524" stroke-linecap="round"/>
<path opacity="0.41" d="M240.107 353.568C292.78 238.324 428.903 187.599 544.148 240.271C659.392 292.943 710.117 429.067 657.445 544.311" stroke="#86A0FA" stroke-width="0.830524" stroke-linecap="round"/>
<path opacity="0.41" d="M359.318 138.914C530.481 89.5841 709.226 188.35 758.556 359.514C807.885 530.677 709.12 709.422 537.956 758.752" stroke="#86A0FA" stroke-width="0.830524" stroke-linecap="round"/>
<path opacity="0.41" d="M435.575 402.978C410.037 410.338 395.301 437.007 402.661 462.545C410.021 488.084 436.69 502.82 462.228 495.46" stroke="#86A0FA" stroke-width="0.830524" stroke-linecap="round"/>
<path opacity="0.41" d="M448.818 808.848C647.735 808.882 809.015 647.655 809.049 448.739" stroke="#86A0FA" stroke-width="0.830524" stroke-linecap="round"/>
<path opacity="0.41" d="M448.69 700.708C309.589 700.685 196.845 587.903 196.869 448.803C196.892 309.702 309.674 196.958 448.774 196.982" stroke="#86A0FA" stroke-width="0.830524" stroke-linecap="round"/>
<path opacity="0.41" d="M549.487 379.274C587.242 434.206 572.706 509.763 517.021 548.035" stroke="#354389" stroke-width="0.830524" stroke-linecap="round"/>
<path opacity="0.41" d="M642.716 63.7749C852.481 169.503 935.645 427.59 828.469 640.228C721.293 852.867 464.362 939.534 254.597 833.807" stroke="#354389" stroke-width="0.830524" stroke-linecap="round"/>
<path opacity="0.41" d="M614.988 334.284C677.22 424.831 653.26 549.374 561.473 612.458C469.685 675.543 344.828 653.28 282.596 562.733" stroke="#354389" stroke-width="0.830524" stroke-linecap="round"/>
<path opacity="0.41" d="M727.746 383.501C692.006 231.545 538.161 137.729 384.123 173.958" stroke="#354389" stroke-width="0.830524" stroke-linecap="round"/>
<path opacity="0.41" d="M536.939 448.832C536.939 430.62 531.296 412.856 520.785 397.983C510.275 383.11 495.414 371.86 478.247 365.78C461.08 359.7 442.451 359.089 424.923 364.031C407.395 368.973 391.829 379.226 380.366 393.378" stroke="#86A0FA" stroke-width="0.830524" stroke-linecap="round"/>
</g>
</svg>
