<svg width="90" height="90" viewBox="0 0 90 90" fill="none" xmlns="http://www.w3.org/2000/svg">
<path d="M79.4531 18.2812H26.0156C25.6427 18.2812 25.285 18.4294 25.0213 18.6931C24.7575 18.9569 24.6094 19.3145 24.6094 19.6875C24.6094 20.0605 24.7575 20.4181 25.0213 20.6819C25.285 20.9456 25.6427 21.0938 26.0156 21.0938H28.8281V68.9062C28.8292 69.561 28.9822 70.2066 29.275 70.7922C29.5678 71.3778 29.9925 71.8875 30.5156 72.2813L51.8906 88.3125C52.134 88.4951 52.4301 88.5938 52.7344 88.5938C53.0386 88.5938 53.3347 88.4951 53.5781 88.3125L74.9531 72.2813C75.4759 71.8872 75.9004 71.3775 76.1932 70.7919C76.486 70.2063 76.6391 69.5609 76.6406 68.9062V21.0938H79.4531C79.8261 21.0938 80.1838 20.9456 80.4475 20.6819C80.7112 20.4181 80.8594 20.0605 80.8594 19.6875C80.8594 19.3145 80.7112 18.9569 80.4475 18.6931C80.1838 18.4294 79.8261 18.2812 79.4531 18.2812ZM73.8281 68.9062C73.8281 69.1246 73.7773 69.3399 73.6797 69.5351C73.582 69.7304 73.4403 69.9003 73.2656 70.0312L52.7344 85.4297L32.2031 70.0312C32.0285 69.9003 31.8867 69.7304 31.7891 69.5351C31.6915 69.3399 31.6406 69.1246 31.6406 68.9062V21.0938H34.4531V66.0938C34.4542 66.7485 34.6072 67.3941 34.9 67.9797C35.1928 68.5653 35.6175 69.075 36.1406 69.4688L51.8906 81.2812C52.134 81.4638 52.4301 81.5625 52.7344 81.5625C53.0386 81.5625 53.3347 81.4638 53.5781 81.2812L69.3281 69.4688C69.8509 69.0747 70.2754 68.565 70.5682 67.9794C70.861 67.3938 71.0141 66.7484 71.0156 66.0938V21.0938H73.8281V68.9062Z" fill="#C4A2FC"/>
<path d="M49.9218 19.6257V12.6226C49.9218 11.5037 49.4773 10.4306 48.6862 9.63945C47.895 8.84828 46.8219 8.4038 45.703 8.4038H38.9193L34.1802 1.94771C34.0435 1.77884 33.8708 1.64264 33.6747 1.54909C33.4786 1.45553 33.2641 1.40698 33.0468 1.40698C32.8295 1.40698 32.615 1.45553 32.4189 1.54909C32.2228 1.64264 32.0501 1.77884 31.9134 1.94771L27.1743 8.4038H20.3905C19.2717 8.4038 18.1986 8.84828 17.4074 9.63945C16.6163 10.4306 16.1718 11.5037 16.1718 12.6226V19.6257C13.9427 21.8407 12.1736 24.4747 10.9664 27.3762C9.75918 30.2776 9.1377 33.3891 9.1377 36.5316C9.1377 39.6741 9.75918 42.7857 10.9664 45.6871C12.1736 48.5885 13.9427 51.2225 16.1718 53.4376V60.4407C16.1718 61.5596 16.6163 62.6326 17.4074 63.4238C18.1986 64.215 19.2717 64.6594 20.3905 64.6594H27.1743L31.9134 71.1169C32.044 71.2948 32.2147 71.4395 32.4116 71.5392C32.6085 71.6388 32.8261 71.6908 33.0468 71.6908C33.2675 71.6908 33.4851 71.6388 33.682 71.5392C33.8789 71.4395 34.0496 71.2948 34.1802 71.1169L38.9193 64.6594H45.703C46.8219 64.6594 47.895 64.215 48.6862 63.4238C49.4773 62.6326 49.9218 61.5596 49.9218 60.4407V53.4376C52.1501 51.2226 53.9185 48.5889 55.1252 45.688C56.3319 42.7871 56.9531 39.6763 56.9531 36.5344C56.9531 33.3926 56.3319 30.2817 55.1252 27.3808C53.9185 24.4799 52.1501 21.8462 49.9218 19.6313V19.6257ZM18.9843 12.6226C18.9843 12.2496 19.1325 11.8919 19.3962 11.6282C19.6599 11.3645 20.0176 11.2163 20.3905 11.2163H27.8859C28.1066 11.2163 28.3242 11.1644 28.5211 11.0647C28.718 10.965 28.8886 10.8204 29.0193 10.6426L33.0468 5.15818L37.0743 10.6426C37.205 10.8204 37.3756 10.965 37.5725 11.0647C37.7694 11.1644 37.987 11.2163 38.2077 11.2163H45.703C46.076 11.2163 46.4337 11.3645 46.6974 11.6282C46.9611 11.8919 47.1093 12.2496 47.1093 12.6226V17.1915C43.0218 14.222 38.0991 12.6226 33.0468 12.6226C27.9945 12.6226 23.0718 14.222 18.9843 17.1915V12.6226ZM47.1093 60.4351C47.1093 60.808 46.9611 61.1657 46.6974 61.4294C46.4337 61.6931 46.076 61.8413 45.703 61.8413H38.2077C37.9869 61.8415 37.7692 61.8936 37.5723 61.9935C37.3754 62.0934 37.2048 62.2383 37.0743 62.4165L33.0468 67.9008L29.0193 62.4165C28.8888 62.2383 28.7182 62.0934 28.5213 61.9935C28.3244 61.8936 28.1067 61.8415 27.8859 61.8413H20.3905C20.0176 61.8413 19.6599 61.6931 19.3962 61.4294C19.1325 61.1657 18.9843 60.808 18.9843 60.4351V55.8676C23.0722 58.8362 27.9947 60.4351 33.0468 60.4351C38.0989 60.4351 43.0214 58.8362 47.1093 55.8676V60.4351ZM47.548 51.8569C44.0223 55.1945 39.4532 57.2138 34.6116 57.5739C29.7701 57.9341 24.9525 56.6131 20.9717 53.8339C16.991 51.0547 14.0907 46.9874 12.7604 42.3183C11.4301 37.6492 11.7511 32.6641 13.6693 28.2042C15.5874 23.7443 18.9854 20.0825 23.2897 17.8368C27.594 15.5911 32.5413 14.899 37.2966 15.8771C42.052 16.8553 46.3244 19.4438 49.393 23.2061C52.4615 26.9683 54.1384 31.6739 54.1405 36.5288C54.1465 39.3975 53.5646 42.2369 52.4308 44.872C51.2969 47.5071 49.6352 49.8819 47.548 51.8499V51.8569Z" fill="#151A6A"/>
</svg>
