<svg width="125" height="61" viewBox="0 0 125 61" fill="none" xmlns="http://www.w3.org/2000/svg">
<g clip-path="url(#clip0_2_16)">
<path d="M32.4479 10.2612V37.4202H26.4619V11.5545L32.4479 10.2612Z" fill="#4D5072"/>
<path d="M35.2459 27.6651C35.2459 26.261 35.5169 24.9431 36.0588 23.7114C36.6254 22.455 37.3767 21.3711 38.3128 20.4597C39.2735 19.5482 40.3944 18.8339 41.6754 18.3165C42.981 17.7745 44.3728 17.5035 45.8509 17.5035C47.3288 17.5035 48.7083 17.7745 49.9893 18.3165C51.2949 18.8339 52.4158 19.5482 53.3519 20.4597C54.3126 21.3711 55.0639 22.455 55.6059 23.7114C56.1725 24.9431 56.4557 26.261 56.4557 27.6651C56.4557 29.0692 56.1725 30.3994 55.6059 31.6558C55.0639 32.8875 54.3126 33.9591 53.3519 34.8705C52.4158 35.782 51.2949 36.4964 49.9893 37.0137C48.7083 37.5311 47.3288 37.7897 45.8509 37.7897C44.3728 37.7897 42.981 37.5311 41.6754 37.0137C40.3944 36.4964 39.2735 35.782 38.3128 34.8705C37.3767 33.9591 36.6254 32.8875 36.0588 31.6558C35.5169 30.3994 35.2459 29.0692 35.2459 27.6651ZM45.8509 32.6165C47.1811 32.6165 48.3019 32.1362 49.2134 31.1755C50.1495 30.2147 50.6175 29.0446 50.6175 27.6651C50.6175 26.261 50.1495 25.0785 49.2134 24.1178C48.3019 23.1571 47.1811 22.6767 45.8509 22.6767C44.5205 22.6767 43.3874 23.1571 42.4513 24.1178C41.5398 25.0785 41.0842 26.261 41.0842 27.6651C41.0842 29.0446 41.5398 30.2147 42.4513 31.1755C43.3874 32.1362 44.5205 32.6165 45.8509 32.6165Z" fill="#4D5072"/>
<path d="M57.7481 35.24L60.5934 31.2124C61.8251 31.9514 62.9459 32.4934 63.9559 32.8382C64.966 33.1585 65.9636 33.3187 66.949 33.3187C67.9343 33.3187 68.7103 33.1831 69.2769 32.9121C69.8681 32.6165 70.1637 32.2347 70.1637 31.7667C70.1637 31.3972 70.0036 31.1016 69.6833 30.8798C69.3631 30.6335 68.8581 30.4611 68.1683 30.3625L64.2884 29.7713C62.3671 29.4757 60.889 28.8353 59.8544 27.8499C58.8197 26.8398 58.3024 25.5342 58.3024 23.933C58.3024 21.9623 59.0537 20.4104 60.5564 19.2772C62.0591 18.144 64.1161 17.5775 66.7272 17.5775C68.1314 17.5775 69.5355 17.7868 70.9397 18.2057C72.3685 18.5998 73.6864 19.1787 74.8934 19.9423L72.0482 23.7853C70.9889 23.1694 69.9789 22.726 69.0182 22.455C68.0575 22.1594 67.0967 22.0116 66.136 22.0116C65.3724 22.0116 64.7565 22.1471 64.2884 22.4181C63.8204 22.6644 63.5864 22.9969 63.5864 23.4158C63.5864 23.8099 63.7589 24.1301 64.1037 24.3765C64.4486 24.5981 65.0398 24.7706 65.8773 24.8937L69.7572 25.485C71.6786 25.756 73.1567 26.3965 74.1913 27.4064C75.2506 28.3918 75.7802 29.6481 75.7802 31.1755C75.7802 32.1116 75.5585 32.986 75.1151 33.799C74.6717 34.6119 74.0559 35.314 73.2675 35.9052C72.5039 36.4964 71.5801 36.9645 70.4963 37.3093C69.4123 37.6296 68.2423 37.7896 66.9859 37.7896C65.1383 37.7896 63.414 37.5803 61.8128 37.1615C60.2362 36.7181 58.8813 36.0776 57.7481 35.24Z" fill="#4D5072"/>
<path d="M76.5484 35.24L79.3936 31.2124C80.6254 31.9514 81.7462 32.4934 82.7561 32.8382C83.7661 33.1585 84.7638 33.3187 85.7491 33.3187C86.7346 33.3187 87.5105 33.1831 88.0771 32.9121C88.6683 32.6165 88.9639 32.2347 88.9639 31.7667C88.9639 31.3972 88.8038 31.1016 88.4836 30.8798C88.1633 30.6335 87.6583 30.4611 86.9686 30.3625L83.0887 29.7713C81.1672 29.4757 79.6893 28.8353 78.6546 27.8499C77.62 26.8398 77.1027 25.5342 77.1027 23.933C77.1027 21.9623 77.854 20.4104 79.3567 19.2772C80.8593 18.144 82.9163 17.5775 85.5275 17.5775C86.9316 17.5775 88.3358 17.7868 89.7399 18.2057C91.1686 18.5998 92.4866 19.1787 93.694 19.9423L90.8484 23.7853C89.7892 23.1694 88.7792 22.726 87.8185 22.455C86.8577 22.1594 85.897 22.0116 84.9363 22.0116C84.1727 22.0116 83.5568 22.1471 83.0887 22.4181C82.6207 22.6644 82.3866 22.9969 82.3866 23.4158C82.3866 23.8099 82.5591 24.1301 82.904 24.3765C83.2489 24.5981 83.8401 24.7706 84.6776 24.8937L88.5574 25.485C90.4789 25.756 91.957 26.3965 92.9916 27.4064C94.0513 28.3918 94.5802 29.6481 94.5802 31.1755C94.5802 32.1116 94.3591 32.986 93.9151 33.799C93.472 34.6119 92.856 35.314 92.0678 35.9052C91.3042 36.4964 90.3804 36.9645 89.2964 37.3093C88.2126 37.6296 87.0424 37.7896 85.7862 37.7896C83.9386 37.7896 82.2142 37.5803 80.613 37.1615C79.0365 36.7181 77.6815 36.0776 76.5484 35.24Z" fill="#4D5072"/>
<path d="M114.965 34.8336C113.733 35.8682 112.465 36.6196 111.16 37.0876C109.879 37.5557 108.425 37.7897 106.799 37.7897C105.321 37.7897 103.929 37.5311 102.624 37.0137C101.318 36.4964 100.185 35.782 99.2239 34.8705C98.2882 33.9591 97.5364 32.8875 96.9702 31.6558C96.4282 30.3995 96.1577 29.0692 96.1577 27.6651C96.1577 26.261 96.4161 24.9431 96.9328 23.7114C97.4748 22.455 98.2015 21.3711 99.1129 20.4597C100.025 19.5482 101.096 18.8339 102.328 18.3165C103.584 17.7992 104.927 17.5406 106.355 17.5406C107.785 17.5406 109.103 17.8115 110.31 18.3535C111.517 18.8954 112.551 19.6344 113.413 20.5705C114.3 21.5066 114.99 22.6397 115.482 23.9701C115.976 25.2757 116.222 26.6921 116.222 28.2194V29.6974H102.291C102.686 30.6089 103.301 31.3602 104.139 31.9514C104.977 32.518 105.962 32.8013 107.095 32.8013C107.908 32.8013 108.646 32.6782 109.312 32.4318C109.977 32.1608 110.544 31.7913 111.011 31.3232L114.965 34.8336ZM106.245 22.4181C105.259 22.4181 104.41 22.6891 103.695 23.231C102.98 23.773 102.476 24.5366 102.18 25.5219H110.346C110.026 24.5858 109.496 23.8345 108.757 23.2679C108.043 22.7014 107.205 22.4181 106.245 22.4181Z" fill="#4D5072"/>
<path d="M125.006 10.2612V37.4202H119.02V11.5545L125.006 10.2612Z" fill="#4D5072"/>
<path d="M0 28.2318C0 26.7806 0.279521 25.4184 0.838563 24.1454C1.42301 22.8469 2.19805 21.7265 3.16367 20.7844C4.1547 19.8424 5.3109 19.104 6.63228 18.5693C7.97906 18.0093 9.41474 17.7291 10.9395 17.7291C12.4641 17.7291 13.8871 18.0093 15.2085 18.5693C16.5552 19.104 17.7115 19.8424 18.6771 20.7844C19.6681 21.7265 20.4432 22.8469 21.0022 24.1454C21.5867 25.4184 21.8789 26.7806 21.8789 28.2318C21.8789 29.6831 21.5867 31.058 21.0022 32.3566C20.4432 33.6296 19.6681 34.7372 18.6771 35.6792C17.7115 36.6213 16.5552 37.3597 15.2085 37.8943C13.8871 38.429 12.4641 38.6964 10.9395 38.6964C9.41474 38.6964 7.97906 38.429 6.63228 37.8943C5.3109 37.3597 4.1547 36.6213 3.16367 35.6792C2.19805 34.7372 1.42301 33.6296 0.838563 32.3566C0.279521 31.058 0 29.6831 0 28.2318ZM10.9395 33.3496C12.3117 33.3496 13.4678 32.8531 14.408 31.8601C15.3737 30.8671 15.8564 29.6577 15.8564 28.2318C15.8564 26.7806 15.3737 25.5584 14.408 24.5654C13.4678 23.5725 12.3117 23.076 10.9395 23.076C9.56726 23.076 8.39834 23.5725 7.43271 24.5654C6.49251 25.5584 6.02241 26.7806 6.02241 28.2318C6.02241 29.6577 6.49251 30.8671 7.43271 31.8601C8.39834 32.8531 9.56726 33.3496 10.9395 33.3496Z" fill="#4D5072"/>
<path d="M23.6189 17.7291H10.939C12.0348 19.6694 15.2595 23.1989 19.3923 23.1989C23.525 23.1989 23.932 19.6694 23.6189 17.7291Z" fill="#4D5072"/>
<path d="M0 43.2545H20.9673V48.7242H0V43.2545Z" fill="#4D5072"/>
</g>
<defs>
<clipPath id="clip0_2_16">
<rect width="125" height="60.6343" fill="white"/>
</clipPath>
</defs>
</svg>
