<svg width="980" height="718" viewBox="0 0 980 718" fill="none" xmlns="http://www.w3.org/2000/svg">
<g clip-path="url(#clip0_115_6372)">
<path d="M318.883 593.923C318.883 593.923 318.783 593.888 318.683 593.853C315.738 591.224 312.767 588.514 309.822 585.885C309.722 585.85 309.697 585.769 309.672 585.688C309.647 585.607 309.722 585.561 309.697 585.48C309.747 585.353 310.023 585.377 310.048 585.458C312.993 588.087 315.864 590.762 318.909 593.426C319.009 593.461 319.033 593.542 319.058 593.623C319.083 593.704 319.008 593.75 319.033 593.831C319.058 593.912 318.983 593.958 318.883 593.923ZM297.691 574.524C297.691 574.524 297.592 574.489 297.492 574.454C294.597 571.698 291.702 568.943 288.907 566.222C288.782 566.106 288.807 565.898 288.957 565.806C289.107 565.714 289.282 565.704 289.406 565.82C292.202 568.54 295.097 571.296 297.992 574.052C298.092 574.087 298.117 574.168 298.067 574.295C298.091 574.376 298.017 574.422 298.042 574.503C297.867 574.514 297.791 574.559 297.691 574.524ZM277.027 554.516C276.927 554.481 276.926 554.48 276.827 554.445C274.006 551.644 271.162 548.761 268.517 545.949C268.492 545.868 268.391 545.832 268.441 545.706C268.416 545.624 268.492 545.579 268.468 545.498C268.618 545.406 268.792 545.395 268.917 545.512C271.637 548.278 274.482 551.16 277.302 553.962C277.327 554.043 277.427 554.078 277.377 554.205C277.326 554.332 277.327 554.332 277.352 554.413C277.277 554.459 277.202 554.505 277.027 554.516ZM257.137 533.84C257.037 533.805 257.038 533.805 256.938 533.77C254.168 530.842 251.573 527.902 248.903 525.009C248.878 524.928 248.778 524.893 248.828 524.766C248.803 524.685 248.878 524.639 248.853 524.558C249.004 524.466 249.178 524.455 249.303 524.572C251.973 527.465 254.668 530.439 257.338 533.333C257.363 533.414 257.463 533.449 257.412 533.576C257.437 533.657 257.363 533.703 257.387 533.784C257.312 533.83 257.137 533.84 257.137 533.84ZM237.924 512.463C237.824 512.428 237.824 512.428 237.625 512.358C235.005 509.337 232.459 506.271 229.939 503.286C229.814 503.17 229.84 502.962 229.99 502.87C230.141 502.779 230.316 502.768 230.44 502.884C232.96 505.869 235.505 508.935 238.124 511.955C238.149 512.036 238.25 512.072 238.175 512.117C238.199 512.198 238.15 512.325 238.074 512.371C238.099 512.452 238.099 512.452 237.924 512.463ZM219.711 490.282C219.611 490.246 219.512 490.211 219.412 490.176C216.942 487.064 214.548 483.906 212.153 480.749C212.128 480.668 212.103 480.586 212.078 480.505C212.053 480.424 212.129 480.378 212.204 480.332C212.354 480.241 212.529 480.23 212.578 480.392C214.973 483.55 217.368 486.708 219.838 489.82C219.863 489.901 219.963 489.936 219.888 489.982C219.912 490.063 219.862 490.19 219.786 490.236L219.711 490.282ZM202.426 467.342C202.326 467.306 202.226 467.271 202.201 467.19C199.882 463.986 197.537 460.702 195.292 457.452C195.168 457.336 195.193 457.128 195.343 457.036C195.493 456.944 195.694 457.015 195.719 457.096C197.963 460.346 200.307 463.63 202.526 466.799C202.551 466.88 202.552 466.88 202.577 466.961C202.601 467.042 202.551 467.169 202.476 467.215C202.501 467.296 202.426 467.342 202.426 467.342ZM186.141 443.598C186.041 443.562 185.941 443.527 185.916 443.446C183.847 440.186 181.652 436.81 179.533 433.387C179.508 433.306 179.484 433.225 179.459 433.144C179.434 433.063 179.508 433.017 179.583 432.971C179.734 432.879 179.934 432.95 180.059 433.066C182.178 436.488 184.372 439.865 186.442 443.125C186.466 443.206 186.467 443.206 186.492 443.287C186.517 443.368 186.467 443.495 186.392 443.541C186.317 443.587 186.316 443.587 186.141 443.598ZM171.082 419.201C170.907 419.212 170.882 419.13 170.857 419.049C168.987 415.859 166.993 412.553 164.774 408.807C164.749 408.726 164.725 408.645 164.7 408.564C164.675 408.482 164.75 408.437 164.825 408.391C164.975 408.299 165.175 408.369 165.299 408.486C167.493 412.151 169.413 415.503 171.382 418.728C171.407 418.809 171.407 418.809 171.432 418.89C171.457 418.971 171.407 419.098 171.332 419.144C171.157 419.155 171.082 419.201 171.082 419.201ZM156.524 394.402C156.349 394.413 156.324 394.331 156.299 394.25C155.725 393.253 155.177 392.337 154.604 391.339C153.233 388.904 151.837 386.387 150.366 383.916C150.341 383.835 150.316 383.754 150.291 383.673C150.267 383.592 150.342 383.546 150.417 383.5C150.567 383.408 150.767 383.479 150.816 383.641C152.187 386.076 153.658 388.547 155.004 390.901C155.578 391.899 156.151 392.897 156.724 393.894C156.749 393.975 156.75 393.975 156.774 394.056C156.799 394.137 156.749 394.264 156.674 394.31C156.699 394.391 156.599 394.356 156.524 394.402ZM142.116 369.511C141.941 369.522 141.915 369.441 141.89 369.359C139.696 365.694 137.702 362.388 135.733 359.163C135.708 359.082 135.683 359.001 135.658 358.92C135.633 358.839 135.708 358.793 135.784 358.747C135.934 358.655 136.133 358.726 136.258 358.842C138.227 362.067 140.222 365.373 142.416 369.039C142.515 369.074 142.441 369.12 142.466 369.201C142.491 369.282 142.441 369.409 142.366 369.455C142.291 369.5 142.216 369.546 142.116 369.511ZM129.083 344.165C128.908 344.176 128.783 344.06 128.833 343.933C127.84 340.111 126.996 336.198 126.252 332.321C126.228 332.24 126.202 332.159 126.277 332.113C126.352 332.067 126.427 332.021 126.502 331.975C126.677 331.964 126.802 332.081 126.852 332.243C127.521 336.166 128.439 340.034 129.433 343.855L129.458 343.936C129.383 343.981 129.258 344.154 129.083 344.165ZM124.404 315.833C124.229 315.844 124.104 315.727 124.054 315.565C123.86 312.315 123.764 309.099 123.744 305.838C123.796 305.133 123.748 304.393 123.799 303.688C123.749 303.526 123.974 303.388 124.149 303.377C124.249 303.412 124.249 303.412 124.349 303.448C124.374 303.529 124.473 303.564 124.423 303.691C124.372 304.396 124.421 305.136 124.37 305.842C124.389 309.103 124.484 312.318 124.679 315.568C124.804 315.684 124.579 315.822 124.404 315.833ZM125.224 287.124C125.049 287.135 124.999 286.973 124.95 286.811C124.95 286.811 124.95 286.811 125.025 286.765C125.506 282.812 126.087 278.896 126.844 274.968C126.894 274.841 127.019 274.668 127.219 274.739C127.319 274.774 127.544 274.925 127.418 275.098C126.737 278.98 126.081 282.943 125.575 286.814C125.55 287.022 125.399 287.114 125.224 287.124ZM131.119 258.974C130.919 258.904 130.794 258.788 130.844 258.661L130.819 258.58C131.975 254.793 133.207 250.96 134.662 247.279C134.712 247.152 134.862 247.06 135.062 247.131C135.162 247.166 135.262 247.201 135.287 247.282C135.312 247.363 135.337 247.444 135.261 247.49C133.906 251.207 132.575 255.004 131.494 258.745C131.369 258.918 131.293 258.964 131.119 258.974ZM141.536 232.201L141.435 232.166C141.335 232.13 141.211 232.014 141.261 231.887C141.336 231.842 141.236 231.806 141.311 231.76C143.067 228.185 144.922 224.645 146.903 221.22C146.953 221.093 147.202 221.037 147.302 221.072C147.502 221.143 147.477 221.35 147.427 221.477C145.446 224.902 143.592 228.442 141.911 231.972C141.786 232.144 141.711 232.19 141.536 232.201ZM278.124 228.552C277.949 228.563 277.824 228.447 277.874 228.32C277.849 228.239 277.825 228.158 277.9 228.112C277.975 228.066 278.05 228.02 278.125 227.975C281.976 227.162 285.627 225.701 288.98 223.556C289.13 223.464 289.331 223.535 289.455 223.651C289.48 223.732 289.479 223.732 289.504 223.813C289.529 223.894 289.479 224.021 289.404 224.067C285.876 226.222 282.149 227.729 278.124 228.552ZM261.427 227.876C257.629 226.827 254.007 225.189 250.486 223.009C250.361 222.892 250.311 222.73 250.362 222.603C250.412 222.476 250.662 222.42 250.787 222.536C254.308 224.717 258.005 226.309 261.528 227.333C261.627 227.368 261.753 227.485 261.703 227.612L261.727 227.693C261.752 227.774 261.602 227.865 261.427 227.876ZM300.846 212.262L300.747 212.227C300.647 212.192 300.622 212.111 300.598 212.03C300.573 211.949 300.547 211.868 300.623 211.822C302.703 208.433 304.359 204.822 305.24 201.01C305.29 200.884 305.515 200.746 305.615 200.781C305.715 200.816 305.839 200.932 305.789 201.059L305.814 201.141C304.783 205.044 303.227 208.69 301.072 212.124C301.097 212.205 301.021 212.251 300.846 212.262ZM238.03 212.039C237.93 212.004 237.831 211.969 237.731 211.934C235.236 208.741 233.342 205.181 232.098 201.416C232.073 201.335 232.049 201.254 232.124 201.208C232.099 201.127 232.174 201.081 232.349 201.07C232.424 201.024 232.623 201.095 232.673 201.257C233.892 204.94 235.762 208.419 238.256 211.612C238.281 211.693 238.38 211.729 238.305 211.774C238.33 211.855 238.28 211.982 238.205 212.028C238.105 211.993 238.106 211.993 238.03 212.039ZM156.148 207.484C156.148 207.484 156.048 207.449 155.948 207.414C155.848 207.379 155.824 207.298 155.874 207.171C155.849 207.09 155.924 207.044 155.999 206.998C158.304 203.761 160.708 200.558 163.163 197.518C163.213 197.391 163.388 197.381 163.588 197.451C163.713 197.567 163.762 197.73 163.637 197.902C161.183 200.943 158.678 204.109 156.373 207.347C156.398 207.428 156.323 207.474 156.148 207.484ZM174.731 185.541C174.631 185.506 174.631 185.506 174.531 185.47C174.506 185.389 174.406 185.354 174.457 185.227C174.432 185.146 174.506 185.1 174.481 185.019C177.361 182.201 180.364 179.499 183.343 177.005C183.493 176.914 183.669 176.903 183.794 177.019C183.819 177.101 183.843 177.181 183.868 177.263C183.893 177.344 183.818 177.389 183.742 177.435C180.764 179.929 177.76 182.631 174.956 185.403C174.906 185.53 174.831 185.576 174.731 185.541ZM230.7 184.942C230.525 184.953 230.475 184.79 230.426 184.628C230.807 180.93 231.637 176.956 232.893 172.915C232.944 172.788 233.094 172.697 233.269 172.686C233.369 172.721 233.468 172.756 233.493 172.838C233.518 172.919 233.544 173 233.569 173.081C232.288 177.041 231.431 180.933 231.05 184.631C231.025 184.839 230.8 184.977 230.7 184.942ZM306.115 184.687C305.94 184.698 305.815 184.581 305.865 184.454C305.147 180.658 303.728 176.904 301.858 173.425C301.834 173.344 301.835 173.344 301.81 173.263C301.86 173.136 301.835 173.055 301.91 173.009C302.06 172.917 302.259 172.987 302.309 173.15C304.303 176.745 305.722 180.499 306.466 184.377C306.491 184.458 306.515 184.539 306.44 184.585C306.265 184.595 306.19 184.641 306.115 184.687ZM197.131 167.618C196.956 167.629 196.932 167.548 196.907 167.467C196.882 167.385 196.882 167.386 196.857 167.304C196.832 167.223 196.883 167.097 196.958 167.051C200.311 164.906 203.889 162.912 207.366 161.173C207.516 161.081 207.715 161.151 207.765 161.313C207.815 161.476 207.864 161.638 207.614 161.694C204.137 163.434 200.635 165.381 197.282 167.526C197.306 167.607 197.231 167.653 197.131 167.618ZM290.229 161.951L290.129 161.916C286.608 160.024 282.961 158.305 279.413 156.911C279.313 156.876 279.188 156.759 279.239 156.632C279.239 156.632 279.214 156.551 279.289 156.505C279.339 156.379 279.489 156.287 279.689 156.357C283.336 157.787 287.059 159.46 290.505 161.397C290.605 161.433 290.629 161.514 290.654 161.595C290.679 161.676 290.704 161.757 290.629 161.803C290.479 161.895 290.404 161.94 290.229 161.951ZM239.892 157.954L239.791 157.918C239.692 157.883 239.567 157.767 239.617 157.64C239.692 157.594 239.592 157.559 239.667 157.513C241.497 154.181 243.578 150.792 245.908 147.347C245.958 147.22 246.208 147.163 246.333 147.279C246.458 147.396 246.508 147.558 246.458 147.685C244.202 151.084 241.947 154.484 240.192 157.77C240.142 157.897 240.067 157.943 239.892 157.954ZM223.073 155.426C222.898 155.437 222.873 155.356 222.823 155.194L222.799 155.113C222.849 154.986 222.899 154.859 222.974 154.813C226.8 153.63 230.701 152.691 234.576 151.959C234.751 151.949 234.876 152.065 234.926 152.227C234.976 152.389 234.851 152.562 234.676 152.573C230.875 153.258 227.075 154.233 223.073 155.426C223.173 155.462 223.173 155.462 223.073 155.426ZM263.247 152.444C259.299 151.776 255.35 151.397 251.4 151.307C251.225 151.317 251.1 151.201 251.126 150.993C251.076 150.831 251.302 150.693 251.477 150.683C255.426 150.773 259.475 151.187 263.324 151.82C263.424 151.855 263.648 152.007 263.523 152.179C263.573 152.342 263.422 152.433 263.247 152.444ZM256.402 134.484C256.402 134.484 256.302 134.449 256.202 134.414C256.102 134.379 256.077 134.298 256.127 134.171C256.103 134.09 256.177 134.044 256.152 133.963C258.632 131.004 261.387 128.07 264.141 125.135C264.191 125.008 264.466 125.033 264.591 125.149C264.691 125.184 264.715 125.265 264.74 125.346C264.765 125.427 264.69 125.473 264.715 125.554C261.961 128.489 259.207 131.423 256.728 134.382C256.653 134.428 256.577 134.474 256.402 134.484ZM276.558 113.891C276.458 113.855 276.458 113.855 276.358 113.82C276.333 113.739 276.233 113.704 276.208 113.623C276.183 113.542 276.258 113.496 276.308 113.369C279.162 110.759 282.19 108.138 285.319 105.552C285.469 105.461 285.645 105.45 285.77 105.567C285.895 105.683 285.869 105.891 285.719 105.982C282.59 108.568 279.562 111.189 276.708 113.799C276.733 113.88 276.558 113.891 276.558 113.891ZM298.784 95.6895C298.684 95.6543 298.584 95.6188 298.484 95.5836C298.459 95.5025 298.36 95.4675 298.435 95.4216C298.41 95.3406 298.46 95.2136 298.535 95.1678C301.738 92.8254 304.941 90.4832 308.27 88.2572C308.42 88.1655 308.619 88.2358 308.644 88.3168C308.769 88.4331 308.744 88.6413 308.594 88.733C305.366 90.9943 302.063 93.3013 298.859 95.6436C298.959 95.6788 298.784 95.6895 298.784 95.6895ZM322.631 79.5781C322.456 79.5888 322.432 79.5077 322.407 79.4266C322.382 79.3456 322.382 79.3454 322.357 79.2643C322.332 79.1833 322.382 79.0563 322.457 79.0104C325.835 76.9466 329.213 74.8828 332.716 72.9352C332.866 72.8435 333.066 72.9141 333.116 73.0762C333.141 73.1573 333.165 73.2382 333.19 73.3193C333.215 73.4003 333.139 73.4462 333.064 73.4921C329.662 75.4749 326.185 77.5038 322.807 79.5676C322.707 79.5324 322.631 79.5781 322.631 79.5781ZM347.602 65.3808C347.427 65.3915 347.401 65.3103 347.376 65.2292C347.276 65.194 347.352 65.1483 347.327 65.0672C347.377 64.9403 347.352 64.8592 347.502 64.7674C350.955 62.9468 354.607 61.1965 358.184 59.4921C358.334 59.4004 358.534 59.471 358.584 59.6331C358.634 59.7953 358.508 59.9681 358.433 60.0139C354.856 61.7183 351.304 63.5038 347.751 65.2892C347.701 65.4162 347.701 65.416 347.602 65.3808ZM373.717 53.1783C373.542 53.189 373.518 53.1081 373.393 52.9918L373.367 52.9104C373.418 52.7835 373.468 52.6565 373.543 52.6106C377.17 51.0684 380.822 49.6073 384.673 48.2166C384.823 48.1248 384.949 48.2413 384.998 48.4035C385.023 48.4845 385.048 48.5656 384.973 48.6115C384.998 48.6925 384.922 48.7384 384.847 48.7843C381.096 50.2102 377.344 51.6361 373.717 53.1783ZM400.679 43.4433C400.504 43.4539 400.48 43.373 400.43 43.2108L400.405 43.1295C400.455 43.0026 400.505 42.8755 400.58 42.8297C404.331 41.6928 408.183 40.5915 412.059 39.571C412.234 39.5603 412.434 39.6306 412.484 39.7927C412.509 39.8738 412.533 39.9551 412.458 40.001C412.383 40.0468 412.408 40.1278 412.233 40.1385C408.382 41.2401 404.53 42.3417 400.679 43.4433C400.779 43.4785 400.779 43.4785 400.679 43.4433ZM428.637 36.3733C428.462 36.384 428.337 36.2674 428.387 36.1405C428.387 36.1405 428.463 36.0947 428.363 36.0595C428.413 35.9326 428.463 35.8056 428.538 35.7597C432.389 34.9472 436.339 34.1698 440.24 33.5194C440.415 33.5088 440.54 33.6249 440.589 33.7871C440.639 33.9492 440.514 34.1221 440.339 34.1328C436.363 34.829 432.488 35.5608 428.637 36.3733ZM456.966 31.6754C456.791 31.686 456.666 31.5699 456.616 31.4077C456.616 31.4077 456.616 31.4077 456.691 31.3618C456.641 31.1996 456.792 31.1081 456.967 31.0974C460.917 30.6092 464.892 30.2021 468.793 29.8408C468.968 29.8301 469.093 29.9463 469.142 30.1084C469.192 30.2706 469.066 30.4432 468.891 30.4538C464.891 30.7799 460.916 31.1871 456.966 31.6754ZM526.284 30.429C526.184 30.3938 526.184 30.3938 526.284 30.429C522.335 30.05 518.411 29.752 514.412 29.4999C514.237 29.5106 514.187 29.3485 514.137 29.1864C514.163 28.9783 514.313 28.8867 514.488 28.8761C518.562 29.0823 522.486 29.3803 526.36 29.8052C526.46 29.8404 526.459 29.8401 526.484 29.9212C526.509 30.0023 526.535 30.0835 526.56 30.1646C526.51 30.2916 526.359 30.3832 526.284 30.429ZM485.566 29.3152C485.391 29.3258 485.266 29.2094 485.292 29.0014C485.242 28.8392 485.467 28.7018 485.567 28.737C489.617 28.5731 493.516 28.5009 497.516 28.4639C497.691 28.4533 497.816 28.5695 497.79 28.7775C497.815 28.8586 497.741 28.9044 497.765 28.9855C497.69 29.0313 497.615 29.0773 497.615 29.0773C493.616 29.1143 489.616 29.1512 485.566 29.3152Z" fill="#292526"/>
<path fill-rule="evenodd" clip-rule="evenodd" d="M599.792 7.27747L542.054 30.3925L543.969 13.06L599.792 7.27747Z" fill="#6070DB"/>
<path fill-rule="evenodd" clip-rule="evenodd" d="M599.971 7.31537L538.212 -0.0440661L543.828 13.4993L599.971 7.31537Z" fill="#7C98F4"/>
<path fill-rule="evenodd" clip-rule="evenodd" d="M544.828 19.2825L542.01 30.1878L553.632 27.8331L546.937 19.1705L544.828 19.2825Z" fill="#292526"/>
<path fill-rule="evenodd" clip-rule="evenodd" d="M599.895 7.29364L555.09 39.25L544.933 19.2577L599.895 7.29364Z" fill="#7C98F4"/>
<path fill-rule="evenodd" clip-rule="evenodd" d="M249.995 665.899C249.995 665.899 81.6699 492.564 135.644 422.145C178.47 366.307 255.734 480.321 273.91 582.093C292.122 683.864 249.995 665.899 249.995 665.899Z" fill="#EBEAEC"/>
<path d="M221.546 539.839H221.501C221.321 539.791 221.231 539.646 221.276 539.502L234.995 477.997C235.04 477.852 235.174 477.755 235.354 477.755C235.534 477.804 235.624 477.948 235.579 478.093L221.861 539.598C221.816 539.743 221.726 539.839 221.546 539.839Z" fill="black"/>
<path d="M201.666 503.061L149.896 496.94C149.716 496.94 149.626 496.795 149.626 496.602C149.626 496.41 149.806 496.313 149.941 496.361L201.666 502.483C201.846 502.483 201.936 502.627 201.936 502.82C201.981 502.965 201.846 503.061 201.666 503.061Z" fill="black"/>
<path d="M185.204 476.165H185.159C184.979 476.117 184.889 475.972 184.934 475.828L193.66 431.338C193.705 431.193 193.84 431.049 194.02 431.097C194.2 431.145 194.29 431.289 194.245 431.434L185.519 475.924C185.474 476.069 185.339 476.165 185.204 476.165Z" fill="black"/>
<path d="M275.344 673.811C275.234 673.811 275.087 673.712 275.05 673.612C274.829 672.915 252.386 603.791 221.186 539.841C197.639 491.618 175.343 458.723 154.849 442.101C154.739 442.001 154.702 441.802 154.813 441.703C154.923 441.603 155.107 441.553 155.217 441.653C175.747 458.374 198.117 491.319 221.701 539.592C252.938 603.591 275.381 672.716 275.602 673.413C275.639 673.562 275.565 673.761 275.418 673.811C275.418 673.811 275.381 673.811 275.344 673.811Z" fill="black"/>
<path fill-rule="evenodd" clip-rule="evenodd" d="M782.899 651.637C782.899 651.637 951.224 478.302 897.249 407.883C854.423 352.046 777.159 466.06 758.984 567.831C740.735 669.603 782.899 651.637 782.899 651.637Z" fill="#EBEAEC"/>
<path d="M811.309 525.581C811.174 525.581 811.039 525.485 811.039 525.34L797.321 463.835C797.276 463.69 797.366 463.498 797.546 463.498C797.726 463.498 797.861 463.546 797.906 463.739L811.624 525.244C811.669 525.388 811.579 525.581 811.399 525.581C811.354 525.581 811.309 525.581 811.309 525.581Z" fill="black"/>
<path d="M831.19 488.804C831.055 488.804 830.92 488.707 830.875 488.563C830.875 488.418 830.965 488.273 831.145 488.225L882.87 482.104C883.05 482.104 883.185 482.2 883.185 482.345C883.185 482.489 883.095 482.634 882.915 482.682L831.19 488.804Z" fill="black"/>
<path d="M847.652 461.907C847.517 461.907 847.382 461.811 847.337 461.666L838.612 417.176C838.567 417.032 838.702 416.839 838.837 416.839C839.017 416.791 839.151 416.935 839.196 417.08L847.922 461.57C847.967 461.715 847.832 461.907 847.697 461.907H847.652Z" fill="black"/>
<path d="M757.512 659.55C757.475 659.55 757.439 659.55 757.439 659.55C757.291 659.5 757.181 659.351 757.255 659.152C757.475 658.455 779.919 589.28 811.155 525.331C834.739 477.008 857.109 444.063 877.639 427.391C877.749 427.292 877.97 427.292 878.044 427.441C878.154 427.59 878.117 427.74 878.007 427.839C857.55 444.461 835.217 477.356 811.67 525.58C780.47 589.529 758.027 658.654 757.806 659.351C757.77 659.45 757.623 659.55 757.512 659.55Z" fill="black"/>
<path fill-rule="evenodd" clip-rule="evenodd" d="M301.829 611.744C301.829 611.744 144.123 400.35 209.047 329.84C260.558 273.933 329.023 408.778 336.589 522.764C344.194 636.755 301.829 611.744 301.829 611.744Z" fill="#E1E0E3"/>
<path d="M327.693 623.563C327.538 623.545 327.427 623.476 327.405 623.307C327.301 622.797 316.931 571.019 299.439 512.199C283.316 457.966 257.674 386.507 227.078 354.051C226.973 353.928 226.951 353.76 227.085 353.61C227.212 353.514 227.412 353.483 227.517 353.606C241.068 367.939 254.764 391.081 268.292 422.278C279.09 447.232 289.777 477.426 300.055 511.94C317.547 570.761 327.911 622.594 328.015 623.104C328.037 623.272 327.942 623.427 327.782 623.463C327.732 623.568 327.693 623.563 327.693 623.563Z" fill="black"/>
<path d="M297.876 507.827C297.831 507.827 297.787 507.827 297.787 507.827C297.652 507.778 297.561 507.586 297.606 507.441L319.466 452.588C319.511 452.443 319.691 452.347 319.871 452.443C320.051 452.54 320.096 452.684 320.051 452.829L298.191 507.682C298.101 507.779 298.011 507.827 297.876 507.827Z" fill="black"/>
<path d="M287.082 473.266H287.037L235.222 462.566C235.042 462.517 234.952 462.373 234.997 462.228C235.042 462.084 235.177 461.939 235.357 461.987L287.172 472.688C287.352 472.736 287.442 472.881 287.397 473.025C287.307 473.17 287.217 473.266 287.082 473.266Z" fill="black"/>
<path d="M272.959 433.741C272.914 433.741 272.914 433.741 272.869 433.741C272.734 433.693 272.643 433.5 272.688 433.355L287.756 386.938C287.801 386.793 287.982 386.696 288.116 386.745C288.251 386.793 288.341 386.986 288.296 387.13L273.228 433.548C273.183 433.693 273.094 433.741 272.959 433.741Z" fill="black"/>
<path d="M254.652 395.325C254.608 395.325 254.562 395.325 254.562 395.325L214.487 380.96C214.352 380.912 214.262 380.719 214.307 380.575C214.352 380.43 214.532 380.334 214.712 380.382L254.787 394.746C254.922 394.794 255.012 394.987 254.967 395.132C254.877 395.228 254.787 395.325 254.652 395.325Z" fill="black"/>
<path fill-rule="evenodd" clip-rule="evenodd" d="M725.067 603.06C725.067 603.06 882.774 391.666 817.849 321.155C766.338 265.248 697.873 400.094 690.307 514.08C682.702 628.07 725.067 603.06 725.067 603.06Z" fill="#E1E0E3"/>
<path d="M699.203 614.879L699.164 614.884C699.003 614.847 698.909 614.693 698.931 614.524C699.035 614.014 709.399 562.181 726.891 503.361C737.163 468.792 747.856 438.653 758.654 413.698C772.143 382.507 785.878 359.359 799.429 345.026C799.534 344.903 799.728 344.88 799.861 345.03C799.989 345.125 799.973 345.348 799.868 345.472C769.267 377.872 743.624 449.332 727.507 503.619C710.015 562.44 699.645 614.218 699.541 614.728C699.469 614.792 699.364 614.915 699.203 614.879Z" fill="black"/>
<path d="M728.997 499.163C728.862 499.163 728.772 499.114 728.727 498.97L706.868 444.117C706.823 443.972 706.868 443.779 707.047 443.731C707.182 443.683 707.362 443.731 707.452 443.876L729.267 498.729C729.312 498.873 729.267 499.066 729.087 499.114C729.087 499.163 729.042 499.163 728.997 499.163Z" fill="black"/>
<path d="M739.836 464.602C739.701 464.602 739.566 464.506 739.521 464.361C739.476 464.217 739.611 464.024 739.746 464.024L791.561 453.323C791.741 453.275 791.876 453.371 791.921 453.564C791.966 453.757 791.831 453.902 791.696 453.902L739.881 464.602H739.836Z" fill="black"/>
<path d="M753.96 425.077C753.825 425.077 753.735 424.981 753.69 424.884L738.622 378.466C738.577 378.322 738.667 378.129 738.802 378.081C738.982 378.033 739.117 378.129 739.162 378.274L754.23 424.691C754.275 424.836 754.184 425.029 754.049 425.077C754.004 425.077 753.96 425.077 753.96 425.077Z" fill="black"/>
<path d="M772.221 386.661C772.086 386.661 771.996 386.564 771.951 386.468C771.906 386.323 771.996 386.13 772.131 386.082L812.207 371.718C812.342 371.67 812.521 371.766 812.611 371.911C812.656 372.056 812.567 372.249 812.432 372.297L772.355 386.661C772.31 386.661 772.266 386.661 772.221 386.661Z" fill="black"/>
<path fill-rule="evenodd" clip-rule="evenodd" d="M694.286 698.694C697.643 627.925 751.555 571.558 817.413 571.558C883.321 571.558 937.183 627.925 940.54 698.694H694.286Z" fill="#E1E0E3"/>
<path d="M848.155 698.965C848.065 698.965 848.02 698.917 847.93 698.868C847.795 698.772 847.795 698.579 847.93 698.434L915.758 625.554C915.893 625.409 916.072 625.409 916.162 625.554C916.297 625.65 916.297 625.843 916.162 625.988L848.335 698.868C848.29 698.917 848.2 698.965 848.155 698.965Z" fill="black"/>
<path d="M887.151 657.078C887.016 657.078 886.882 656.933 886.837 656.788C886.837 656.644 886.972 656.499 887.107 656.451L930.556 653.655C930.736 653.655 930.871 653.752 930.871 653.944C930.871 654.089 930.736 654.234 930.601 654.282L887.151 657.078C887.196 657.078 887.196 657.078 887.151 657.078Z" fill="black"/>
<path d="M887.304 657.088L887.259 657.079C887.082 657.045 886.974 656.877 887.042 656.744L897.83 604.804C897.854 604.662 898.01 604.545 898.188 604.579C898.365 604.614 898.473 604.781 898.405 604.915L887.617 656.855C887.549 656.989 887.444 657.066 887.304 657.088Z" fill="black"/>
<path d="M821.393 698.627C821.213 698.627 821.078 698.483 821.078 698.29L832.593 572.87C832.593 572.725 832.773 572.581 832.907 572.581C833.087 572.581 833.177 572.725 833.177 572.918L821.663 698.338C821.663 698.531 821.528 698.627 821.393 698.627Z" fill="black"/>
<path d="M830.029 605.888C829.984 605.888 829.894 605.888 829.849 605.84C829.714 605.743 829.714 605.55 829.804 605.406L852.383 577.112C852.473 576.967 852.653 576.967 852.788 577.063C852.923 577.16 852.923 577.352 852.833 577.497L830.254 605.791C830.209 605.888 830.119 605.888 830.029 605.888Z" fill="black"/>
<path d="M829.579 605.84C829.489 605.84 829.354 605.791 829.309 605.695L812.757 572.147C812.667 572.002 812.757 571.809 812.892 571.761C813.027 571.665 813.207 571.761 813.297 571.906L829.849 605.454C829.939 605.599 829.849 605.791 829.714 605.84C829.669 605.84 829.624 605.84 829.579 605.84Z" fill="black"/>
<path d="M835.876 698.387C835.831 698.387 835.787 698.387 835.787 698.387C835.652 698.338 835.561 698.145 835.606 698.001L876.177 589.596C876.222 589.451 876.402 589.355 876.582 589.403C876.762 589.451 876.807 589.644 876.762 589.789L836.191 698.194C836.101 698.29 835.966 698.387 835.876 698.387Z" fill="black"/>
<path d="M879.865 698.675C879.73 698.675 879.64 698.627 879.595 698.483C879.505 698.338 879.595 698.145 879.73 698.097L936.313 671.683C936.448 671.634 936.628 671.683 936.717 671.827C936.807 671.972 936.718 672.165 936.583 672.213L880 698.627C879.955 698.675 879.91 698.675 879.865 698.675Z" fill="black"/>
<path fill-rule="evenodd" clip-rule="evenodd" d="M333.617 698.694C330.26 627.925 276.349 571.558 210.49 571.558C144.582 571.558 90.72 627.925 87.3629 698.694H333.617Z" fill="#E1E0E3"/>
<path d="M179.762 698.965C179.672 698.965 179.582 698.917 179.537 698.868L111.71 625.988C111.575 625.843 111.62 625.699 111.71 625.554C111.845 625.458 112.025 625.458 112.115 625.554L179.942 698.434C180.077 698.579 180.032 698.724 179.942 698.868C179.897 698.965 179.852 698.965 179.762 698.965Z" fill="black"/>
<path d="M140.721 657.078L97.2721 654.282C97.0922 654.282 97.002 654.137 97.002 653.944C97.002 653.8 97.137 653.655 97.3169 653.655L140.766 656.451C140.946 656.451 141.036 656.595 141.036 656.788C141.036 656.981 140.901 657.078 140.721 657.078Z" fill="black"/>
<path d="M140.628 657.083C140.487 657.061 140.382 656.984 140.314 656.85L129.526 604.91C129.502 604.768 129.611 604.6 129.744 604.575C129.921 604.54 130.077 604.657 130.101 604.799L140.89 656.739C140.914 656.881 140.804 657.049 140.672 657.075C140.627 657.083 140.628 657.083 140.628 657.083Z" fill="black"/>
<path d="M206.525 698.627C206.39 698.627 206.255 698.531 206.21 698.338L194.696 572.918C194.696 572.773 194.785 572.629 194.965 572.581C195.145 572.581 195.28 572.677 195.28 572.87L206.795 698.29C206.84 698.483 206.705 698.627 206.525 698.627Z" fill="black"/>
<path d="M197.888 605.888C197.798 605.888 197.708 605.84 197.663 605.791L175.084 577.497C174.994 577.352 174.994 577.16 175.129 577.063C175.264 576.967 175.444 576.967 175.534 577.112L198.113 605.406C198.203 605.55 198.203 605.743 198.068 605.84C198.023 605.888 197.933 605.888 197.888 605.888Z" fill="black"/>
<path d="M198.338 605.839C198.293 605.839 198.248 605.839 198.203 605.791C198.068 605.695 197.978 605.55 198.068 605.405L214.62 571.857C214.71 571.713 214.89 571.664 215.025 571.713C215.16 571.809 215.25 571.954 215.16 572.098L198.608 605.646C198.563 605.791 198.428 605.839 198.338 605.839Z" fill="black"/>
<path d="M192.042 698.386C191.907 698.386 191.817 698.29 191.772 698.193L151.201 589.788C151.156 589.644 151.202 589.451 151.382 589.403C151.516 589.355 151.696 589.403 151.786 589.596L192.357 698.001C192.402 698.145 192.357 698.338 192.177 698.386C192.132 698.386 192.087 698.386 192.042 698.386Z" fill="black"/>
<path d="M148.053 698.675C148.008 698.675 147.963 698.675 147.918 698.627L91.3353 672.213C91.2004 672.165 91.1105 671.972 91.2005 671.827C91.2904 671.683 91.4701 671.634 91.605 671.683L148.188 698.097C148.323 698.145 148.413 698.338 148.323 698.482C148.278 698.579 148.188 698.675 148.053 698.675Z" fill="black"/>
<path fill-rule="evenodd" clip-rule="evenodd" d="M174.964 697.962C174.964 697.962 236.758 618.85 275.113 546.536C313.468 474.222 374.713 476.704 519.414 515.676C519.414 515.676 565.703 472.388 634.646 474.997C703.589 477.606 700.277 511.322 733.354 536.79C766.374 562.259 786.106 540.88 824.489 613.537C862.459 685.401 867.422 697.911 867.483 698.243C867.078 698.247 840.867 698.692 840.867 698.692L826.399 698.628L174.964 697.962Z" fill="#EBEAEC"/>
<path d="M636.001 622.299C632.061 622.267 628.033 622.125 624.108 621.729C623.912 621.724 623.824 621.615 623.844 621.402C623.839 621.251 624.029 621.106 624.142 621.152C628.093 621.484 632.095 621.689 636.035 621.722C636.231 621.726 636.319 621.836 636.324 621.986C636.304 622.2 636.14 622.281 636.001 622.299ZM652.783 621.361C652.644 621.379 652.5 621.247 652.494 621.097C652.494 621.097 652.494 621.097 652.52 621.033C652.514 620.883 652.622 620.778 652.761 620.76C656.654 620.256 660.598 619.624 664.454 618.883C664.593 618.865 664.763 618.934 664.825 619.106C664.831 619.257 664.754 619.448 664.615 619.466C660.676 620.247 656.733 620.879 652.783 621.361ZM607.478 619.179L607.421 619.157C603.593 618.356 599.671 617.296 595.858 616.131C595.801 616.108 595.688 616.063 595.657 615.976C595.626 615.89 595.595 615.803 595.62 615.74C595.671 615.612 595.836 615.531 595.975 615.513C599.789 616.677 603.679 617.651 607.481 618.516C607.652 618.584 607.739 618.693 607.719 618.907C607.725 619.057 607.617 619.161 607.478 619.179ZM680.798 615.107C680.659 615.125 680.572 615.015 680.484 614.906L680.453 614.819C680.447 614.669 680.555 614.565 680.638 614.524C684.364 613.287 688.085 611.9 691.744 610.34C691.908 610.259 692.078 610.327 692.14 610.5C692.172 610.586 692.146 610.65 692.12 610.714C692.095 610.777 692.012 610.818 691.987 610.882C688.328 612.442 684.55 613.806 680.798 615.107C680.881 615.066 680.855 615.129 680.798 615.107ZM707.083 603.497C706.944 603.515 706.856 603.406 706.825 603.319C706.768 603.296 706.794 603.233 706.82 603.169C706.789 603.083 706.896 602.978 706.979 602.937C710.4 600.986 713.846 598.971 717.118 596.738C717.226 596.633 717.452 596.724 717.54 596.834C717.571 596.92 717.602 597.007 717.577 597.07C717.551 597.134 717.525 597.198 717.443 597.238C714.115 599.449 710.7 601.55 707.248 603.415C707.222 603.479 707.14 603.52 707.083 603.497ZM730.799 587.304C730.742 587.281 730.629 587.236 730.572 587.213C730.515 587.19 730.484 587.104 730.51 587.04C730.479 586.954 730.587 586.849 730.612 586.786C733.677 584.247 736.654 581.599 739.46 578.883C739.568 578.779 739.764 578.784 739.852 578.893C739.908 578.916 739.939 579.002 739.971 579.089C739.945 579.152 739.919 579.216 739.894 579.28C737.005 582.037 734.028 584.684 730.963 587.223C730.938 587.286 730.881 587.263 730.799 587.304ZM751.267 567.069C751.21 567.046 751.154 567.023 751.097 567.001C751.04 566.978 750.952 566.869 751.004 566.741C751.029 566.678 751.055 566.614 751.081 566.55C753.624 563.506 756.08 560.353 758.365 557.132C758.473 557.027 758.638 556.945 758.782 557.078C758.927 557.21 758.932 557.36 758.881 557.487C756.595 560.709 754.14 563.862 751.596 566.906C751.406 567.051 751.324 567.092 751.267 567.069ZM767.506 543.431C767.449 543.408 767.392 543.386 767.392 543.386C767.279 543.34 767.248 543.253 767.242 543.103C767.268 543.04 767.268 543.04 767.293 542.976C769.233 539.468 770.946 535.868 772.521 532.286C772.572 532.158 772.736 532.077 772.907 532.145C772.963 532.168 773.051 532.277 773.051 532.277C773.082 532.364 773.056 532.427 773.031 532.491C771.457 536.073 769.744 539.673 767.804 543.181C767.727 543.372 767.645 543.413 767.506 543.431ZM778.274 516.853L778.217 516.83C778.104 516.784 778.016 516.675 778.011 516.525L778.036 516.461C779.069 512.588 779.849 508.687 780.408 504.844C780.403 504.694 780.593 504.549 780.763 504.617C780.959 504.622 781.021 504.795 781.026 504.945C780.467 508.788 779.662 512.752 778.685 516.649C778.521 516.73 778.413 516.835 778.274 516.853ZM737.183 499.95C735.283 499.925 733.459 499.709 731.738 499.239C730.13 498.814 728.548 498.325 727.023 497.859C726.909 497.814 726.821 497.704 726.816 497.554L726.842 497.491C726.893 497.363 727.058 497.282 727.197 497.264C728.722 497.73 730.247 498.195 731.855 498.62C733.999 499.187 736.296 499.372 738.722 499.238C738.861 499.22 739.005 499.353 739.067 499.526C739.073 499.676 738.939 499.843 738.8 499.861C738.244 499.934 737.714 499.942 737.183 499.95ZM754.591 494.679C754.452 494.697 754.364 494.588 754.333 494.501C754.276 494.478 754.302 494.415 754.327 494.351C754.322 494.201 754.404 494.16 754.487 494.119C757.692 492.377 761.02 490.166 764.362 487.592C764.47 487.487 764.666 487.492 764.81 487.624C764.898 487.733 764.878 487.947 764.77 488.052C761.345 490.667 758.017 492.878 754.812 494.62C754.73 494.661 754.647 494.702 754.591 494.679ZM711.616 491.291C711.559 491.268 711.502 491.245 711.446 491.222C707.739 489.139 704.551 486.747 701.832 484.174C701.775 484.152 701.744 484.065 701.713 483.979C701.739 483.915 701.707 483.829 701.79 483.788C701.898 483.683 702.094 483.688 702.181 483.797C704.844 486.348 708.057 488.676 711.707 490.736C711.877 490.804 711.914 491.041 711.806 491.145C711.837 491.232 711.755 491.273 711.616 491.291ZM781.318 488.35C781.179 488.368 781.035 488.236 781.029 488.086C780.8 484.074 780.21 480.139 779.374 476.327C779.342 476.241 779.368 476.177 779.394 476.114C779.419 476.05 779.502 476.009 779.584 475.968C779.723 475.95 779.893 476.019 779.955 476.192C780.792 480.004 781.356 484.002 781.585 488.014C781.622 488.25 781.514 488.355 781.318 488.35ZM777.103 476.893C777.047 476.87 776.933 476.824 776.877 476.802C776.82 476.779 776.789 476.693 776.758 476.606C776.727 476.52 776.809 476.479 776.835 476.415C779.502 473.717 782.216 470.742 784.898 467.68C785.006 467.575 785.202 467.58 785.315 467.625C785.46 467.757 785.465 467.908 785.332 468.076C782.624 471.201 779.936 474.113 777.242 476.875C777.242 476.875 777.16 476.916 777.103 476.893ZM692.92 470.31C692.781 470.328 692.694 470.219 692.606 470.11C691.632 467.129 691.126 463.968 691.151 460.798C691.149 459.984 691.173 459.106 691.254 458.251C691.248 458.101 691.439 457.956 691.552 458.001C691.691 457.983 691.835 458.116 691.815 458.329C691.735 459.184 691.736 459.998 691.712 460.876C691.713 463.982 692.188 467.057 693.187 469.974C693.25 470.147 693.116 470.315 692.977 470.333C692.977 470.333 692.977 470.333 692.92 470.31ZM774.033 460.794C773.894 460.812 773.806 460.703 773.775 460.616C772.027 457.103 769.894 453.73 767.544 450.566C767.513 450.48 767.482 450.393 767.508 450.33C767.533 450.266 767.559 450.202 767.641 450.162C767.749 450.057 767.945 450.062 768.064 450.258C770.47 453.444 772.578 456.881 774.326 460.394C774.383 460.417 774.357 460.48 774.331 460.544C774.337 460.694 774.254 460.735 774.147 460.839C774.115 460.753 774.09 460.816 774.033 460.794ZM795.637 454.918C795.58 454.895 795.524 454.872 795.467 454.849C795.353 454.804 795.322 454.717 795.374 454.59C795.399 454.526 795.425 454.463 795.451 454.399C797.767 451.264 800.022 447.956 802.219 444.625C802.327 444.521 802.492 444.439 802.636 444.571C802.806 444.639 802.786 444.853 802.735 444.98C800.537 448.311 798.201 451.66 795.941 454.818C795.802 454.836 795.694 454.941 795.637 454.918ZM697.007 442.818C696.95 442.795 696.894 442.772 696.837 442.75C696.78 442.727 696.749 442.64 696.718 442.554C696.687 442.468 696.713 442.404 696.738 442.34C698.879 438.986 701.505 435.902 704.539 433.277C704.647 433.172 704.842 433.177 704.987 433.309C705.018 433.396 705.074 433.418 705.049 433.482C705.08 433.569 704.998 433.609 704.946 433.737C701.913 436.362 699.338 439.319 697.254 442.696C697.228 442.759 697.121 442.864 697.007 442.818ZM756.293 438.423C756.236 438.4 756.179 438.377 756.123 438.354C753.182 435.84 749.995 433.448 746.591 431.265C746.421 431.197 746.441 430.983 746.493 430.856C746.544 430.729 746.765 430.67 746.91 430.802C750.313 432.985 753.557 435.399 756.498 437.913C756.555 437.936 756.586 438.023 756.617 438.109C756.591 438.173 756.566 438.236 756.54 438.3C756.432 438.404 756.35 438.445 756.293 438.423ZM811.241 430.729C811.184 430.706 811.128 430.683 811.071 430.66C810.957 430.615 810.926 430.528 810.921 430.378C810.946 430.315 810.947 430.315 810.972 430.251C812.943 426.829 814.826 423.298 816.684 419.83C816.735 419.703 816.956 419.643 817.07 419.689C817.24 419.757 817.302 419.93 817.169 420.099C815.342 423.653 813.402 427.161 811.431 430.584C811.437 430.734 811.354 430.774 811.241 430.729ZM719.496 425.91C719.357 425.928 719.269 425.819 719.181 425.71C719.119 425.537 719.253 425.368 719.392 425.35C723.376 424.291 727.387 423.982 731.318 424.529C731.457 424.511 731.576 424.706 731.581 424.856C731.581 424.856 731.581 424.856 731.556 424.92C731.561 425.07 731.371 425.215 731.257 425.17C727.44 424.669 723.429 424.978 719.584 426.019C719.496 425.91 719.496 425.91 719.496 425.91ZM824.251 405.127C824.195 405.104 824.195 405.104 824.138 405.081C824.025 405.035 823.937 404.926 823.988 404.799C824.014 404.735 824.014 404.735 824.039 404.672C825.639 401.026 827.182 397.358 828.643 393.73C828.694 393.603 828.859 393.521 829.029 393.59C829.085 393.613 829.199 393.658 829.173 393.722C829.204 393.808 829.179 393.872 829.21 393.958C827.806 397.609 826.237 401.341 824.581 404.963C824.473 405.068 824.334 405.086 824.251 405.127ZM834.479 378.256L834.422 378.234C834.308 378.188 834.221 378.079 834.215 377.929L834.241 377.865C835.444 374.06 836.59 370.232 837.597 366.422C837.648 366.295 837.838 366.15 837.952 366.195C838.122 366.264 838.21 366.373 838.133 366.564C837.126 370.374 835.98 374.201 834.777 378.007C834.725 378.134 834.618 378.238 834.479 378.256ZM841.51 350.323C841.485 350.386 841.485 350.386 841.51 350.323C841.314 350.318 841.227 350.209 841.221 350.059L841.247 349.995C841.971 346.071 842.581 342.101 843.026 338.213C843.021 338.063 843.211 337.918 843.325 337.964C843.52 337.968 843.582 338.141 843.588 338.291C843.142 342.179 842.558 346.085 841.808 350.073C841.788 350.287 841.624 350.368 841.51 350.323ZM844.384 321.751C844.328 321.729 844.214 321.683 844.158 321.66C844.101 321.637 844.07 321.551 844.039 321.465C844.074 320.887 844.026 320.35 844.061 319.773C844.075 316.303 843.95 312.85 843.691 309.567C843.686 309.416 843.819 309.248 843.958 309.23C844.097 309.212 844.242 309.344 844.304 309.517C844.537 312.865 844.662 316.317 844.648 319.787C844.613 320.365 844.661 320.901 844.626 321.479C844.688 321.652 844.58 321.756 844.384 321.751ZM841.563 293.255C841.424 293.273 841.279 293.141 841.274 292.991C840.406 289.092 839.317 285.252 838.038 281.558C837.975 281.385 838.052 281.194 838.191 281.176C838.356 281.094 838.5 281.226 838.588 281.335C839.868 285.03 840.957 288.87 841.881 292.791C841.881 292.791 841.855 292.855 841.912 292.878C841.892 293.092 841.784 293.196 841.563 293.255C841.645 293.214 841.588 293.191 841.563 293.255ZM831.235 266.545C831.096 266.563 831.065 266.477 830.978 266.367C828.983 262.977 826.741 259.708 824.309 256.585C824.222 256.476 824.242 256.262 824.35 256.158C824.458 256.054 824.653 256.058 824.798 256.19C827.255 259.25 829.528 262.605 831.58 266.018C831.636 266.041 831.611 266.105 831.642 266.191C831.673 266.277 831.565 266.382 831.482 266.423C831.375 266.527 831.318 266.504 831.235 266.545ZM812.817 244.714C812.76 244.692 812.703 244.669 812.646 244.646C809.706 242.132 806.436 239.781 803.089 237.621C803.033 237.598 803.002 237.512 802.97 237.425C802.939 237.339 802.965 237.275 802.991 237.211C803.042 237.084 803.263 237.025 803.408 237.157C806.811 239.34 810.024 241.668 813.022 244.205C813.078 244.228 813.109 244.315 813.115 244.465C813.089 244.528 813.064 244.592 813.038 244.656C812.981 244.633 812.899 244.674 812.817 244.714ZM788.334 229.762C788.277 229.739 788.277 229.739 788.22 229.716C787.824 229.556 787.427 229.397 786.973 229.214C786.916 229.191 786.803 229.146 786.829 229.082C786.798 228.995 786.823 228.932 786.849 228.868C786.9 228.741 787.065 228.659 787.235 228.728C787.688 228.91 788.085 229.07 788.482 229.23C788.596 229.275 788.683 229.384 788.632 229.512C788.606 229.575 788.606 229.575 788.581 229.639C788.555 229.703 788.473 229.743 788.334 229.762Z" fill="#292526"/>
<path fill-rule="evenodd" clip-rule="evenodd" d="M715.288 177.661L766.672 224.219L770.468 203.335L715.288 177.661Z" fill="#6070DB"/>
<path fill-rule="evenodd" clip-rule="evenodd" d="M715.104 177.618L780.713 190.042L770.425 204.012L715.104 177.618Z" fill="#7C98F4"/>
<path fill-rule="evenodd" clip-rule="evenodd" d="M767.524 210.267L766.717 223.913L755.63 217.176L765.348 209.332L767.524 210.267Z" fill="#292526"/>
<path fill-rule="evenodd" clip-rule="evenodd" d="M715.146 177.62L750.355 230.129L767.366 210.252L715.146 177.62Z" fill="#7C98F4"/>
<path d="M903.441 1176.64L927.896 1164.18L368.174 65.8028L343.718 78.2574L903.441 1176.64Z" fill="white"/>
<path fill-rule="evenodd" clip-rule="evenodd" d="M596.482 280.158C596.482 280.158 591.661 282.452 594.654 283.433C600.809 285.445 602.455 285.227 603.085 285.292C624.541 287.313 690.277 282.76 688.844 277.284C684.642 261.116 661.814 263.231 661.814 263.231L596.482 280.158Z" fill="#292526"/>
<path d="M620.963 517.174L659.351 514.594L649.262 389.537L602.967 401.391L620.963 517.174Z" fill="#FC9C84"/>
<path fill-rule="evenodd" clip-rule="evenodd" d="M655.913 458.006L609.257 471.678L656.491 470.225L655.913 458.006Z" fill="#2D292A"/>
<path d="M595.114 534.649C596.802 532.732 598.821 531.123 601.119 529.686C605.937 526.756 613.278 522.426 615.919 520.697C617.695 519.559 618.464 515.655 619.036 513.833L620.445 507.735L620.488 507.687C623.315 504.476 628.224 503.201 632.256 504.683L636.734 506.929C639.596 508.37 643.541 507.506 645.551 504.93C647.857 502.018 655.313 498.927 659.263 498.155L659.321 498.382L666.974 529.381C666.974 529.381 596.74 550.106 595.016 548.154C593.817 546.778 593.689 544.48 593.549 542.781C593.358 540.163 593.231 537.081 595.114 534.649Z" fill="white"/>
<path d="M593.022 551.307C592.959 550.987 592.854 550.715 592.791 550.395C592.326 548.48 591.855 546.473 591.389 544.559L592.184 544.339L664.395 525.279C664.395 525.279 665.854 524.892 665.896 524.844C665.764 524.896 666.65 527.898 666.707 528.126C666.89 528.994 667.163 529.857 667.346 530.725C667.922 533.004 668.403 535.194 666.389 536.895C664.892 538.205 662.294 539.102 660.39 537.941C659.506 537.381 658.56 536.501 657.453 536.78C656.389 537.011 656.072 537.762 655.587 538.705C655.106 539.74 654.541 540.87 652.903 541.265C651.264 541.659 650.233 540.875 649.344 540.222C648.503 539.614 647.893 539.134 646.787 539.413C645.723 539.644 645.405 540.395 644.92 541.338C644.439 542.373 643.874 543.503 642.236 543.898C640.597 544.292 639.566 543.508 638.677 542.855C637.836 542.247 637.226 541.767 636.119 542.046C635.055 542.277 634.738 543.028 634.253 543.971C633.772 545.006 633.207 546.136 631.569 546.531C629.93 546.925 628.899 546.141 628.011 545.488C627.169 544.88 626.559 544.4 625.453 544.679C624.388 544.91 624.071 545.661 623.586 546.604C623.105 547.639 622.54 548.769 620.902 549.164C619.263 549.558 618.233 548.774 617.344 548.121C616.502 547.513 615.892 547.033 614.786 547.312C613.722 547.543 613.405 548.294 612.919 549.237C612.438 550.272 611.873 551.402 610.235 551.797C608.596 552.191 607.566 551.407 606.677 550.755C605.835 550.146 605.225 549.666 604.119 549.945C603.055 550.176 602.738 550.927 602.252 551.87C601.486 553.424 600.373 554.394 598.683 554.653C596.191 555.038 593.697 553.765 593.022 551.307Z" fill="#292526"/>
<path d="M613.346 520.49C613.346 520.49 616.59 506.641 617.061 500.714C617.532 494.786 627.261 492.733 627.245 502.781C627.23 512.829 624.257 520.169 619.972 521.345C615.687 522.521 613.346 520.49 613.346 520.49Z" fill="#7C98F4"/>
<path d="M592.266 547.005L666.832 527.518C667.053 527.462 667.216 527.179 667.159 526.951C667.101 526.723 666.822 526.551 666.601 526.607L592.036 546.093C591.815 546.149 591.651 546.433 591.709 546.661C591.766 546.888 591.998 547.017 592.266 547.005Z" fill="white"/>
<path d="M608.417 500.958C609.26 500.783 610.028 500.887 610.818 501.359C614.063 503.244 615.975 510.164 616.624 512.946C613.069 510.338 606.442 504.961 606.746 502.367C606.805 501.812 607.232 501.424 608.022 501.113C608.196 501.013 608.328 500.962 608.417 500.958ZM617.517 514.474C617.559 514.426 617.606 514.47 617.649 514.422C617.823 514.322 617.902 514.134 617.844 513.907C617.776 513.495 615.759 503.078 611.303 500.417C610.188 499.728 608.925 499.599 607.65 500.07C606.507 500.489 605.916 501.16 605.788 502.087C605.34 506.115 615.891 513.485 617.106 514.354C617.248 514.486 617.385 514.526 617.517 514.474Z" fill="#292526"/>
<path d="M626.067 500.798C626.599 500.682 627.093 500.707 627.683 500.819C628.457 501.016 628.925 501.364 629.093 501.955C629.731 504.554 623.83 510.573 620.582 513.48C620.918 510.654 621.96 503.604 624.934 501.4C625.276 501.109 625.714 500.905 626.067 500.798ZM620.09 515.114C620.179 515.11 620.222 515.062 620.264 515.014C621.334 514.092 630.962 505.698 629.978 501.732C629.747 500.821 629.037 500.161 627.9 499.888C626.627 499.575 625.383 499.814 624.35 500.597C620.259 503.679 619.544 514.17 619.48 514.634C619.49 514.818 619.59 514.998 619.732 515.13C619.869 515.17 619.958 515.166 620.09 515.114Z" fill="#292526"/>
<path fill-rule="evenodd" clip-rule="evenodd" d="M589.112 275.542L600.776 474.281L660.468 458.991L648.988 304.044L643.624 253.327L589.112 275.542Z" fill="#7C98F4"/>
<path fill-rule="evenodd" clip-rule="evenodd" d="M655.321 390.71L637.639 306.579L650.898 326.307L655.321 390.71Z" fill="#2D292A"/>
<path d="M595.831 302.514C595.696 302.514 595.577 302.441 595.543 302.311C595.502 302.148 595.563 301.994 595.744 301.913C595.807 301.897 601.059 300.101 605.713 294.269C610.009 288.876 614.686 278.814 612.475 261.549C612.465 261.379 612.566 261.249 612.724 261.209C612.89 261.201 613.049 261.298 613.059 261.469C615.329 278.961 610.559 289.185 606.145 294.643C601.359 300.613 596.129 302.368 595.917 302.457C595.894 302.498 595.862 302.506 595.831 302.514Z" fill="#2D292A"/>
<path fill-rule="evenodd" clip-rule="evenodd" d="M780.025 392.074C780.025 392.074 780.217 392.41 780.564 393.088C782.887 397.962 791.164 419.763 766.51 444.21L762.793 411.035L780.025 392.074Z" fill="#292526"/>
<path d="M836.419 459.883L845.921 418.859L737.968 378.516L716.938 336.874L683.808 388.885L690.178 399.228C690.178 399.228 695.494 407.932 699.754 414.997C703.184 420.664 708.665 424.8 715.057 426.577C745.744 434.936 836.419 459.883 836.419 459.883Z" fill="#FC9C84"/>
<path fill-rule="evenodd" clip-rule="evenodd" d="M780.263 388.133L792.687 394.034L766.508 444.105L780.263 388.133Z" fill="#2D292A"/>
<path d="M829.495 488.103C828.202 485.624 827.329 482.915 826.724 479.981C825.537 473.859 823.86 464.581 823.088 461.18C822.594 458.901 819.021 456.635 817.429 455.356L811.922 451.6L811.89 451.538C809.725 447.386 810.199 441.789 813.078 438.142L816.866 434.315C819.293 431.87 819.832 427.433 818.004 424.371C815.95 420.875 815.533 411.943 816.164 407.534L816.409 407.559L849.62 411.201C849.62 411.201 845.284 492.203 842.755 493.269C840.979 494.003 838.671 493.275 836.949 492.784C834.305 492.001 831.226 490.979 829.495 488.103Z" fill="white"/>
<path d="M845.155 496.529C844.818 496.474 844.513 496.482 844.176 496.427C842.127 496.195 839.985 495.934 837.936 495.702L838.001 494.79L844.672 412.35C844.672 412.35 844.805 410.684 844.773 410.622C844.777 410.779 848.045 410.981 848.29 411.006C849.208 411.141 850.154 411.18 851.073 411.315C853.519 411.568 855.845 411.888 856.81 414.626C857.572 416.678 857.54 419.723 855.727 421.273C854.864 421.985 853.664 422.642 853.549 423.9C853.401 425.096 854.029 425.708 854.786 426.568C855.636 427.457 856.55 428.47 856.361 430.326C856.172 432.182 855.037 432.963 854.082 433.646C853.186 434.295 852.499 434.751 852.384 436.009C852.236 437.205 852.864 437.818 853.621 438.678C854.47 439.567 855.384 440.58 855.196 442.436C855.007 444.292 853.872 445.073 852.916 445.755C852.021 446.405 851.334 446.861 851.218 448.119C851.071 449.315 851.699 449.927 852.456 450.787C853.305 451.676 854.219 452.689 854.03 454.545C853.842 456.401 852.706 457.182 851.751 457.865C850.856 458.514 850.168 458.97 850.053 460.228C849.906 461.424 850.534 462.037 851.291 462.897C852.14 463.786 853.054 464.799 852.865 466.655C852.676 468.511 851.541 469.292 850.586 469.974C849.691 470.624 849.003 471.08 848.888 472.338C848.741 473.534 849.368 474.146 850.125 475.006C850.975 475.895 851.889 476.909 851.7 478.765C851.511 480.621 850.376 481.401 849.421 482.084C848.525 482.733 847.838 483.19 847.723 484.448C847.575 485.644 848.203 486.256 848.96 487.116C850.22 488.497 850.784 490.021 850.443 491.88C849.885 494.656 847.813 496.746 845.155 496.529Z" fill="#292526"/>
<path d="M821.93 463.784C821.93 463.784 809.439 455.21 803.769 452.496C798.1 449.783 799.505 438.869 809.392 442.652C819.279 446.436 825.457 452.287 825.105 457.196C824.812 462.068 821.93 463.784 821.93 463.784Z" fill="#7C98F4"/>
<path d="M840.654 495.704L847.735 410.649C847.758 410.398 847.536 410.121 847.292 410.095C847.047 410.07 846.779 410.296 846.756 410.548L839.675 495.602C839.652 495.854 839.874 496.131 840.119 496.156C840.363 496.181 840.571 495.988 840.654 495.704Z" fill="white"/>
<path d="M801.008 461.605C801.132 460.661 801.506 459.899 802.249 459.253C805.248 456.575 812.735 457.176 815.702 457.543C811.881 460.272 804.253 465.166 801.807 463.877C801.28 463.607 801.05 463.017 801.022 462.076C800.985 461.857 800.98 461.7 801.008 461.605ZM817.521 457.184C817.488 457.122 817.548 457.089 817.516 457.027C817.479 456.809 817.322 456.656 817.077 456.63C816.648 456.547 805.682 454.744 801.492 458.393C800.421 459.298 799.849 460.567 799.863 462.073C799.873 463.422 800.325 464.29 801.193 464.77C805.001 466.748 815.975 458.509 817.258 457.567C817.438 457.469 817.525 457.341 817.521 457.184Z" fill="#292526"/>
<path d="M807.07 443.142C807.144 442.544 807.342 442.037 807.66 441.465C808.126 440.732 808.634 440.374 809.275 440.421C812.058 440.729 815.904 449.139 817.622 453.615C814.959 452.206 808.386 448.476 807.264 444.55C807.098 444.083 807.051 443.551 807.07 443.142ZM819.058 454.741C819.085 454.646 819.053 454.584 819.021 454.522C818.49 453.06 813.618 439.875 809.367 439.415C808.389 439.313 807.489 439.806 806.82 440.889C806.064 442.1 805.861 443.486 806.267 444.856C807.861 450.277 817.936 454.957 818.37 455.197C818.555 455.255 818.767 455.219 818.947 455.12C819.035 454.993 819.062 454.898 819.058 454.741Z" fill="#292526"/>
<path fill-rule="evenodd" clip-rule="evenodd" d="M670.196 255.088C670.196 255.088 677.125 262.198 682.35 267.556C686.092 271.402 689.305 275.751 691.877 280.503L740.011 369.698C743.236 375.64 748.484 380.216 754.819 382.581C765.191 386.456 780.057 392.007 780.057 392.007L766.539 444.136C766.539 444.136 722.789 431.413 707.632 427.011C704.338 426.045 701.542 423.914 699.763 420.964L671.766 374.903L637.105 318.733L597.213 266.517L670.196 255.088Z" fill="#7C98F4"/>
<path d="M698.353 418.579C698.268 418.565 698.135 418.526 698.111 418.451L636.509 318.316C636.424 318.177 636.45 318.003 636.62 317.905C636.754 317.819 636.936 317.884 637.021 318.023L698.623 418.158C698.707 418.296 698.682 418.471 698.511 418.569C698.474 418.581 698.402 418.605 698.353 418.579Z" fill="#292526"/>
<path d="M681.888 289.884C679.618 289.867 677.372 289.61 675.141 289.081C670.073 287.859 665.158 285.292 660.575 281.386C652.763 274.756 648.475 266.535 648.447 266.445C648.376 266.302 648.42 266.122 648.57 266.039C648.72 265.956 648.895 266.032 648.965 266.175C649.016 266.257 653.23 274.403 660.968 280.958C668.062 286.993 679.677 292.837 694.614 286.594C694.773 286.541 694.938 286.587 695.018 286.76C695.089 286.903 695.022 287.09 694.863 287.143C690.464 288.989 686.117 289.887 681.888 289.884Z" fill="#2D292A"/>
<path d="M775.392 419.166C775.307 419.152 775.222 419.139 775.162 419.076C774.267 418.413 755.777 410.689 725.702 398.333C721.716 396.691 718.393 393.708 716.351 389.93L709.827 377.852C701.958 363.306 691.578 344.137 688.19 337.89C668.763 301.984 643.51 261.298 643.269 260.92C643.185 260.781 643.21 260.606 643.381 260.509C643.515 260.423 643.697 260.488 643.781 260.627C644.034 261.042 669.323 301.716 688.75 337.623C692.138 343.87 702.482 363.05 710.388 377.585L716.911 389.663C718.881 393.34 722.095 396.234 725.973 397.786C775.302 417.99 775.59 418.519 775.698 418.733C775.783 418.871 775.721 419.058 775.587 419.144C775.465 419.142 775.429 419.154 775.392 419.166Z" fill="#2D292A"/>
<path d="M646.987 186.461C646.987 186.461 636.277 185.785 636.746 159.755L617.284 164.767C617.284 164.767 617.676 180.655 614.23 184.713C608.919 191.001 646.987 186.461 646.987 186.461Z" fill="#FC9C84"/>
<path fill-rule="evenodd" clip-rule="evenodd" d="M616.12 174.354C616.12 174.354 632.943 171.358 635.116 165.025C637.29 158.691 614.109 160.872 614.109 160.872L616.12 174.354Z" fill="#292526"/>
<path fill-rule="evenodd" clip-rule="evenodd" d="M638.218 139.094C639.282 144.211 642.974 171.196 623.098 170.67C616.685 170.508 611.467 165.452 611.06 159.058C610.951 157.579 610.867 156.123 610.812 154.785C610.397 145.207 613.015 136.246 620.069 132.929C623.02 131.539 636.487 130.826 638.218 139.094Z" fill="#FC9C84"/>
<path d="M621.554 158.538C620.757 158.532 619.385 158.407 618.883 157.602C618.642 157.211 618.646 156.754 618.894 156.206C619.526 154.862 620.117 150.359 620.117 150.314C620.14 150.154 620.296 150.04 620.451 150.064C620.606 150.088 620.738 150.227 620.714 150.409C620.69 150.592 620.122 155.05 619.446 156.486C619.288 156.828 619.263 157.102 619.394 157.309C619.635 157.7 620.452 157.957 621.559 157.966C621.714 157.967 621.867 158.106 621.866 158.266C621.843 158.403 621.709 158.539 621.554 158.538Z" fill="#292526"/>
<path d="M628.45 152.721C628.415 153.423 627.872 153.935 627.201 153.899C626.531 153.864 626.042 153.296 626.078 152.595C626.113 151.893 626.655 151.381 627.326 151.417C627.996 151.452 628.485 152.02 628.45 152.721Z" fill="#292526"/>
<path d="M617.311 152.482C617.276 153.184 616.733 153.696 616.063 153.66C615.393 153.624 614.904 153.057 614.939 152.356C614.974 151.654 615.517 151.142 616.187 151.178C616.806 151.211 617.346 151.781 617.311 152.482Z" fill="#292526"/>
<path fill-rule="evenodd" clip-rule="evenodd" d="M628.228 159.967C627.551 159.803 623.805 161.729 622.88 162.69C622.125 163.513 624.936 164.937 626.851 163.78C628.767 162.623 628.901 160.17 628.228 159.967Z" fill="white"/>
<path d="M618.982 148.236C618.974 147.986 618.844 147.736 618.691 147.561C618.491 147.411 618.242 147.286 618.023 147.336C616.825 147.387 614.844 147.463 614.506 147.639C613.639 148.089 613.729 149.44 614.735 149.489C615.054 149.514 616.983 149.338 618.155 149.237C618.571 149.212 619.023 148.786 618.982 148.236Z" fill="#292526"/>
<path d="M624.839 148.485C624.833 148.231 624.948 147.973 625.088 147.79C625.277 147.63 625.515 147.495 625.755 147.486C626.937 147.496 628.889 147.504 629.231 147.67C630.109 148.097 630.094 149.47 629.108 149.556C628.795 149.592 626.937 149.505 625.778 149.444C625.297 149.461 624.852 148.993 624.839 148.485Z" fill="#292526"/>
<path fill-rule="evenodd" clip-rule="evenodd" d="M636.849 169.894C636.849 169.894 636.148 166.965 636.689 162.789C637.331 157.699 640.054 153.86 637.394 150.334C637.394 150.334 631.307 147.936 629.31 140.89C629.31 140.89 617.623 144.73 613.174 140.918C613.174 140.918 607.172 135.688 609.226 129.703C609.226 129.703 611.221 121.757 617.736 121.808C617.736 121.808 621.199 118.154 625.516 119.001C627.347 119.376 630.123 120.941 631.619 123.316C631.619 123.316 634.923 121.621 638.534 122.85C640.884 123.625 644.173 126.027 644.119 129.73C644.119 129.73 649.152 129.411 652.434 132.248C654.465 133.977 655.871 139.576 653.952 142.25C653.952 142.25 655.593 152.734 653.52 157.018C651.899 160.263 646.08 172.6 636.849 169.894Z" fill="#292526"/>
<path d="M636.477 163.126C642.156 161.608 644.859 158.015 644.553 154.682C644.223 151.077 640.946 148.413 637.206 148.78C635.529 148.945 634.079 149.67 632.981 150.773C632.32 151.249 633.212 164.442 636.477 163.126Z" fill="#FC9C84"/>
<path d="M557.421 264.21L529.492 234.517L572.676 191.649C578.874 183.423 589.826 181.406 598.627 187.364C607.429 193.322 608.98 201.519 606.16 208.362C601.241 220.175 557.421 264.21 557.421 264.21Z" fill="#5D71BE"/>
<path d="M661.361 176.869C661.361 176.869 669.574 193.11 669.602 194.534L672.581 211.361L699.821 289.953L589.809 303.145C592.762 257.965 581.901 205.578 587.607 183.807L661.361 176.869Z" fill="#5D71BE"/>
<path d="M655.203 295.746C655.053 295.746 654.933 295.626 654.903 295.476L641.629 178.74C641.599 178.591 641.718 178.441 641.898 178.411C642.048 178.381 642.198 178.501 642.228 178.681L655.502 295.416C655.532 295.566 655.412 295.716 655.233 295.746C655.233 295.746 655.233 295.746 655.203 295.746Z" fill="#292526"/>
<path d="M622.691 299.641C622.542 299.641 622.392 299.521 622.392 299.371L613.103 181.347C613.103 181.167 613.222 181.047 613.372 181.017C613.552 181.017 613.672 181.137 613.702 181.287L622.991 299.311C622.991 299.491 622.871 299.641 622.691 299.641Z" fill="#292526"/>
<path fill-rule="evenodd" clip-rule="evenodd" d="M613.933 180.815L614.442 187.435L622.865 299.407L654.805 295.484L641.497 178.33L613.933 180.815Z" fill="white"/>
<path d="M459.178 628.186L464.804 650.462L564.822 650.715L570.448 622.541L459.178 628.186Z" fill="#EA4E51"/>
<path fill-rule="evenodd" clip-rule="evenodd" d="M459.187 628.187L567.609 639.78L570.731 622.137L459.187 628.187Z" fill="#292526"/>
<path d="M420.09 487.575C420.09 487.575 368.802 565.187 367.442 697.005L400.461 697.526C400.461 697.526 411.872 627.89 447.256 582.366L420.09 487.575Z" fill="#EA4E51"/>
<path fill-rule="evenodd" clip-rule="evenodd" d="M401.682 717.757C401.682 717.757 392.925 600.135 434.075 536.388C475.225 472.642 483.323 582.968 483.323 582.968L401.682 717.757Z" fill="#292526"/>
<path d="M608.273 487.83C608.273 487.83 658.626 565.442 659.961 697.26L627.544 697.781C627.544 697.781 616.341 628.145 581.602 582.621L608.273 487.83Z" fill="#EA4E51"/>
<path fill-rule="evenodd" clip-rule="evenodd" d="M626.307 718.02C626.307 718.02 634.905 600.398 594.504 536.651C554.104 472.905 546.153 583.231 546.153 583.231L626.307 718.02Z" fill="#292526"/>
<path d="M448.185 628.527C427.305 584.213 414.109 488.193 414.109 415.519C414.109 282.119 458.6 173.791 513.385 173.791C568.169 173.791 612.66 282.095 612.66 415.519C612.66 488.193 599.464 584.213 578.584 628.527H448.185Z" fill="#F4F4F5"/>
<path d="M516.744 573.484C515.378 573.484 514.013 573.484 512.622 573.458C480.303 573.256 452.35 567.004 434.592 561.815C425.567 559.182 418.225 556.549 412.884 554.474C411.664 555.385 410.176 555.993 408.542 556.17C403.615 556.727 399.151 553.183 398.614 548.247L398.053 543.209C397.687 539.944 399.127 536.755 401.785 534.881C404.468 532.983 407.956 532.705 410.908 534.122C411.005 534.173 422.031 539.438 440.081 544.703C456.643 549.512 482.693 555.309 512.769 555.486C558.479 555.79 586.213 551.107 626.947 536.198C631.606 534.502 636.777 536.881 638.485 541.539C640.192 546.196 637.802 551.36 633.143 553.056C610.897 561.207 592.872 566.194 574.675 569.257C557.577 572.168 539.575 573.484 516.744 573.484Z" fill="#EA4E51"/>
<path d="M578.584 628.839H448.209C448.087 628.839 447.99 628.767 447.941 628.671C438.184 607.965 429.354 573.896 423.037 532.724C417.183 494.455 413.816 451.748 413.816 415.543C413.816 382.913 416.451 351.266 421.622 321.443C426.622 292.652 433.793 266.764 442.916 244.546C452.063 222.305 462.698 204.838 474.528 192.626C486.821 179.958 499.896 173.528 513.36 173.528C526.849 173.528 539.898 179.958 552.192 192.626C564.046 204.838 574.681 222.305 583.804 244.546C592.926 266.764 600.098 292.652 605.098 321.443C610.269 351.266 612.904 382.913 612.904 415.543C612.904 451.748 609.537 494.455 603.683 532.724C597.39 573.896 588.536 607.965 578.779 628.671C578.804 628.767 578.706 628.839 578.584 628.839ZM448.38 628.239H578.389C600.464 581.214 612.367 483.587 612.367 415.519C612.367 282.407 567.974 174.103 513.384 174.103C458.795 174.103 414.402 282.407 414.402 415.519C414.402 483.587 426.329 581.214 448.38 628.239Z" fill="#292526"/>
<path fill-rule="evenodd" clip-rule="evenodd" d="M513.624 285.325C478.766 285.037 446.557 279.439 431.91 276.243C450.029 188.136 514.069 131.744 514.069 131.744C514.069 131.744 578.265 193.902 595.538 277.853C580.736 281.096 548.95 285.109 513.624 285.325Z" fill="#EA4E51"/>
<path d="M671.518 263.567L632.057 253.312L645.763 194.038C646.625 183.777 654.82 176.237 665.444 176.593C676.068 176.948 681.749 183.059 683.01 190.352C685.196 202.894 671.518 263.567 671.518 263.567Z" fill="#5D71BE"/>
<path d="M560.801 247.806L570.602 240.564L575.254 224.891L624.645 236.072C625.387 236.339 626.973 236.818 628.837 237.352C632.789 238.614 636.048 241.483 637.747 245.303C639.466 249.084 639.502 253.428 637.822 257.247C637.476 257.993 637.13 258.739 636.72 259.462C636.15 260.494 635.62 261.449 635.136 262.352C631.643 268.84 623.858 271.721 616.99 269.111C597.542 261.674 561.485 247.961 560.801 247.806Z" fill="#FC9C84"/>
<path d="M573.395 251.902C573.395 251.902 562.827 251.416 555.196 250.995C552.596 250.865 545.548 246.547 546.107 245.714C546.842 244.626 546.833 243.65 548.918 244.1C548.918 244.1 545.04 243.649 545.323 240.725C545.578 237.869 550.644 237.87 550.644 237.87C550.644 237.87 545.613 237.578 546.064 234.622C546.409 232.537 549.158 230.683 551.483 231.118C551.483 231.118 546.44 226.256 551.453 225.794C558.143 225.23 585.712 227.296 585.712 227.296L573.395 251.902Z" fill="#FC9C84"/>
<path d="M564.354 250.085C564.354 250.085 559.204 250.367 556.736 250.528C548.44 251.05 534.804 249.829 533.493 240.297C533.079 237.507 563.023 244.332 563.023 244.332L564.354 250.085Z" fill="#FC9C84"/>
<path d="M545.743 244.088C545.743 244.088 533.016 242.304 530.394 237.943C529.758 236.898 529.671 235.669 530.579 234.28C533.204 230.226 546.748 237.807 546.748 237.807L545.743 244.088Z" fill="#FC9C84"/>
<path d="M576.786 233.925C576.786 233.925 586.879 229.225 583.308 228.398C571.021 225.628 563.929 208.98 560.965 211.636C553.487 218.444 570.699 233.232 568.729 236.588C566.759 239.944 576.786 233.925 576.786 233.925Z" fill="#FC9C84"/>
<path d="M561.049 226.11C561.049 226.11 549.766 223.309 547.919 222.229C545.166 220.698 537.446 218.004 535.865 220.538C532.891 225.51 539.733 226.676 542.681 228.244C544.835 229.4 548.496 230.89 547.197 232.472C545.869 234.01 547.089 233.059 547.089 233.059C547.089 233.059 548.823 232.98 549.637 232.182C550.451 231.384 559.223 235.239 559.223 235.239L561.049 226.11Z" fill="#FC9C84"/>
<path d="M551.667 235.22C551.667 235.22 551.362 232.497 548.926 231.465C546.491 230.433 533.443 223.807 531.224 225.843C529.71 227.236 529.798 228.579 530.733 229.893C533.384 233.657 543.358 236.703 544.113 237.696C545.138 239.002 550.843 240.459 550.843 240.459L551.667 235.22Z" fill="#FC9C84"/>
<path d="M550.303 238.606C550.303 238.606 544.684 237.754 542.47 237.41C541.828 237.308 541.226 237.13 540.613 236.901C529.03 232.066 530.266 227.923 530.335 227.721C530.383 227.557 530.537 227.486 530.713 227.519C530.869 227.589 530.954 227.72 530.905 227.884C530.885 227.922 529.943 231.732 540.85 236.31C541.381 236.548 541.983 236.726 542.562 236.8C544.777 237.144 550.395 237.995 550.395 237.995L550.303 238.606Z" fill="#292526"/>
<path d="M548.621 244.968C548.363 244.945 542.587 244.535 539.897 243.558C539.534 243.442 539.108 243.297 538.62 243.124C535.475 242.129 530.233 240.424 529.897 235.527C529.864 235.372 530.026 235.212 530.191 235.193C530.355 235.174 530.523 235.296 530.505 235.475C530.833 239.949 535.806 241.58 538.825 242.519C539.314 242.691 539.759 242.799 540.134 242.967C542.711 243.939 548.6 244.354 548.651 244.33C548.796 244.349 548.944 244.508 548.946 244.649C548.909 244.865 548.786 244.949 548.621 244.968Z" fill="#292526"/>
<path fill-rule="evenodd" clip-rule="evenodd" d="M583.402 224.423L577.195 258.233C577.195 258.233 628.44 272.37 653.152 279.197C656.582 280.141 660.318 279.704 663.387 277.894C666.5 276.142 668.778 273.188 669.764 269.738C670.337 267.591 670.974 265.33 671.568 263.144C673.516 256.014 669.356 248.619 662.199 246.593C636.936 239.548 583.402 224.423 583.402 224.423Z" fill="#5D71BE"/>
<path d="M653.259 278.89C651.701 278.89 650.142 278.681 648.614 278.261L577.088 258.551C576.939 258.521 576.849 258.341 576.879 258.191C576.909 258.042 577.088 257.952 577.238 257.982L648.764 277.692C653.229 278.92 658.053 278.261 662.008 275.895C665.964 273.528 668.84 269.574 669.829 265.051L680.227 218.68L680.826 218.8L670.429 265.171C669.38 269.844 666.413 273.918 662.308 276.404C659.581 278.022 656.435 278.89 653.259 278.89Z" fill="#292526"/>
<path d="M653.679 244.532C653.649 244.532 653.619 244.532 653.589 244.532L583.292 224.731C583.142 224.701 583.052 224.521 583.082 224.372C583.112 224.222 583.292 224.132 583.441 224.162L653.739 243.962C653.889 243.992 653.979 244.172 653.949 244.322C653.919 244.442 653.799 244.532 653.679 244.532Z" fill="#292526"/>
<path fill-rule="evenodd" clip-rule="evenodd" d="M338.351 330.952C338.351 330.952 264.082 383.329 276.883 329.289C281.519 309.836 281.48 310.034 286.077 290.858C287.94 283.014 293.052 269.701 305.496 264.868L332.803 275.803L338.351 330.952Z" fill="#292526"/>
<path d="M292.133 323.45C292.133 323.45 303.2 322.928 303.104 296.837L323.121 302.142C323.121 302.142 322.48 318.058 325.976 322.175C331.398 328.524 292.133 323.45 292.133 323.45Z" fill="#FC9C84"/>
<path fill-rule="evenodd" clip-rule="evenodd" d="M324.597 312.202C324.597 312.202 309.551 309.999 307.434 303.621C305.285 297.243 326.489 298.286 326.489 298.286L324.597 312.202Z" fill="#292526"/>
<path fill-rule="evenodd" clip-rule="evenodd" d="M301.939 276.268C300.763 281.381 296.549 308.367 317.077 308.129C323.7 308.06 329.197 302.927 329.7 296.309C329.801 294.971 329.903 293.633 329.999 292.39C330.57 282.799 328.001 273.781 320.769 270.355C317.744 268.895 303.874 268.01 301.939 276.268Z" fill="#FC9C84"/>
<path d="M318.9 295.829C318.877 295.829 318.854 295.829 318.854 295.829C318.694 295.828 318.558 295.689 318.559 295.529C318.56 295.368 318.698 295.231 318.858 295.232C318.881 295.233 318.904 295.233 318.904 295.233C320.046 295.24 320.871 294.993 321.125 294.605C321.263 294.4 321.242 294.148 321.084 293.803C320.407 292.354 319.887 287.879 319.865 287.696C319.843 287.535 319.959 287.375 320.119 287.354C320.279 287.332 320.438 287.447 320.46 287.608C320.46 287.654 321.003 292.174 321.634 293.531C321.882 294.06 321.879 294.542 321.625 294.93C321.118 295.706 319.723 295.835 318.9 295.829Z" fill="#292526"/>
<path d="M311.775 289.899C311.801 290.602 312.353 291.124 313.046 291.097C313.739 291.071 314.252 290.51 314.226 289.806C314.2 289.103 313.648 288.582 312.955 288.608C312.262 288.634 311.749 289.195 311.775 289.899Z" fill="#292526"/>
<path d="M323.331 289.819C323.356 290.522 323.909 291.044 324.602 291.017C325.294 290.991 325.807 290.43 325.782 289.726C325.756 289.023 325.203 288.502 324.511 288.528C323.818 288.554 323.305 289.115 323.331 289.819Z" fill="#292526"/>
<path d="M317.062 300.57C313.837 300.567 312.544 297.497 312.544 297.473C312.474 297.329 312.567 297.136 312.707 297.087C312.87 297.014 313.034 297.109 313.105 297.253C313.152 297.397 314.562 300.707 318.253 299.841C318.416 299.792 318.58 299.911 318.604 300.055C318.651 300.223 318.534 300.368 318.371 300.418C317.927 300.517 317.483 300.568 317.062 300.57Z" fill="#292526"/>
<path d="M321.636 285.578C321.647 285.327 321.785 285.079 321.945 284.906C322.155 284.758 322.386 284.686 322.638 284.69C323.875 284.759 325.968 284.89 326.314 285.07C327.203 285.535 327.09 286.887 326.051 286.922C325.721 286.942 323.732 286.737 322.523 286.619C321.996 286.536 321.612 286.079 321.636 285.578Z" fill="#292526"/>
<path d="M315.563 285.676C315.573 285.421 315.459 285.161 315.317 284.975C315.124 284.813 314.881 284.674 314.655 284.714C313.435 284.706 311.419 284.685 311.064 284.847C310.151 285.262 310.146 286.639 311.163 286.739C311.485 286.78 313.456 286.696 314.653 286.652C315.15 286.676 315.566 286.237 315.563 285.676Z" fill="#292526"/>
<path fill-rule="evenodd" clip-rule="evenodd" d="M315.936 275.877C315.936 275.877 312.761 280.668 308.233 284.178C304.23 287.278 298.93 289.072 297.19 289.815C293.463 291.429 289.239 264.347 313.506 263.194C313.506 263.194 336.945 262.656 333.384 286.433C333.384 286.458 319.718 282.846 315.936 275.877Z" fill="#292526"/>
<path d="M303.345 300.212C297.504 298.608 294.767 294.968 295.133 291.633C295.528 288.025 298.951 285.404 302.807 285.826C304.536 286.015 306.022 286.763 307.139 287.884C307.819 288.337 306.699 301.543 303.345 300.212Z" fill="#FC9C84"/>
<path d="M378.808 353.535L349.27 377.148L328.017 349.925C321.288 341.306 322.195 329.304 331.058 322.043C339.922 314.782 350.826 317.693 357.608 326.354L378.808 353.535Z" fill="white"/>
<path d="M349.298 377.439C349.202 377.454 349.202 377.454 349.298 377.439C349.202 377.454 349.096 377.372 349.043 377.33L327.791 350.108C320.787 341.186 322.113 328.973 330.89 321.823C334.782 318.669 339.233 317.201 343.835 317.729C349.077 318.306 354.07 321.284 357.835 326.173L379.087 353.395C379.15 353.533 379.169 353.727 379.029 353.798L349.491 377.41C349.395 377.424 349.298 377.439 349.298 377.439ZM341.97 318.161C338.154 318.154 334.474 319.503 331.217 322.167C322.72 329.175 321.399 340.945 328.234 349.647L349.317 376.649L378.403 353.401L357.319 326.399C353.617 321.649 348.827 318.738 343.734 318.187C343.103 318.234 342.558 318.17 341.97 318.161Z" fill="#292526"/>
<path d="M362.031 369.595L330.356 381.443L329.541 375.028L362.031 369.595Z" fill="#292526"/>
<path fill-rule="evenodd" clip-rule="evenodd" d="M339.397 640.419C339.397 640.419 328.083 647.482 309.784 646.03C303.289 645.52 291.607 644.068 287.89 639.948L309.784 628.372L339.397 640.419Z" fill="#2D292A"/>
<path d="M337.129 668.382L296.875 675.293L293.447 629.144L337.121 629.163L337.129 668.382Z" fill="#FC9C84"/>
<path fill-rule="evenodd" clip-rule="evenodd" d="M293.912 639.436L335.963 639.442L294.401 647.219L293.912 639.436Z" fill="#292526"/>
<path d="M370.782 677.553C368.536 676.127 366.03 675.078 363.283 674.262C357.545 672.633 348.836 670.28 345.658 669.269C343.527 668.613 341.703 665.05 340.632 663.44L337.568 657.927L337.512 657.891C333.75 655.501 328.354 655.485 324.592 657.902L320.572 661.164C318.004 663.254 313.71 663.395 310.958 661.414C307.813 659.183 299.314 658.049 295.039 658.279L295.04 658.512L295.348 690.187C295.348 690.187 373.193 692.808 374.453 690.508C375.325 688.89 374.849 686.65 374.544 684.983C374.068 682.51 373.385 679.517 370.782 677.553Z" fill="white"/>
<path d="M377.392 693.08C377.372 692.758 377.409 692.47 377.389 692.148C377.362 690.193 377.317 688.148 377.291 686.193L376.414 686.179L296.972 685.643C296.972 685.643 295.366 685.631 295.31 685.596C295.459 685.613 295.34 688.716 295.341 688.95C295.382 689.828 295.329 690.725 295.37 691.604C295.379 693.936 295.462 696.159 297.987 697.298C299.876 698.188 302.789 698.411 304.445 696.826C305.207 696.07 305.95 694.991 307.164 694.987C308.321 694.947 308.846 695.59 309.596 696.377C310.365 697.253 311.246 698.2 313.038 698.176C314.83 698.151 315.685 697.144 316.429 696.298C317.135 695.506 317.637 694.895 318.851 694.89C320.008 694.85 320.533 695.494 321.283 696.28C322.052 697.157 322.933 698.104 324.725 698.079C326.517 698.055 327.372 697.047 328.116 696.202C328.822 695.41 329.324 694.798 330.538 694.794C331.695 694.754 332.22 695.398 332.97 696.184C333.739 697.06 334.62 698.007 336.412 697.983C338.204 697.958 339.059 696.951 339.803 696.105C340.509 695.313 341.011 694.702 342.224 694.697C343.382 694.657 343.907 695.301 344.657 696.088C345.426 696.964 346.307 697.911 348.099 697.886C349.891 697.862 350.746 696.854 351.49 696.009C352.196 695.217 352.698 694.605 353.911 694.601C355.069 694.561 355.594 695.205 356.344 695.991C357.113 696.867 357.994 697.815 359.786 697.79C361.578 697.766 362.433 696.758 363.177 695.912C363.883 695.121 364.385 694.509 365.598 694.504C366.756 694.464 367.281 695.108 368.031 695.895C369.231 697.2 370.633 697.858 372.444 697.69C375.113 697.447 377.346 695.61 377.392 693.08Z" fill="#292526"/>
<path d="M348.26 668.446C348.26 668.446 341.257 655.936 339.205 650.356C337.153 644.775 326.586 645.198 329.257 654.851C331.929 664.503 336.932 670.825 341.658 670.9C346.384 670.975 348.26 668.446 348.26 668.446Z" fill="#7C98F4"/>
<path d="M377.04 688.763L295.059 688.398C294.816 688.399 294.573 688.167 294.572 687.933C294.571 687.7 294.813 687.466 295.055 687.465L376.98 687.794C377.223 687.793 377.466 688.026 377.467 688.259C377.524 688.528 377.282 688.762 377.04 688.763Z" fill="white"/>
<path d="M348.137 648.487C347.222 648.526 346.458 648.816 345.77 649.464C342.923 652.075 342.783 659.196 342.849 662.029C345.823 658.647 351.23 651.847 350.232 649.43C350.024 648.91 349.482 648.643 348.585 648.539C348.473 648.467 348.286 648.504 348.137 648.487ZM342.389 663.753C342.333 663.717 342.296 663.771 342.24 663.735C342.034 663.682 341.903 663.521 341.902 663.288C341.863 662.876 341.188 652.368 345.076 648.713C346.043 647.777 347.311 647.342 348.749 647.48C350.038 647.601 350.824 648.1 351.201 648.96C352.727 652.721 343.803 662.402 342.781 663.536C342.669 663.698 342.539 663.77 342.389 663.753Z" fill="#292526"/>
<path d="M329.959 652.738C329.38 652.758 328.877 652.904 328.299 653.157C327.554 653.536 327.163 653.986 327.147 654.596C327.176 657.251 334.847 661.581 338.962 663.575C337.869 660.942 334.932 654.424 331.286 653.039C330.836 652.753 330.388 652.701 329.959 652.738ZM339.901 665.024C339.808 665.043 339.752 665.007 339.695 664.971C338.349 664.348 326.21 658.653 326.176 654.6C326.172 653.667 326.729 652.858 327.829 652.316C329.059 651.701 330.403 651.625 331.674 652.122C336.704 654.077 340.215 663.983 340.403 664.413C340.441 664.592 340.385 664.789 340.274 664.951C340.125 664.934 339.994 665.006 339.901 665.024Z" fill="#292526"/>
<path fill-rule="evenodd" clip-rule="evenodd" d="M339.627 532.451L337.239 427.323L279.257 419.766C276.061 435.893 284.104 497.161 287.791 527.727V639.906H339.627V532.451Z" fill="#7C98F4"/>
<path fill-rule="evenodd" clip-rule="evenodd" d="M261.258 628.96C261.258 628.96 259.175 633.159 255.172 628.96C246.512 619.817 230.786 598.98 229.684 595.567C228.989 593.33 230.868 592.349 230.868 592.349L261.258 628.96Z" fill="#2D292A"/>
<path d="M235.55 647.634L202.943 621.036L238.112 589.566L265.984 619.153L235.55 647.634Z" fill="#FC9C84"/>
<path fill-rule="evenodd" clip-rule="evenodd" d="M232.144 594.89L257.878 627.046L225.287 601.038L232.144 594.89Z" fill="#292526"/>
<path d="M246.896 676.635C246.744 674.053 246.121 671.496 245.158 668.892C243.086 663.499 239.843 655.385 238.786 652.333C238.059 650.3 239.94 646.765 240.644 644.978L243.411 639.322L243.407 639.257C243.151 634.931 239.939 630.766 235.673 629.314L230.549 628.168C227.27 627.44 224.585 624.218 224.592 620.914C224.572 617.158 220.438 609.935 217.689 606.781L217.495 606.921L191.256 626.097C191.256 626.097 235.612 687.613 238.284 687.208C240.155 686.912 241.739 685.207 242.948 683.975C244.794 682.126 246.814 679.813 246.896 676.635Z" fill="white"/>
<path d="M237.894 691.01C238.151 690.802 238.413 690.658 238.67 690.45C240.285 689.261 241.964 688.003 243.579 686.814L243.067 686.13L196.015 624.631C196.015 624.631 195.065 623.387 195.061 623.322C195.136 623.448 192.476 625.212 192.282 625.352C191.573 625.909 190.794 626.405 190.085 626.961C188.145 628.362 186.34 629.756 186.899 632.381C187.286 634.368 188.842 636.745 191.154 637.073C192.241 637.208 193.585 637.135 194.314 638.066C195.04 638.934 194.817 639.723 194.609 640.771C194.338 641.887 194.074 643.132 195.166 644.497C196.258 645.863 197.61 645.919 198.76 645.986C199.843 646.056 200.653 646.077 201.382 647.009C202.108 647.876 201.885 648.666 201.677 649.713C201.406 650.829 201.142 652.074 202.234 653.44C203.326 654.805 204.678 654.861 205.828 654.928C206.911 654.999 207.721 655.02 208.45 655.952C209.176 656.819 208.953 657.608 208.745 658.656C208.474 659.772 208.21 661.017 209.302 662.382C210.394 663.748 211.746 663.804 212.896 663.871C213.979 663.942 214.789 663.962 215.518 664.894C216.244 665.761 216.021 666.551 215.813 667.599C215.542 668.714 215.278 669.959 216.37 671.325C217.462 672.691 218.814 672.747 219.964 672.814C221.047 672.884 221.857 672.905 222.586 673.837C223.312 674.704 223.089 675.493 222.881 676.541C222.61 677.657 222.346 678.902 223.438 680.268C224.53 681.633 225.882 681.689 227.032 681.756C228.115 681.827 228.925 681.847 229.654 682.779C230.38 683.647 230.157 684.436 229.949 685.484C229.578 687.188 229.867 688.662 231.09 689.956C232.888 691.866 235.753 692.422 237.894 691.01Z" fill="#292526"/>
<path d="M241.057 653.808C241.057 653.808 247.307 640.935 250.736 636.018C254.164 631.1 247.494 623.216 241.038 631.045C234.583 638.875 232.3 646.507 235.063 650.191C237.826 653.875 241.057 653.808 241.057 653.808Z" fill="#7C98F4"/>
<path d="M241.282 688.092L192.57 624.74C192.424 624.553 192.472 624.227 192.666 624.087C192.86 623.947 193.2 623.993 193.346 624.179L242.058 687.531C242.203 687.718 242.155 688.044 241.961 688.184C241.771 688.389 241.431 688.343 241.282 688.092Z" fill="white"/>
<path d="M257.608 641.814C257.028 641.133 256.33 640.718 255.377 640.576C251.497 639.945 245.472 644.095 243.148 645.841C247.748 646.108 256.654 646.206 258.074 643.991C258.383 643.521 258.281 642.944 257.832 642.191C257.825 642.062 257.75 641.936 257.608 641.814ZM241.435 646.517C241.431 646.453 241.364 646.456 241.36 646.392C241.281 646.202 241.337 646.004 241.531 645.864C241.852 645.587 250.215 638.784 255.589 639.592C256.948 639.777 258.069 640.494 258.814 641.684C259.483 642.749 259.537 643.653 259.045 644.457C256.82 647.882 243.407 646.798 241.849 646.689C241.648 646.7 241.51 646.643 241.435 646.517Z" fill="#292526"/>
<path d="M243.188 630.294C242.825 629.861 242.403 629.56 241.846 629.266C241.084 628.919 240.476 628.887 239.957 629.24C237.76 630.849 238.734 639.346 239.53 643.707C241.073 641.291 244.755 635.132 243.731 631.495C243.704 631.043 243.48 630.667 243.188 630.294ZM238.887 645.361C238.815 645.3 238.812 645.236 238.808 645.171C238.522 643.762 236.017 631.009 239.378 628.559C240.154 627.998 241.161 627.943 242.271 628.466C243.519 629.046 244.386 630.035 244.731 631.311C246.108 636.353 239.943 644.98 239.697 645.382C239.57 645.518 239.372 645.594 239.171 645.605C239.096 645.479 238.958 645.422 238.887 645.361Z" fill="#292526"/>
<path d="M260.188 630.29C260.188 630.29 334.219 574.724 366.564 550.433C375.414 543.787 379.066 532.248 375.659 521.722C363.719 484.982 337.31 403.572 337.31 403.572H279.433C279.433 403.572 277.713 412.007 275.781 421.386C272.585 437.074 274.868 453.538 289.583 464.503C290.004 464.806 298.363 478.639 298.363 478.639C298.363 478.639 312.41 504.752 318.275 515.616C319.75 518.315 319.048 521.688 316.625 523.611C298.889 537.781 230.302 592.572 230.302 592.572L260.188 630.29Z" fill="#7C98F4"/>
<path fill-rule="evenodd" clip-rule="evenodd" d="M345.104 427.588L287.475 422.664L275.769 421.399L345.069 420.202V427.588H345.104Z" fill="#292526"/>
<path d="M260.188 630.595C260.083 630.595 260.012 630.561 259.942 630.494L230.056 592.775C229.951 592.64 229.986 592.471 230.091 592.37L316.449 523.376C318.731 521.554 319.399 518.349 317.994 515.751L298.081 478.774C294.815 473.376 289.793 465.144 289.372 464.706C273.006 452.56 272.796 434.409 275.465 421.319L279.117 403.505C279.152 403.37 279.258 403.269 279.398 403.269H337.274C337.415 403.269 337.52 403.337 337.555 403.472L375.905 521.621C379.347 532.283 375.659 543.956 366.704 550.67C334.359 574.927 260.328 630.527 260.328 630.527C260.328 630.561 260.258 630.595 260.188 630.595ZM230.723 592.606L260.258 629.853C264.824 626.411 335.132 573.645 366.388 550.197C375.132 543.619 378.75 532.215 375.378 521.79L337.099 403.843H279.679L276.097 421.42C273.463 434.342 273.674 452.257 289.793 464.234C290.25 464.571 296.677 475.198 298.643 478.471L318.556 515.481C320.101 518.315 319.363 521.858 316.835 523.848L230.723 592.606Z" fill="#292526"/>
<path fill-rule="evenodd" clip-rule="evenodd" d="M278.847 452.225L356.156 461.691L351.421 447.013L283.371 438.805L278.847 452.225Z" fill="#292526"/>
<path d="M277.107 318.4L273.618 330.66C271.098 335.216 267.269 357.334 267.269 357.334L265.428 451.854L362.307 451.564C360.513 425.014 353.729 365.246 346.314 332.98C344.86 326.601 343.357 321.258 341.855 317.53L308.124 317.696L277.107 318.4Z" fill="white"/>
<path d="M265.475 452.186C265.378 452.186 265.33 452.145 265.281 452.103C265.233 452.062 265.184 451.979 265.184 451.896L267.026 357.376V357.335C267.171 356.423 270.855 335.216 273.375 330.577L276.864 318.358C276.913 318.234 277.01 318.151 277.155 318.151L308.22 317.447L341.951 317.281C342.096 317.281 342.193 317.364 342.242 317.489C343.696 321.092 345.198 326.311 346.7 332.98C353.97 364.459 360.755 423.109 362.693 451.606C362.693 451.689 362.693 451.772 362.596 451.813C362.548 451.855 362.451 451.896 362.354 451.896L265.475 452.186ZM267.608 357.376L265.766 451.565L362.015 451.275C360.076 422.695 353.291 364.417 346.07 333.062C344.568 326.518 343.066 321.382 341.709 317.82L308.22 317.986L277.397 318.69L273.956 330.743C273.956 330.784 273.956 330.784 273.908 330.826C271.485 335.216 267.753 356.589 267.608 357.376Z" fill="#292526"/>
<path d="M390.071 396.094C405.55 396.094 418.098 384.122 418.098 369.354C418.098 354.585 405.55 342.613 390.071 342.613C374.593 342.613 362.045 354.585 362.045 369.354C362.045 384.122 374.593 396.094 390.071 396.094Z" fill="#7C98F4"/>
<path opacity="0.22" fill-rule="evenodd" clip-rule="evenodd" d="M369.402 404.736L417.449 339.427L425.214 346.139L378.03 409.858L369.402 404.736Z" fill="white"/>
<path opacity="0.22" fill-rule="evenodd" clip-rule="evenodd" d="M355.097 387.767L400.178 330.436L415.654 339.169L370.223 398.386L355.097 387.767Z" fill="white"/>
<path d="M390.071 408.913C367.75 408.913 349.588 391.175 349.588 369.354C349.588 347.533 367.75 329.795 390.071 329.795C412.391 329.795 430.553 347.533 430.553 369.354C430.553 391.154 412.391 408.913 390.071 408.913ZM390.071 330.387C368.063 330.387 350.173 347.86 350.173 369.333C350.173 390.807 368.063 408.3 390.071 408.3C412.078 408.3 429.968 390.828 429.968 369.354C429.968 347.88 412.057 330.387 390.071 330.387Z" fill="#D5D5D8"/>
<path fill-rule="evenodd" clip-rule="evenodd" d="M421.841 329.416C420.848 331.175 415.672 337.597 411.811 335.029C407.703 332.308 415.647 325.075 417.729 324.418C419.185 323.954 422.58 328.079 421.841 329.416Z" fill="#FC9C84"/>
<path fill-rule="evenodd" clip-rule="evenodd" d="M421.824 329.395C421.824 329.395 415.328 338.79 411.812 335.03C408.276 331.246 415.593 325.193 417.776 324.476L421.824 329.395Z" fill="#FC9C84"/>
<path d="M413.787 336.222C412.944 336.223 412.22 335.892 411.595 335.243C410.638 334.227 410.347 332.994 410.705 331.56C411.586 328.161 416.025 324.728 417.672 324.202C417.839 324.148 417.991 324.224 418.035 324.387C418.079 324.55 418.011 324.724 417.844 324.778C416.345 325.264 412.088 328.552 411.273 331.738C410.945 332.951 411.211 334.006 412.012 334.87C412.559 335.462 413.187 335.712 413.953 335.653C417.278 335.409 421.504 329.335 421.539 329.267C421.626 329.117 421.812 329.087 421.947 329.178C422.082 329.268 422.127 329.469 422.019 329.595C421.842 329.856 417.58 335.959 413.975 336.23C413.937 336.22 413.881 336.226 413.787 336.222Z" fill="#292526"/>
<path fill-rule="evenodd" clip-rule="evenodd" d="M427.395 333.932C425.973 336.079 418.846 344.017 414.663 341.708C410.21 339.262 421.164 329.182 423.238 328.882C425.865 328.534 428.473 332.324 427.395 333.932Z" fill="#FC9C84"/>
<path fill-rule="evenodd" clip-rule="evenodd" d="M418.841 341.524C418.841 341.524 414.381 343.232 413.63 339.832C412.856 336.452 420.642 329.985 423.242 328.696L418.841 341.524Z" fill="#FC9C84"/>
<path d="M416.515 342.236C415.923 342.235 415.276 342.119 414.733 341.841C414.024 341.458 413.56 340.799 413.338 339.907C412.51 336.174 420.813 329.57 423.113 328.442C423.251 328.371 423.444 328.415 423.515 328.596C423.589 328.735 423.526 328.944 423.368 328.991C420.858 330.247 413.211 336.643 413.899 339.775C414.07 340.509 414.416 341.025 414.979 341.327C416.397 342.093 418.692 341.247 418.692 341.247C418.85 341.2 419.02 341.262 419.07 341.419C419.121 341.577 419.061 341.743 418.903 341.791C418.856 341.829 417.742 342.245 416.515 342.236Z" fill="#292526"/>
<path fill-rule="evenodd" clip-rule="evenodd" d="M432.878 339.51C430.021 343.418 421.579 351.383 417.171 348.168C412.488 344.719 425.983 334.533 428.288 333.666C430.9 332.664 434.242 337.68 432.878 339.51Z" fill="#FC9C84"/>
<path fill-rule="evenodd" clip-rule="evenodd" d="M431.921 340.747C431.921 340.747 421.449 352.21 417.192 348.134C412.934 344.058 427.254 334.395 428.34 333.79L431.921 340.747Z" fill="#FC9C84"/>
<path d="M419.472 349.342C418.467 349.349 417.64 348.997 416.977 348.387C416.27 347.72 415.973 346.875 416.109 345.878C416.769 341.046 427.222 334.062 428.165 333.566C428.33 333.485 428.504 333.531 428.585 333.692C428.666 333.854 428.617 334.025 428.452 334.107C427.617 334.564 417.294 341.539 416.688 345.973C416.58 346.77 416.773 347.426 417.342 347.974C417.932 348.551 418.672 348.791 419.576 348.772C424.281 348.623 431.595 340.683 431.66 340.589C431.781 340.452 431.962 340.448 432.1 340.566C432.239 340.683 432.24 340.861 432.119 340.998C431.818 341.317 424.59 349.191 419.624 349.36C419.602 349.332 419.523 349.348 419.472 349.342Z" fill="#292526"/>
<path fill-rule="evenodd" clip-rule="evenodd" d="M438.047 344.695C435.618 348.26 428.233 355.381 423.949 352.066C419.395 348.513 431.35 339.56 433.442 338.864C435.786 338.075 439.159 343.015 438.047 344.695Z" fill="#FC9C84"/>
<path fill-rule="evenodd" clip-rule="evenodd" d="M437.189 345.824C437.189 345.824 428.119 356.164 423.925 352.038C419.731 347.911 432.482 339.503 433.457 338.987L437.189 345.824Z" fill="#FC9C84"/>
<path d="M426.355 353.314C425.298 353.313 424.436 352.942 423.718 352.239C422.956 351.48 422.66 350.591 422.834 349.524C423.55 344.974 432.531 339.154 433.331 338.726C433.481 338.657 433.645 338.711 433.73 338.87C433.814 339.028 433.753 339.208 433.604 339.277C432.88 339.647 424.067 345.474 423.403 349.627C423.269 350.486 423.502 351.245 424.132 351.836C424.784 352.456 425.554 352.763 426.495 352.719C430.834 352.55 436.885 345.697 436.962 345.639C437.067 345.515 437.26 345.503 437.395 345.623C437.531 345.743 437.543 345.912 437.412 346.055C437.151 346.342 431.125 353.176 426.545 353.348C426.476 353.312 426.403 353.323 426.355 353.314Z" fill="#292526"/>
<path d="M281.786 338.097C271.504 341.192 265.662 352.758 269.914 361.65L298.095 420.883C300.43 425.559 308.978 432.912 315.715 430.089C318.176 429.037 330.66 419.258 331.296 418.18C336.313 410.209 329.773 420.898 325.231 404.56L299.688 345.624C296.874 338.951 289.357 335.776 281.786 338.097Z" fill="#FC9C84"/>
<path d="M310.121 365.184L282.526 388.491L279.4 382.333L310.121 365.184Z" fill="#292526"/>
<path d="M313.674 363.375L277.407 384.863L260.883 350.051C255.416 339.731 258.019 326.848 268.697 320.865C279.375 314.881 290.892 320.408 296.359 330.728L313.674 363.375Z" fill="white"/>
<path d="M272.948 375.679C272.858 375.679 272.738 375.619 272.678 375.529C272.588 375.379 272.648 375.199 272.768 375.109L308.546 353.722C308.696 353.632 308.875 353.692 308.965 353.812C309.055 353.962 308.995 354.141 308.875 354.231L273.098 375.619C273.038 375.649 273.008 375.679 272.948 375.679Z" fill="#292526"/>
<path d="M277.488 385.177C277.44 385.124 277.384 385.175 277.488 385.177C277.336 385.122 277.287 385.069 277.239 385.015L260.716 350.204C257.982 345.044 257.178 339.202 258.584 333.777C259.95 328.194 263.543 323.497 268.665 320.605C273.244 318.011 278.24 317.454 283.085 318.87C288.643 320.51 293.634 324.789 296.736 330.582L314.003 363.176C314.043 363.333 314.027 363.54 313.867 363.588L277.6 385.076C277.544 385.127 277.488 385.177 277.488 385.177ZM277.88 318.745C274.806 318.724 271.772 319.535 268.882 321.182C258.804 326.815 255.457 339.213 261.204 349.956L277.647 384.453L313.37 363.264L296.24 330.934C293.234 325.247 288.339 321.075 282.933 319.49C281.203 318.929 279.498 318.732 277.88 318.745Z" fill="#292526"/>
<path d="M387.994 410.846L384.23 404.618L380.871 387.509L323.453 396.569C321.715 396.956 316.484 397.93 311.839 398.766C305.731 399.946 301.018 404.835 300.071 410.996C299.659 413.72 299.611 416.743 300.322 419.737C301.233 423.645 303.716 426.991 307.19 429.015C310.663 431.039 314.786 431.565 318.658 430.462C342.746 423.623 387.142 410.961 387.994 410.846Z" fill="#FC9C84"/>
<path fill-rule="evenodd" clip-rule="evenodd" d="M379.035 388.846L366.368 390.458L337.831 394.413L321.07 396.774L379.035 388.846Z" fill="#FC9C84"/>
<path d="M321.058 397.055C320.908 397.069 320.776 396.95 320.769 396.802C320.737 396.639 320.864 396.502 321.031 396.463L337.792 394.102L366.328 390.147L378.996 388.535C379.146 388.521 379.32 388.629 379.327 388.777C379.359 388.941 379.232 389.077 379.065 389.117L366.398 390.729L337.861 394.684L321.1 397.045C321.083 397.07 321.083 397.07 321.058 397.055Z" fill="#292526"/>
<path d="M367.027 413.053C372.361 413.252 377.577 411.131 384.003 411.692C384.835 411.769 387.252 412.054 388.045 412.298C391.816 413.509 396.563 413.044 399.35 412.48C400.9 412.182 405.994 411.06 405.903 408.159C405.759 403.882 394.659 407.619 390.54 406.782C395.671 407.857 398.529 407.458 403.46 407.046C404.169 406.994 404.945 406.932 405.764 406.877C407.156 406.79 413.02 404.13 411.742 400.895C410.558 397.915 408.016 400.148 403.898 400.439C403.079 400.494 397.379 400.471 396.377 400.754C396.19 400.809 404.217 401.318 406.399 401.02C410.044 400.517 415.85 398.389 415.023 394.147C414.47 391.167 410.195 394.208 408.623 394.698C403.88 396.184 404.389 396.619 400.416 396.284C399.391 396.195 392.239 395.38 395.14 394.988C396.493 394.786 402.004 395.255 405.742 394.16C410.024 392.877 415.479 390.95 414.056 387.495C412.83 384.508 406.399 388.112 403.277 388.335C398.669 388.673 393.006 388.483 388.649 387.171C375.508 383.246 369.033 394.11 362.818 391.504L367.027 413.053Z" fill="#FC9C84"/>
<path fill-rule="evenodd" clip-rule="evenodd" d="M380.896 388.636C383.037 388.859 384.745 388.991 384.745 388.991C384.745 388.991 385.158 388.638 385.789 388.062C388.02 386.042 393.081 381.264 394.248 378.939C395.21 377.025 394.024 375.531 393.057 374.712C392.486 374.248 391.653 374.231 391.039 374.674C389.426 375.822 386.133 378.22 383.662 380.018C382.99 380.497 378.62 382.977 375.793 384.518C371.017 386.709 366.732 389.852 366.732 389.852L368.512 392.723C368.512 392.723 376.983 394.49 377.288 394.034C377.44 393.806 379.31 391.273 380.896 388.636Z" fill="#FC9C84"/>
<path fill-rule="evenodd" clip-rule="evenodd" d="M381.963 411.737C381.963 411.737 396.193 413.842 402.677 411.579C406.029 410.399 406.578 409.003 405.837 407.451L381.963 411.737Z" fill="#FC9C84"/>
<path d="M393.902 412.925C388.093 412.936 382.288 412.066 381.912 412.018C381.75 412.007 381.634 411.848 381.653 411.688C381.673 411.527 381.839 411.405 381.986 411.443C382.134 411.481 396.205 413.508 402.565 411.287C404.344 410.662 405.396 409.954 405.707 409.188C405.885 408.732 405.837 408.199 405.561 407.588C405.472 407.443 405.532 407.268 405.711 407.186C405.848 407.117 406.049 407.181 406.111 407.314C406.503 408.083 406.532 408.777 406.293 409.407C405.908 410.374 404.745 411.164 402.802 411.844C400.449 412.664 397.158 412.921 393.902 412.925Z" fill="#292526"/>
<path fill-rule="evenodd" clip-rule="evenodd" d="M414.523 393.49C414.523 393.49 416.331 395.054 413.453 397.723C412.517 398.59 411.077 399.584 408.958 400.654C406.936 401.669 404.764 402.339 402.527 402.569C399.327 402.906 394.677 403.382 394.677 403.382L414.523 393.49Z" fill="#FC9C84"/>
<path d="M394.678 403.689L394.632 403.089L402.483 402.276C404.694 402.033 406.836 401.416 408.817 400.415C410.757 399.428 412.251 398.46 413.257 397.525C414.263 396.59 414.796 395.662 414.784 394.875C414.769 394.154 414.351 393.745 414.325 393.732C414.206 393.641 414.187 393.427 414.286 393.306C414.385 393.184 414.587 393.182 414.706 393.273C414.732 393.286 415.334 393.852 415.365 394.853C415.37 395.841 414.806 396.89 413.646 397.987C412.584 398.963 411.062 399.984 409.081 400.986C407.044 402.028 404.819 402.672 402.541 402.916L394.678 403.689Z" fill="#292526"/>
<path fill-rule="evenodd" clip-rule="evenodd" d="M411.075 399.957C411.075 399.957 413.647 402.473 410.397 404.586C405.805 407.572 403.078 407.528 403.078 407.528L393.731 407.507L411.075 399.957Z" fill="#FC9C84"/>
<path d="M403.095 407.809L393.748 407.788C393.586 407.776 393.456 407.645 393.448 407.471C393.441 407.298 393.581 407.162 393.743 407.173L403.09 407.195C403.131 407.181 405.778 407.185 410.218 404.295C411.145 403.695 411.641 403.021 411.709 402.273C411.831 401.11 410.854 400.121 410.854 400.121C410.75 400.003 410.742 399.829 410.841 399.708C410.967 399.599 411.143 399.583 411.273 399.715C411.312 399.768 412.447 400.901 412.3 402.358C412.199 403.294 411.615 404.13 410.537 404.825C406.042 407.756 403.324 407.819 403.095 407.809Z" fill="#292526"/>
<path fill-rule="evenodd" clip-rule="evenodd" d="M452.861 203.861C454.777 204.505 462.06 208.378 460.264 212.652C458.364 217.198 449.763 210.76 448.725 208.84C447.995 207.496 451.409 203.387 452.861 203.861Z" fill="#FC9C84"/>
<path fill-rule="evenodd" clip-rule="evenodd" d="M452.85 203.875C452.85 203.875 463.303 208.485 460.271 212.645C457.238 216.805 449.894 210.784 448.779 208.776L452.85 203.875Z" fill="#FC9C84"/>
<path d="M457.403 214.385C457.292 214.372 457.2 214.374 457.069 214.385C453.565 214.16 449.357 210.447 448.53 208.929C448.446 208.776 448.491 208.611 448.643 208.538C448.795 208.464 448.978 208.499 449.063 208.652C449.823 210.032 453.854 213.593 457.138 213.793C458.391 213.887 459.378 213.428 460.076 212.478C460.554 211.83 460.681 211.166 460.48 210.425C459.614 207.207 452.851 204.201 452.778 204.18C452.615 204.122 452.55 203.944 452.613 203.795C452.677 203.646 452.866 203.564 453.01 203.646C453.299 203.771 460.097 206.806 461.042 210.295C461.29 211.198 461.115 212.065 460.536 212.871C459.743 213.862 458.698 214.392 457.403 214.385Z" fill="#292526"/>
<path fill-rule="evenodd" clip-rule="evenodd" d="M456.255 197.558C458.632 198.55 467.772 204.053 466.29 208.595C464.726 213.427 452.762 204.57 452.076 202.589C451.24 200.076 454.473 196.803 456.255 197.558Z" fill="#FC9C84"/>
<path fill-rule="evenodd" clip-rule="evenodd" d="M465.328 204.52C465.328 204.52 467.845 208.578 464.647 209.954C461.472 211.351 453.652 204.924 451.897 202.613L465.328 204.52Z" fill="#FC9C84"/>
<path d="M463.628 210.468C459.761 210.461 453.048 204.653 451.653 202.813C451.558 202.69 451.564 202.492 451.729 202.389C451.851 202.29 452.068 202.313 452.145 202.459C453.85 204.687 461.573 210.991 464.521 209.726C465.21 209.419 465.652 208.983 465.842 208.373C466.348 206.813 465.065 204.743 465.065 204.743C464.989 204.597 465.018 204.418 465.164 204.339C465.309 204.26 465.483 204.287 465.559 204.433C465.609 204.516 466.968 206.733 466.397 208.562C466.154 209.33 465.594 209.909 464.76 210.295C464.443 210.391 464.037 210.451 463.628 210.468Z" fill="#292526"/>
<path fill-rule="evenodd" clip-rule="evenodd" d="M460.695 191.085C465.071 193.155 474.486 199.944 472.157 204.876C469.65 210.124 457.103 198.791 455.817 196.692C454.368 194.34 458.641 190.144 460.695 191.085Z" fill="#FC9C84"/>
<path fill-rule="evenodd" clip-rule="evenodd" d="M462.099 191.838C462.099 191.838 475.332 199.962 472.129 204.909C468.926 209.857 456.737 197.616 455.938 196.663L462.099 191.838Z" fill="#FC9C84"/>
<path d="M469.889 206.384C464.999 206.391 456.389 197.686 455.725 196.854C455.613 196.706 455.626 196.527 455.769 196.417C455.913 196.307 456.091 196.323 456.202 196.471C456.809 197.204 465.384 205.783 469.896 205.77C469.946 205.768 469.996 205.765 470.074 205.786C470.877 205.743 471.485 205.43 471.917 204.768C472.372 204.08 472.469 203.308 472.28 202.425C471.248 197.833 462.071 192.146 461.967 192.101C461.809 192.007 461.771 191.831 461.861 191.673C461.951 191.515 462.124 191.48 462.282 191.573C462.652 191.809 471.748 197.423 472.849 202.267C473.099 203.3 472.939 204.254 472.418 205.073C471.896 205.893 471.122 206.343 470.117 206.397C470.04 206.375 469.939 206.381 469.889 206.384Z" fill="#292526"/>
<path fill-rule="evenodd" clip-rule="evenodd" d="M464.832 185.07C468.792 186.784 477.177 192.695 474.727 197.524C472.093 202.664 461.048 192.612 459.969 190.689C458.729 188.515 462.948 184.273 464.832 185.07Z" fill="#FC9C84"/>
<path fill-rule="evenodd" clip-rule="evenodd" d="M466.11 185.691C466.11 185.691 477.976 192.65 474.711 197.544C471.446 202.439 460.786 191.502 460.096 190.642L466.11 185.691Z" fill="#FC9C84"/>
<path d="M472.305 199.105C467.699 199.114 460.41 191.547 459.862 190.815C459.767 190.681 459.788 190.51 459.928 190.397C460.068 190.284 460.256 190.31 460.352 190.444C460.852 191.085 468.093 198.513 472.323 198.5C472.37 198.494 472.417 198.489 472.441 198.51C473.31 198.481 474.011 198.109 474.474 197.379C474.96 196.623 475.116 195.808 474.896 194.893C473.914 190.665 466.042 186.013 465.971 185.949C465.829 185.869 465.78 185.682 465.873 185.526C465.965 185.371 466.129 185.328 466.295 185.429C466.626 185.631 474.474 190.262 475.505 194.725C475.751 195.806 475.596 196.814 475.017 197.678C474.415 198.569 473.597 199.026 472.516 199.056C472.399 199.094 472.352 199.1 472.305 199.105Z" fill="#292526"/>
<path d="M635.337 239.265C635.307 239.265 635.277 239.265 635.277 239.265C635.127 239.235 635.008 239.055 635.068 238.905L647.323 188.311C647.353 188.161 647.533 188.041 647.683 188.101C647.832 188.131 647.952 188.311 647.892 188.461L635.637 239.055C635.607 239.175 635.487 239.265 635.337 239.265Z" fill="#292526"/>
</g>
<defs>
<clipPath id="clip0_115_6372">
<rect width="980" height="718" fill="white"/>
</clipPath>
</defs>
</svg>
