<svg width="40" height="40" viewBox="0 0 40 40" fill="none" xmlns="http://www.w3.org/2000/svg">
<g clip-path="url(#clip0_52:2856)">
<path d="M12.2805 24.2502V6.0835C12.2805 4.98066 11.3833 4.0835 10.2805 4.0835H5.94714C4.84431 4.0835 3.94714 4.98066 3.94714 6.0835V7.48133C3.94714 7.8495 4.24564 8.148 4.61381 8.148C4.98198 8.148 5.28048 7.8495 5.28048 7.48133V6.0835C5.28048 5.71591 5.57956 5.41683 5.94714 5.41683H10.2805C10.6481 5.41683 10.9471 5.71591 10.9471 6.0835V18.5835H7.49281C7.12464 18.5835 6.82614 18.882 6.82614 19.2502C6.82614 19.6183 7.12464 19.9168 7.49281 19.9168H10.9471V24.2502C10.9471 24.6177 10.6481 24.9168 10.2805 24.9168H5.94714C5.57956 24.9168 5.28048 24.6177 5.28048 24.2502V11.7502H8.61914C8.98731 11.7502 9.28581 11.4517 9.28581 11.0835C9.28581 10.7153 8.98731 10.4168 8.61914 10.4168H4.61381C4.24564 10.4168 3.94714 10.7153 3.94714 11.0835V24.2502C3.94714 25.353 4.84431 26.2502 5.94714 26.2502H10.2805C11.3832 26.2502 12.2805 25.353 12.2805 24.2502Z" fill="#008181"/>
<path d="M39.3718 22.8248L34.957 13.6667C34.3185 12.3422 32.7213 11.7841 31.3969 12.4226L29.7639 13.2098L30.7533 11.6908C31.5576 10.4559 31.2094 8.80542 29.9742 8.001L21.4552 2.45217C20.2234 1.64983 18.5679 1.99917 17.7653 3.23133L17.3596 3.85425C17.1587 4.16275 17.2459 4.57575 17.5545 4.77675C17.863 4.97767 18.276 4.8905 18.4769 4.58192L18.8826 3.959C19.2837 3.343 20.1114 3.16817 20.7276 3.56942L29.2466 9.118C29.8642 9.52025 30.0384 10.3453 29.6362 10.9629L27.4446 14.3278C14.0535 20.7832 14.886 20.3753 14.8091 20.4306C14.6699 20.5302 14.5714 20.6828 14.5411 20.8569C14.5247 20.9502 14.5306 20.1959 14.5306 32.2499C14.5306 35.7881 11.6521 38.6666 8.11389 38.6666C4.57573 38.6666 1.69722 35.7881 1.69722 32.2499V2.66667C1.69722 1.93142 2.29539 1.33333 3.03056 1.33333H13.1972C13.9324 1.33333 14.5306 1.93142 14.5306 2.66667V16.5564C14.5306 16.9246 14.8291 17.2231 15.1972 17.2231C15.5654 17.2231 15.8639 16.9246 15.8639 16.5564V15.1596L16.928 13.5259L19.3021 15.0723C19.4145 15.1454 19.5406 15.1803 19.6654 15.1803C20.3273 15.1803 20.5841 14.316 20.0299 13.9549L17.6557 12.4086L20.0207 8.7775C20.2214 8.46933 20.6338 8.38117 20.9431 8.58275L24.5741 10.9478C24.883 11.1488 24.9701 11.5613 24.769 11.8702L23.9401 13.1428C23.7391 13.4513 23.8264 13.8643 24.1349 14.0653C24.4434 14.2663 24.8564 14.1791 25.0573 13.8705L25.8861 12.5979C26.4895 11.6717 26.2282 10.4338 25.3018 9.8305L21.6708 7.46558C20.7448 6.86233 19.5068 7.12358 18.9034 8.04992L15.8639 12.7165V2.66667C15.8639 1.19625 14.6676 0 13.1972 0H3.03056C1.56014 0 0.363892 1.19625 0.363892 2.66667V32.25C0.363892 36.5233 3.84056 40 8.11389 40C12.2418 40 15.6259 36.7559 15.8516 32.6834C16.2946 32.7762 16.739 32.7177 17.1296 32.5293L33.4941 24.6406C34.4897 24.1607 34.9074 22.9664 34.4271 21.9705L32.5455 18.067C32.0665 17.0736 30.8686 16.6552 29.8754 17.1339L18.0149 22.8514C17.6832 23.0113 17.544 23.4098 17.7039 23.7414L19.5242 27.5176C19.6841 27.8493 20.0826 27.9885 20.4143 27.8286C20.7459 27.6688 20.8851 27.2703 20.7253 26.9386L19.1945 23.7629L30.4543 18.3349C30.7856 18.1753 31.1848 18.3148 31.3445 18.6459L33.2261 22.5494C33.3861 22.8813 33.2471 23.2794 32.9151 23.4394L29.0116 25.3212L27.6843 22.5677C27.5244 22.2361 27.1258 22.0968 26.7943 22.2568C26.4626 22.4166 26.3234 22.8151 26.4833 23.1467L27.8106 25.9002L16.5506 31.3283C16.3232 31.4378 16.0584 31.4071 15.8638 31.2631V21.3907L31.976 13.6236C32.6383 13.3043 33.4367 13.5834 33.7561 14.2457L38.1709 23.4038C38.4901 24.066 38.2111 24.8646 37.5488 25.1838L19.5346 33.8678C19.203 34.0277 19.0637 34.4262 19.2236 34.7578C19.3386 34.9962 19.5766 35.1352 19.8246 35.1352C20.0603 35.1352 18.8775 35.6649 38.1277 26.3849C39.4522 25.7463 40.0103 24.1493 39.3718 22.8248Z" fill="#008181"/>
<path d="M8.11381 34.0835C7.10289 34.0835 6.28048 33.2611 6.28048 32.2502C6.28048 31.882 5.98198 31.5835 5.61381 31.5835C5.24564 31.5835 4.94714 31.882 4.94714 32.2502C4.94714 33.9962 6.36773 35.4168 8.11381 35.4168C9.85989 35.4168 11.2805 33.9962 11.2805 32.2502C11.2805 30.5041 9.85989 29.0835 8.11381 29.0835C7.74564 29.0835 7.44714 29.382 7.44714 29.7502C7.44714 30.1183 7.74564 30.4168 8.11381 30.4168C9.12472 30.4168 9.94714 31.2392 9.94714 32.2502C9.94714 33.2611 9.12464 34.0835 8.11381 34.0835Z" fill="#008181"/>
</g>
<defs>
<clipPath id="clip0_52:2856">
<rect width="40" height="40" fill="white"/>
</clipPath>
</defs>
</svg>
