<svg width="40" height="40" viewBox="0 0 40 40" fill="none" xmlns="http://www.w3.org/2000/svg">
<path d="M4.66653 2.66675H3.99989C3.63169 2.66675 3.33325 2.96519 3.33325 3.33339C3.33325 3.70159 3.63169 4.00011 3.99989 4.00011H4.66653C5.03474 4.00011 5.33317 3.70167 5.33317 3.33347C5.33317 2.96526 5.03474 2.66675 4.66653 2.66675Z" fill="#EC9B00"/>
<path d="M8.00003 2.66675H7.33339C6.96519 2.66675 6.66675 2.96519 6.66675 3.33339C6.66675 3.70159 6.96526 4.00003 7.33339 4.00003H8.00003C8.36823 4.00003 8.66667 3.70159 8.66667 3.33339C8.66667 2.96519 8.36823 2.66675 8.00003 2.66675Z" fill="#EC9B00"/>
<path d="M11.3333 2.66675H10.6666C10.2984 2.66675 10 2.96519 10 3.33339C10 3.70159 10.2984 4.00003 10.6666 4.00003H11.3333C11.7015 4.00003 11.9999 3.70159 11.9999 3.33339C11.9999 2.96519 11.7014 2.66675 11.3333 2.66675Z" fill="#EC9B00"/>
<path d="M32.0001 2.66675H14.0001C13.6319 2.66675 13.3335 2.96519 13.3335 3.33339C13.3335 3.70159 13.6319 4.00003 14.0001 4.00003H32.0001C32.3683 4.00003 32.6668 3.70159 32.6668 3.33339C32.6668 2.96519 32.3683 2.66675 32.0001 2.66675Z" fill="#EC9B00"/>
<path d="M38.6666 24H38V20.6666C37.9995 18.8 37.2837 17.0045 36 15.6493V3.33336C35.9978 1.49328 34.5067 0.0021875 32.6666 0H3.33336C1.49328 0.0021875 0.0021875 1.49328 0 3.33336V30C0.0021875 31.84 1.49328 33.3311 3.33336 33.3334H21.3334V35.3334C21.3363 37.9095 23.4239 39.9971 26 40H35.3334C37.9095 39.997 39.9971 37.9095 40 35.3334V25.3334C40 24.597 39.403 24 38.6666 24ZM36.6666 20.6666V24H24.6666V20.6666C24.6666 17.353 27.353 14.6666 30.6666 14.6666C33.9803 14.6666 36.6666 17.353 36.6666 20.6666ZM1.33336 3.33336C1.33336 2.22883 2.22883 1.33336 3.33336 1.33336H32.6667C33.7713 1.33336 34.6667 2.22883 34.6667 3.33336V5.33336H1.33336V3.33336ZM21.3334 25.3334V32H3.33336C2.22883 32 1.33336 31.1045 1.33336 30V6.66664H34.6667V14.528C32.4145 13.0547 29.5356 12.9353 27.1691 14.2171C24.8027 15.4989 23.3298 17.9753 23.3334 20.6666V24H22.6667C21.9303 24 21.3334 24.597 21.3334 25.3334ZM38.6666 26.6666H36.6666C36.2984 26.6666 36 26.9651 36 27.3333C36 27.7015 36.2984 27.9999 36.6666 27.9999H38.6666V29.3333H36.6666C36.2984 29.3333 36 29.6317 36 29.9999C36 30.3681 36.2984 30.6666 36.6666 30.6666H38.6666V32H36.6666C36.2984 32 36 32.2984 36 32.6666C36 33.0348 36.2984 33.3333 36.6666 33.3333H38.6666V34.6666H36.6666C36.2984 34.6666 36 34.9652 36 35.3333C36 35.7015 36.2984 35.9999 36.6666 35.9999H38.6C38.281 37.5509 36.9167 38.6646 35.3334 38.6666H26C24.4166 38.6645 23.0523 37.5509 22.7334 35.9999H24.6667C25.0349 35.9999 25.3334 35.7014 25.3334 35.3333C25.3334 34.9651 25.0349 34.6666 24.6667 34.6666H22.6667V33.3333H24.6667C25.0349 33.3333 25.3334 33.0348 25.3334 32.6666C25.3334 32.2984 25.0349 32 24.6667 32H22.6667V30.6666H24.6667C25.0349 30.6666 25.3334 30.3682 25.3334 30C25.3334 29.6318 25.0349 29.3334 24.6667 29.3334H22.6667V28H24.6667C25.0349 28 25.3334 27.7016 25.3334 27.3334C25.3334 26.9652 25.0349 26.6667 24.6667 26.6667H22.6667V25.3334H38.6667V26.6666H38.6666Z" fill="#EC9B00"/>
<path d="M30.0001 32.5438V33.9999C30.0001 34.3681 30.2986 34.6665 30.6668 34.6665C31.035 34.6665 31.3334 34.3681 31.3334 33.9999V32.5438C32.2511 32.2206 32.8018 31.2826 32.637 30.3237C32.4721 29.3648 31.6397 28.6646 30.6668 28.6665C29.6938 28.6646 28.8614 29.3649 28.6965 30.3237C28.5317 31.2826 29.0824 32.2206 30.0001 32.5438ZM30.6668 29.9999C31.035 29.9999 31.3334 30.2984 31.3334 30.6665C31.3334 31.0347 31.0349 31.3331 30.6668 31.3331C30.2985 31.3331 30.0001 31.0346 30.0001 30.6665C30.0001 30.2984 30.2986 29.9999 30.6668 29.9999Z" fill="#EC9B00"/>
<path d="M11.3334 13.3335C10.9652 13.3335 10.6667 13.6319 10.6667 14.0001V16.0001H5.33336V10.6668H8C8.3682 10.6668 8.66664 10.3683 8.66664 10.0001C8.66664 9.63193 8.3682 9.3335 8 9.3335H5.33336C4.59695 9.3335 4 9.93045 4 10.6669V16.0001C4 16.7365 4.59695 17.3335 5.33336 17.3335H10.6667C11.4031 17.3335 12.0001 16.7365 12.0001 16.0001V14.0001C12 13.6319 11.7015 13.3335 11.3334 13.3335Z" fill="#EC9B00"/>
<path d="M7.13787 12.1954C6.8763 11.9427 6.46045 11.9463 6.20334 12.2035C5.94615 12.4607 5.94255 12.8765 6.19521 13.138L7.52857 14.4714C7.65357 14.5964 7.8231 14.6667 7.9999 14.6667H8.0299C8.21693 14.6584 8.39185 14.5718 8.51193 14.428L11.8453 10.428C11.9979 10.2452 12.0415 9.99469 11.9594 9.77094C11.8772 9.54727 11.6821 9.38438 11.4473 9.34359C11.2126 9.30281 10.9739 9.39039 10.8212 9.57336L7.95459 13.0134L7.13787 12.1954Z" fill="#EC9B00"/>
<path d="M11.3334 24.6664C10.9652 24.6664 10.6667 24.9649 10.6667 25.3331V27.3331H5.33336V21.9998H8C8.3682 21.9998 8.66664 21.7013 8.66664 21.3331C8.66664 20.9649 8.3682 20.6665 8 20.6665H5.33336C4.59695 20.6665 4 21.2635 4 21.9999V27.3332C4 28.0696 4.59695 28.6666 5.33336 28.6666H10.6667C11.4031 28.6666 12.0001 28.0696 12.0001 27.3332V25.3332C12 24.9649 11.7015 24.6664 11.3334 24.6664Z" fill="#EC9B00"/>
<path d="M7.13787 23.5286C6.8763 23.2759 6.46045 23.2795 6.20334 23.5367C5.94615 23.7939 5.94255 24.2097 6.19521 24.4712L7.52857 25.8046C7.65357 25.9296 7.8231 25.9999 7.9999 25.9999H8.0299C8.21693 25.9915 8.39185 25.905 8.51193 25.7612L11.8453 21.7612C11.9979 21.5783 12.0415 21.3279 11.9594 21.1042C11.8772 20.8805 11.6821 20.7176 11.4473 20.6768C11.2126 20.6361 10.9739 20.7236 10.8212 20.9066L7.95459 24.3466L7.13787 23.5286Z" fill="#EC9B00"/>
<path d="M14.6666 11.3334H20C20.3682 11.3334 20.6666 11.0349 20.6666 10.6667C20.6666 10.2985 20.3682 10 20 10H14.6666C14.2984 10 14 10.2984 14 10.6666C14 11.0348 14.2985 11.3334 14.6666 11.3334Z" fill="#EC9B00"/>
<path d="M24 14.0001C24 13.6319 23.7016 13.3335 23.3334 13.3335H14.6666C14.2984 13.3335 14 13.6319 14 14.0001C14 14.3683 14.2984 14.6668 14.6666 14.6668H23.3333C23.7016 14.6668 24 14.3683 24 14.0001Z" fill="#EC9B00"/>
<path d="M20 21.3335H14.6666C14.2984 21.3335 14 21.632 14 22.0001C14 22.3683 14.2984 22.6668 14.6666 22.6668H20C20.3682 22.6668 20.6666 22.3683 20.6666 22.0001C20.6666 21.6319 20.3682 21.3335 20 21.3335Z" fill="#EC9B00"/>
<path d="M19.3333 24.6667H14.6666C14.2984 24.6667 14 24.9652 14 25.3334C14 25.7016 14.2984 26 14.6666 26H19.3333C19.7015 26 19.9999 25.7016 19.9999 25.3334C19.9999 24.9652 19.7015 24.6667 19.3333 24.6667Z" fill="#EC9B00"/>
</svg>
