<svg width="40" height="40" viewBox="0 0 40 40" fill="none" xmlns="http://www.w3.org/2000/svg">
<g clip-path="url(#clip0_52:2792)">
<path d="M5.83302 6.65479C4.45231 6.65479 3.33301 7.77409 3.33301 9.15479V15.8215H4.99966V9.15479C4.99966 8.69456 5.37278 8.32143 5.83302 8.32143H25.8331V6.65479H5.83302Z" fill="#FF0071"/>
<path d="M5.83302 31.6543C5.37278 31.6543 4.99966 31.2812 4.99966 30.8209V22.4875H3.33301V30.8209C3.33301 32.2017 4.45231 33.321 5.83302 33.321H14.1664V31.6543H5.83302Z" fill="#FF0071"/>
<path d="M26.4224 33.8037L6.18401 13.5653C5.85862 13.24 5.33111 13.24 5.00564 13.5653L0.243985 18.327C-0.0813284 18.6524 -0.0813284 19.1799 0.243985 19.5054L20.4824 39.7437C20.6387 39.9001 20.8506 39.9879 21.0716 39.9879C21.2926 39.9878 21.5045 39.9 21.6607 39.7437L26.4224 34.9821C26.7478 34.6566 26.7478 34.1291 26.4224 33.8037ZM21.0716 37.9762L2.01149 18.9162L5.59487 15.3328L24.6549 34.3929L21.0716 37.9762Z" fill="#FF0071"/>
<path d="M36.6666 31.6543H24.1665V33.3209H33.3332V37.4876C33.3332 37.9478 33.7063 38.321 34.1665 38.321H36.6666C38.5075 38.321 39.9999 36.8286 39.9999 34.9876C39.9999 33.1466 38.5075 31.6543 36.6666 31.6543ZM36.6666 36.6543H34.9999V33.3209H36.6666C37.587 33.3209 38.3332 34.0671 38.3332 34.9876C38.3332 35.9081 37.587 36.6543 36.6666 36.6543Z" fill="#FF0071"/>
<path d="M36.6665 6.65479H32.4999V8.32143H36.6665C37.587 8.32143 38.3332 9.06761 38.3332 9.98808V34.9882H39.9998V9.98808C39.9999 8.14714 38.5075 6.65479 36.6665 6.65479Z" fill="#FF0071"/>
<path d="M15.2443 23.5652L12.7441 26.0654L13.9226 27.2439L16.4228 24.7437L15.2443 23.5652Z" fill="#FF0071"/>
<path d="M11.9111 20.2325L9.41089 22.7327L10.5894 23.9111L13.0896 21.4109L11.9111 20.2325Z" fill="#FF0071"/>
<path d="M18.5759 26.8987L16.0757 29.3989L17.2542 30.5774L19.7544 28.0772L18.5759 26.8987Z" fill="#FF0071"/>
<path d="M21.9109 30.2339L19.4106 32.7341L20.5891 33.9126L23.0894 31.4124L21.9109 30.2339Z" fill="#FF0071"/>
<path d="M8.57541 16.8987L6.0752 19.3989L7.25368 20.5774L9.75389 18.0772L8.57541 16.8987Z" fill="#FF0071"/>
<path d="M35.9449 1.86104L34.7932 0.709397C33.8187 -0.220841 32.2851 -0.220841 31.3107 0.709397L18.639 13.3811C18.3137 13.7065 18.3137 14.234 18.639 14.5595L22.0949 18.0153C22.2507 18.1722 22.4629 18.2601 22.684 18.2595C22.905 18.2594 23.1169 18.1716 23.2732 18.0153L35.9449 5.34356C35.9453 5.34317 35.9457 5.34277 35.9461 5.34238C36.9071 4.38074 36.9065 2.82206 35.9449 1.86104ZM34.7674 4.16441L22.684 16.2477L20.4065 13.9702L32.4899 1.88768C32.8046 1.58698 33.3002 1.58698 33.6149 1.88768L34.7674 3.03855C34.7675 3.0387 34.7676 3.03878 34.7678 3.03894C35.0784 3.3498 35.0783 3.85371 34.7674 4.16441Z" fill="#FF0071"/>
<path d="M22.4165 16.6362L18.8199 17.8371L20.0207 14.2345L18.4374 13.707L16.709 18.8912C16.6807 18.9762 16.6663 19.0652 16.6663 19.1547C16.6663 19.615 17.0395 19.988 17.4998 19.9879C17.588 19.9882 17.6757 19.9746 17.7598 19.9479L22.9439 18.2195L22.4165 16.6362Z" fill="#FF0071"/>
<path d="M30.1848 3.01292L29.0063 4.19141L32.4623 7.64736L33.6408 6.46888L30.1848 3.01292Z" fill="#FF0071"/>
<path d="M29.9998 18.3208H17.4998V19.9874H29.9998V18.3208Z" fill="#FF0071"/>
<path d="M33.3332 18.3208H31.6665V19.9874H33.3332V18.3208Z" fill="#FF0071"/>
<path d="M36.6665 18.3208H34.9999V19.9874H36.6665V18.3208Z" fill="#FF0071"/>
</g>
<defs>
<clipPath id="clip0_52:2792">
<rect width="40" height="40" fill="white"/>
</clipPath>
</defs>
</svg>
