<svg width="50" height="51" viewBox="0 0 50 51" fill="none" xmlns="http://www.w3.org/2000/svg">
<g clip-path="url(#clip0_40_3696)">
<path fill-rule="evenodd" clip-rule="evenodd" d="M4.88281 11.9949V37.3856H45.1172V11.9949H37.3177C37.315 14.1439 35.5561 15.9012 33.4064 15.9012H15.5021C13.5361 15.943 12.1048 13.7844 12.9012 11.9949H4.88281Z" fill="white"/>
<path d="M47.0703 7.11214H34.6421C33.6431 -0.851613 22.7581 -2.53862 19.4104 4.79086C17.8023 4.97201 16.4018 5.84876 15.5176 7.11214H2.92968C1.31426 7.11214 0 8.4264 0 10.0418V39.3387C0 40.9542 1.31426 42.2684 2.92968 42.2684H19.9615L18.3915 48.1281H17.1876C15.8981 48.1738 15.8898 50.032 17.1876 50.0812H32.8124C34.102 50.0354 34.1102 48.1773 32.8124 48.1281H31.6086L30.0386 42.2684H47.0704C48.6858 42.2684 50.0001 40.9542 50.0001 39.3387V10.0418C50 8.4264 48.6857 7.11214 47.0703 7.11214ZM20.0311 6.70921C20.4614 6.73099 20.8603 6.46722 21.0036 6.0596C23.3399 -0.270363 32.6522 1.31655 32.747 8.07396C32.7369 8.5887 33.1312 9.02415 33.6444 9.06526C35.1565 9.18811 36.3409 10.4729 36.3409 11.9901C36.3409 13.6082 35.0244 14.9247 33.4063 14.9247H15.5023C13.0641 14.8333 13.0571 11.3322 15.5023 11.238C16.0417 11.238 16.4789 10.8007 16.4789 10.2615C16.4789 8.30267 18.0724 6.70921 20.0311 6.70921ZM25 28.5965C25.8078 28.5965 26.4649 29.2536 26.4649 30.0613C26.3913 32.0019 23.6085 32.0014 23.5352 30.0613C23.5352 29.2535 24.1923 28.5965 25 28.5965ZM2.92968 9.06526H14.6566C14.6325 9.17395 14.6115 9.28382 14.5938 9.39475C10.3005 10.5438 11.0129 16.7725 15.5023 16.8778C15.5022 16.8778 19.1406 16.8778 19.1406 16.8778V20.5057L16.8154 22.1467C14.6695 20.1477 11.078 21.7009 11.088 24.6642C11.088 26.5487 12.6213 28.082 14.5059 28.082C16.6972 28.113 18.3819 25.9398 17.8204 23.8279L20.6802 21.8095C20.9395 21.6265 21.0937 21.3289 21.0937 21.0116V16.8777H24.0234V26.7854C20.3025 27.9647 21.0509 33.3956 25 33.4793C28.9496 33.3952 29.6967 27.9641 25.9765 26.7854V16.8778H28.9062V21.0117C28.9062 21.329 29.0604 21.6266 29.3197 21.8096L32.1795 23.828C31.6184 25.9399 33.3024 28.1131 35.494 28.082C37.3786 28.082 38.9119 26.5488 38.9119 24.6642C38.9215 21.7008 35.3304 20.1477 33.1845 22.1467L30.8593 20.5057V16.8778H33.4064C37.393 16.9138 39.735 12.2029 37.3111 9.06526H47.0703C47.6088 9.06526 48.0469 9.50335 48.0469 10.0418V36.4091H1.95312V10.0418C1.95312 9.50335 2.39121 9.06526 2.92968 9.06526ZM15.9709 24.6642C15.9709 25.4719 15.3137 26.1289 14.506 26.1289C12.5653 26.0553 12.566 23.2727 14.506 23.1993C15.3136 23.1993 15.9709 23.8564 15.9709 24.6642ZM35.4941 23.1993C36.3018 23.1993 36.9589 23.8564 36.9589 24.6642C36.8853 26.6047 34.1026 26.6041 34.0292 24.6642C34.0292 23.8564 34.6864 23.1993 35.4941 23.1993ZM29.5867 48.1281H20.4134L21.9834 42.2684H28.0166L29.5867 48.1281ZM47.0703 40.3153H2.92968C2.39121 40.3153 1.95312 39.8772 1.95312 39.3387V38.3622H48.0469V39.3387C48.0469 39.8771 47.6089 40.3153 47.0703 40.3153Z" fill="white"/>
</g>
<defs>
<clipPath id="clip0_40_3696">
<rect width="50" height="50" fill="white" transform="translate(0 0.0999756)"/>
</clipPath>
</defs>
</svg>
