<svg width="50" height="51" viewBox="0 0 50 51" fill="none" xmlns="http://www.w3.org/2000/svg">
<path d="M27.0272 13.0592C26.8437 12.8039 26.5486 12.6525 26.2342 12.6525H23.7652C23.4508 12.6525 23.1557 12.8039 22.9722 13.0592L12.6509 27.4183C11.641 28.8233 11.6468 30.7071 12.6654 32.1058L18.6135 40.2741H18.3213C17.7819 40.2741 17.3447 40.7113 17.3447 41.2507C17.3447 41.79 17.7819 42.2272 18.3213 42.2272H18.8703L17.0394 47.1981C16.9291 47.4977 16.9721 47.8324 17.1548 48.0942C17.3374 48.356 17.6365 48.5122 17.9558 48.5122H32.0437C32.3631 48.5122 32.6622 48.3561 32.8448 48.0942C33.0274 47.8323 33.0705 47.4977 32.9601 47.1981L31.1293 42.2272H31.6783C32.2176 42.2272 32.6549 41.79 32.6549 41.2507C32.6549 40.7113 32.2176 40.2741 31.6783 40.2741H31.386L37.3341 32.1058C38.3527 30.7071 38.3586 28.8233 37.3486 27.4183L27.0272 13.0592ZM19.3561 46.5591L20.9515 42.2272H29.0477L30.6431 46.5591H19.3561ZM35.7551 30.9561L28.9697 40.2741H21.0296L14.2442 30.9561C13.7232 30.2406 13.7202 29.277 14.2368 28.5582L24.2658 14.6057H25.7334L35.7624 28.5582C36.2792 29.2769 36.2761 30.2406 35.7551 30.9561Z" fill="white"/>
<path d="M22.2085 5.86464C22.7422 5.787 23.1119 5.29139 23.0344 4.7577C23.0091 4.58387 22.9394 4.42743 22.8385 4.29813C22.6929 3.94178 22.3429 3.69061 21.9342 3.69061H5.07744C4.53809 3.69061 4.10088 4.12782 4.10088 4.66718C4.10088 5.20653 4.53809 5.64374 5.07744 5.64374H16.1534C13.4315 6.89677 10.9781 8.72606 8.97519 11.0319C5.65723 14.8516 3.80439 19.7318 3.7416 24.8008C2.12939 25.2332 0.938477 26.7117 0.938477 28.4641C0.938477 30.5546 2.6332 32.2554 4.7165 32.2554C6.7998 32.2554 8.49453 30.5546 8.49453 28.4641C8.49453 26.713 7.30547 25.2353 5.69502 24.8016C5.82461 15.3376 12.8802 7.22167 22.2085 5.86464ZM6.54131 28.4641C6.54131 29.4776 5.72266 30.3022 4.71641 30.3022C3.71016 30.3022 2.8915 29.4776 2.8915 28.4641C2.8915 27.4505 3.71016 26.6259 4.71641 26.6259C5.72266 26.6259 6.54131 27.4505 6.54131 28.4641Z" fill="white"/>
<path d="M46.258 24.8008C46.1954 19.7506 44.3546 14.8843 41.0583 11.0709C39.05 8.74755 36.5837 6.90419 33.8458 5.64374H44.9222C45.4615 5.64374 45.8987 5.20653 45.8987 4.66718C45.8987 4.12782 45.4615 3.69061 44.9222 3.69061H28.1226C27.6542 3.69061 27.2629 4.0204 27.168 4.46044C27.1189 4.55409 27.0844 4.65741 27.0677 4.76776C26.9873 5.30106 27.3545 5.79862 27.8878 5.87889C37.161 7.27636 44.175 15.3857 44.3046 24.8016C42.6941 25.2353 41.5051 26.7129 41.5051 28.4641C41.5051 30.5546 43.1998 32.2554 45.2831 32.2554C47.3664 32.2554 49.0611 30.5546 49.0611 28.4641C49.0611 26.7117 47.8702 25.2332 46.258 24.8008ZM45.2831 30.3022C44.2768 30.3022 43.4582 29.4776 43.4582 28.4641C43.4582 27.4505 44.2768 26.6259 45.2831 26.6259C46.2893 26.6259 47.108 27.4505 47.108 28.4641C47.108 29.4776 46.2893 30.3022 45.2831 30.3022Z" fill="white"/>
<path d="M5.93066 7.64648H0.000195026V1.68779H5.93066V7.64648Z" fill="white"/>
<path d="M50 7.64648H44.0695V1.68779H50V7.64648Z" fill="white"/>
<path d="M27.9658 7.64648H22.0353V1.68779H27.9658V7.64648Z" fill="white"/>
<path d="M25.0001 32.3811C26.9256 32.3811 28.4865 30.8128 28.4865 28.8781C28.4865 26.9434 26.9256 25.3751 25.0001 25.3751C23.0746 25.3751 21.5137 26.9434 21.5137 28.8781C21.5137 30.8128 23.0746 32.3811 25.0001 32.3811Z" fill="white"/>
</svg>
