<svg width="50" height="51" viewBox="0 0 50 51" fill="none" xmlns="http://www.w3.org/2000/svg">
<g clip-path="url(#clip0_40_3683)">
<path d="M38.0651 14.6436C37.7925 14.6436 37.5272 14.6758 37.273 14.7364L36.2351 12.9388C36.0607 12.6366 35.7382 12.4505 35.3894 12.4505H27.8375C26.5456 12.4974 26.5419 14.3552 27.8375 14.4036H34.8255L35.5825 15.7147C33.5357 17.8488 35.0769 21.4883 38.0652 21.4795C42.593 21.3078 42.5921 14.8148 38.0651 14.6436ZM38.0651 19.5264C37.2574 19.5264 36.6003 18.8693 36.6003 18.0616C36.6738 16.121 39.4567 16.1215 39.53 18.0616C39.53 18.8693 38.8728 19.5264 38.0651 19.5264Z" fill="white"/>
<path d="M45.6574 0.0999904C42.6683 0.0914944 41.1282 3.73131 43.1748 5.86469L42.4178 7.17601H28.9844C28.4451 7.17601 28.0078 7.61331 28.0078 8.15256C28.0078 8.69182 28.4451 9.12912 28.9844 9.12912H42.9815C43.3305 9.12912 43.6528 8.94299 43.8272 8.64084L44.8651 6.843C46.9687 7.37073 49.1043 5.69223 49.0752 3.51783C49.0753 1.63328 47.542 0.0999904 45.6574 0.0999904ZM45.6574 4.98267C44.8497 4.98267 44.1926 4.32554 44.1926 3.51793C44.2662 1.57732 47.0489 1.57781 47.1222 3.51793C47.1222 4.32564 46.4651 4.98267 45.6574 4.98267Z" fill="white"/>
<path d="M4.32036 6.93578C4.59301 6.93578 4.85825 6.90365 5.11254 6.8431L6.15042 8.64084C6.32484 8.94299 6.6472 9.12912 6.99612 9.12912H14.0597C15.3517 9.08215 15.3551 7.22435 14.0597 7.17601H7.55998L6.80296 5.86479C8.84991 3.73082 7.30872 0.0912025 4.32036 0.0999915C-0.207437 0.271767 -0.206656 6.76468 4.32036 6.93578ZM4.32036 2.0531C5.12807 2.0531 5.78519 2.71022 5.78519 3.51793C5.71156 5.45845 2.92887 5.45796 2.85553 3.51793C2.85562 2.71032 3.51265 2.0531 4.32036 2.0531Z" fill="white"/>
<path d="M14.5238 12.4506H7.46021C7.11129 12.4506 6.78893 12.6367 6.61451 12.9388L5.57663 14.7365C3.47323 14.2088 1.33731 15.8873 1.36651 18.0617C1.36651 19.9464 2.8997 21.4797 4.78435 21.4797C7.7728 21.4883 9.31391 17.8486 7.26695 15.7149L8.02397 14.4038H14.5237C15.0631 14.4038 15.5003 13.9665 15.5003 13.4272C15.5003 12.888 15.0632 12.4506 14.5238 12.4506ZM4.78445 19.5265C3.97674 19.5265 3.31962 18.8694 3.31962 18.0616C3.39325 16.121 6.17594 16.1215 6.24928 18.0616C6.24928 18.8694 5.59216 19.5265 4.78445 19.5265Z" fill="white"/>
<path fill-rule="evenodd" clip-rule="evenodd" d="M12.6924 9.86553C12.6924 13.8464 15.3588 17.2856 19.1198 18.3318V9.86553C19.1198 8.56652 20.1826 7.50403 21.4814 7.50403C22.7803 7.50403 23.8429 8.56662 23.843 9.86553V18.3326C33.5637 15.4353 31.7109 1.28562 21.4813 1.07654C16.6274 1.07654 12.6924 5.01157 12.6924 9.86553Z" fill="white"/>
<path d="M38.9887 27.6556C39.0141 24.9986 35.9296 23.3854 33.7706 24.8985C32.8067 23.2807 30.5418 22.8127 29.0297 23.9011C28.1831 22.5076 26.2866 21.9369 24.8196 22.6394V9.86563C24.8196 8.02492 23.3221 6.52747 21.4814 6.52747C19.6407 6.52747 18.1433 8.02492 18.1433 9.86563L18.1434 33.0153L16.2353 32.0518L15.8335 28.6002C15.4549 24.2036 9.32812 24.3621 9.16113 28.6901V35.0376C9.16113 36.5495 9.72129 37.6858 10.9774 38.7221C11.0507 38.8008 18.0666 43.6488 18.1432 43.7178V49.1234C18.1335 49.648 18.5947 50.1105 19.1197 50.1H38.0123C38.2713 50.1 38.5196 49.9971 38.7028 49.814C38.8859 49.6308 38.9888 49.3824 38.9888 49.1234C38.9889 49.1233 38.9887 27.6556 38.9887 27.6556ZM20.0964 48.1468V43.208C20.0964 42.8885 19.9402 42.5892 19.678 42.4067L12.191 37.191C11.4168 36.5438 11.1143 35.937 11.1143 35.0376V28.6901C11.2189 26.8451 13.7495 26.8379 13.8864 28.7534C13.8875 28.77 13.889 28.7866 13.8909 28.8031L14.3561 32.7996C14.3941 33.1255 14.5931 33.4106 14.886 33.5585L18.6798 35.4742C19.2999 35.8097 20.1176 35.3086 20.0965 34.6025L20.0964 9.86582C20.0964 9.10215 20.7177 8.48077 21.4814 8.48077C22.2451 8.48077 22.8665 9.10206 22.8665 9.86582V25.6768C22.9138 26.9706 24.7722 26.9705 24.8196 25.6768C24.8094 24.4647 26.33 23.8233 27.1819 24.7C27.4449 24.963 27.5897 25.3099 27.5897 25.6768L27.5896 26.6461C27.5896 27.1854 28.0268 27.6227 28.5662 27.6226C29.1054 27.6226 29.5426 27.1854 29.5427 26.6462C29.5426 25.8824 30.164 25.261 30.9278 25.261C31.6658 25.2451 32.3289 25.9079 32.3128 26.646L32.3127 27.6559C32.3127 28.1952 32.7499 28.6325 33.2893 28.6325C33.8286 28.6325 34.2659 28.1953 34.2658 27.6559C34.3348 25.8218 36.9665 25.8211 37.0357 27.6559L37.0359 48.1471H20.0964V48.1468Z" fill="white"/>
</g>
<defs>
<clipPath id="clip0_40_3683">
<rect width="50" height="50" fill="white" transform="translate(0 0.0999756)"/>
</clipPath>
</defs>
</svg>
