<svg width="40" height="40" viewBox="0 0 40 40" fill="none" xmlns="http://www.w3.org/2000/svg">
<g clip-path="url(#clip0_118_6967)">
<path d="M33.6843 15.2101V13.6723C33.6843 9.9916 32.3818 6.57143 30.0204 4.03361C27.6002 1.42857 24.2725 0 20.6423 0H19.3734C15.7431 0 12.4154 1.42857 9.9952 4.03361C7.63385 6.57143 6.33133 9.9916 6.33133 13.6723V15.2101C3.46579 15.4034 1.18848 17.7899 1.18848 20.7059V23.1092C1.18848 26.1429 3.65907 28.6134 6.69268 28.6134H9.79352C10.3481 28.6134 10.8019 28.1597 10.8019 27.605V16.2017C10.8019 15.6471 10.3481 15.1933 9.79352 15.1933H8.34814V13.6723C8.34814 7.02521 13.0876 2.01681 19.365 2.01681H20.6339C26.9196 2.01681 31.6507 7.02521 31.6507 13.6723V15.1933H30.2053C29.6507 15.1933 29.1969 15.6471 29.1969 16.2017V27.5966C29.1969 28.1513 29.6507 28.605 30.2053 28.605H31.6171C31.2053 33.8655 27.5834 35.084 25.9028 35.3613C25.4406 33.9412 24.1044 32.916 22.533 32.916H20.012C18.0624 32.916 16.4742 34.5042 16.4742 36.4538C16.4742 38.4034 18.0624 40 20.012 40H22.5414C24.1717 40 25.5414 38.8908 25.9532 37.395C26.7767 37.2773 28.0792 36.9832 29.3734 36.2269C31.1969 35.1597 33.3565 32.9832 33.6423 28.5966C36.5246 28.4202 38.8103 26.0252 38.8103 23.1008V20.6975C38.8187 17.7899 36.5498 15.395 33.6843 15.2101ZM8.80192 26.5882H6.70949C4.78512 26.5882 3.22209 25.0252 3.22209 23.1008V20.6975C3.22209 18.7731 4.78512 17.2101 6.70949 17.2101H8.80192V26.5882ZM22.5414 37.9832H20.012C19.1717 37.9832 18.491 37.3025 18.491 36.4622C18.491 35.6218 19.1717 34.9412 20.012 34.9412H22.5414C23.3818 34.9412 24.0624 35.6218 24.0624 36.4622C24.0624 37.3025 23.3818 37.9832 22.5414 37.9832ZM36.8019 23.1008C36.8019 25.0252 35.2389 26.5882 33.3145 26.5882H31.2221V17.2101H33.3145C35.2389 17.2101 36.8019 18.7731 36.8019 20.6975V23.1008Z" fill="#004861"/>
</g>
<defs>
<clipPath id="clip0_118_6967">
<rect width="40" height="40" fill="white"/>
</clipPath>
</defs>
</svg>
