<svg width="40" height="40" viewBox="0 0 40 40" fill="none" xmlns="http://www.w3.org/2000/svg">
<g clip-path="url(#clip0_118_6919)">
<path d="M12.7087 15.5941C12.602 15.3848 12.3934 15.2474 12.1594 15.2321L6.55114 14.8581C6.26052 14.8295 5.99185 15.0095 5.88584 15.2801L1.84283 25.6126C1.73416 25.89 1.82283 26.2053 2.06017 26.3859C2.17884 26.4765 2.3215 26.5219 2.46345 26.5219C2.60407 26.5219 2.74477 26.4779 2.86344 26.3886L6.21919 23.8722L8.17308 24.2628C8.49175 24.3262 8.81034 24.1515 8.92635 23.8469C9.97564 21.0984 11.2388 18.5426 12.6794 16.2515C12.8041 16.0526 12.8154 15.8026 12.7087 15.5941ZM7.88503 22.8455L6.18786 22.5062C6.00255 22.4695 5.8092 22.5135 5.65724 22.6268L3.93804 23.916L6.94911 16.2206L10.9741 16.4886C9.81423 18.4518 8.77831 20.5836 7.88503 22.8455Z" fill="white"/>
<path d="M25.142 33.4494L24.768 27.8404C24.752 27.6058 24.6147 27.3972 24.4054 27.2904C24.1967 27.1838 23.9467 27.1944 23.7481 27.3197C21.4563 28.7603 18.9011 30.0235 16.1527 31.0728C15.8487 31.1881 15.6727 31.5067 15.7368 31.826L16.1274 33.7799L13.6109 37.135C13.4323 37.3736 13.433 37.7016 13.6136 37.9389C13.7423 38.1082 13.9402 38.2022 14.1442 38.2022C14.2256 38.2022 14.3076 38.1869 14.3875 38.1575L24.7201 34.1145C24.9907 34.0087 25.1613 33.7393 25.142 33.4494ZM16.0833 36.0605L17.3726 34.3413C17.4859 34.19 17.5299 33.9967 17.4926 33.8107L17.1533 32.1141C19.4157 31.2209 21.5469 30.1849 23.5101 29.025L23.7787 33.0494L16.0833 36.0605Z" fill="white"/>
<path d="M19.3319 20.0004H14.8402C14.5983 20.0004 14.3756 20.1317 14.2576 20.343L8.61996 30.4729C8.47333 30.7369 8.52262 31.0675 8.73996 31.2769C8.86731 31.3996 9.03457 31.4635 9.20262 31.4635C9.32129 31.4635 9.44058 31.4322 9.54722 31.3669L19.6771 25.2367C19.8764 25.1161 19.9984 24.9001 19.9984 24.6668V20.667C19.9985 20.299 19.6999 20.0004 19.3319 20.0004ZM18.6653 24.2914L11.0066 28.9264L15.2316 21.3343V21.3336H18.6653V24.2914Z" fill="white"/>
<path d="M39.9666 0.642493C39.9392 0.317887 39.6819 0.0605456 39.3573 0.0332021C39.1359 0.0158585 17.1837 -1.51671 7.68171 23.3708C7.58773 23.6168 7.64703 23.8941 7.83304 24.0801L11.0028 27.2498C11.1514 27.3985 11.3594 27.4664 11.5681 27.4385C11.7754 27.4085 11.9567 27.2832 12.0581 27.0998L15.2338 21.3336H18.6656V24.2994L12.8647 27.9617C12.6934 28.0704 12.5807 28.2504 12.5581 28.4517C12.5354 28.6531 12.606 28.8537 12.7494 28.997L15.9191 32.1668C16.0465 32.2941 16.2165 32.3621 16.3905 32.3621C16.4705 32.3621 16.5511 32.3481 16.6284 32.3181C41.5171 22.8155 39.9852 0.863194 39.9666 0.642493ZM36.4695 12.4696C34.1303 18.2572 28.7774 26.1253 16.555 30.9176L14.2818 28.6444L19.6881 25.2313C19.8814 25.1086 19.9987 24.896 19.9987 24.6673V20.6676C19.9987 20.2996 19.7 20.001 19.3321 20.001H14.8391C14.5958 20.001 14.3724 20.1336 14.2551 20.3463L11.3173 25.6805L9.08217 23.4447C17.4236 2.16506 35.2036 1.29444 38.6599 1.34311C38.6846 2.8977 38.542 7.34133 36.4695 12.4696Z" fill="white"/>
<path d="M11.4191 29.443C11.2744 29.251 11.0438 29.1577 10.8178 29.1817C10.8411 28.955 10.7478 28.725 10.5565 28.5803C9.55124 27.8204 8.25399 27.5678 6.99611 27.8864C5.66089 28.2257 4.56894 29.1363 4.00098 30.3862L0.0600032 39.0569C-0.0553082 39.3101 -0.00132435 39.6082 0.195314 39.8041C0.322657 39.9321 0.49328 39.9994 0.666638 39.9994C0.759996 39.9994 0.85398 39.9794 0.942651 39.9394L9.61335 35.9978C10.8626 35.4305 11.7732 34.3386 12.1125 33.0033C12.4318 31.7468 12.1791 30.4489 11.4191 29.443ZM10.8205 32.6754C10.5819 33.616 9.94061 34.3846 9.06203 34.7846L2.0092 37.9903L5.21495 30.9369C5.61425 30.0583 6.38354 29.417 7.32415 29.1784C7.57149 29.1157 7.82008 29.085 8.06539 29.085C8.4807 29.085 8.88664 29.1737 9.25663 29.3463L8.62203 30.4696C8.47469 30.7302 8.51937 31.0576 8.73133 31.2689C8.94328 31.4816 9.27062 31.5255 9.53061 31.3782L10.6539 30.7429C10.9272 31.3309 10.9892 32.0101 10.8205 32.6754Z" fill="white"/>
<path d="M39.9659 0.643178C39.9385 0.318572 39.6812 0.0612304 39.3566 0.0338869C39.0966 0.013184 32.917 -0.45478 25.6496 2.893C25.4516 2.98362 25.3109 3.16628 25.2722 3.38096C25.2336 3.59565 25.3029 3.81557 25.4569 3.96955L36.0295 14.5421C36.1555 14.6681 36.3255 14.7374 36.5008 14.7374C36.5401 14.7374 36.5795 14.7341 36.6188 14.7274C36.8335 14.6887 37.0154 14.5481 37.1067 14.3501C40.4552 7.08265 39.9872 0.902472 39.9659 0.643178ZM36.2848 12.9109L27.0882 3.71424C32.4084 1.4684 37.0674 1.31372 38.6599 1.34044C38.6866 2.93433 38.5366 7.57866 36.2848 12.9109Z" fill="white"/>
<path d="M29.44 10.5591C27.1982 8.31728 23.5512 8.31728 21.3093 10.5591C19.0675 12.801 19.0675 16.448 21.3093 18.6898C22.4299 19.8111 23.9025 20.3711 25.3744 20.3711C26.8469 20.3711 28.3188 19.8104 29.44 18.6898C31.6819 16.448 31.6819 12.8009 29.44 10.5591ZM28.4975 17.7472C26.7756 19.469 23.9738 19.469 22.252 17.7472C20.5301 16.0253 20.5301 13.2236 22.252 11.5017C23.1126 10.6411 24.2438 10.2105 25.3744 10.2105C26.5051 10.2105 27.6363 10.6411 28.4975 11.5017C30.2193 13.2236 30.2193 16.0253 28.4975 17.7472Z" fill="white"/>
<path d="M26.6997 15.95C25.969 16.682 24.7798 16.6813 24.0485 15.95C23.3179 15.2188 23.3179 14.0302 24.0485 13.2989C24.7791 12.5682 25.9683 12.5676 26.6997 13.2989C26.9596 13.5595 27.3823 13.5595 27.6422 13.2989C27.9028 13.0382 27.9028 12.6169 27.6422 12.3563C26.3923 11.1058 24.3565 11.1058 23.1059 12.3563C21.8553 13.6068 21.8553 15.642 23.1059 16.8926C23.7312 17.5179 24.5532 17.8305 25.3744 17.8305C26.1964 17.8305 27.0176 17.5179 27.6422 16.8926C27.9028 16.632 27.9028 16.2106 27.6422 15.95C27.3822 15.6894 26.9596 15.6894 26.6997 15.95Z" fill="white"/>
</g>
<defs>
<clipPath id="clip0_118_6919">
<rect width="40" height="40" fill="white"/>
</clipPath>
</defs>
</svg>
