<svg width="50" height="50" viewBox="0 0 50 50" fill="none" xmlns="http://www.w3.org/2000/svg">
<g clip-path="url(#clip0_40_3416)">
<path d="M34.1072 15.2122C33.3728 18.6497 30.7358 21.3836 27.3498 22.2625V25.0551H22.651V22.2625C19.2648 21.3836 16.628 18.6497 15.8936 15.2122H7.54492V36.2065H42.456V15.2122H34.1072Z" fill="white"/>
<path d="M49.0234 39.5268H47.729V12.8808C47.729 10.72 45.9711 8.96201 43.8103 8.96201H34.3435C32.7108 5.43809 29.1366 2.9873 25 2.9873C20.8634 2.9873 17.2893 5.43799 15.6565 8.96201H6.18975C4.029 8.96201 2.27109 10.7199 2.27109 12.8808V39.5268H0.976562C0.437207 39.5268 0 39.964 0 40.5033V43.438C0 45.4091 1.60361 47.0126 3.57461 47.0126H46.4253C48.3964 47.0126 49.9999 45.409 49.9999 43.438V40.5033C50 39.964 49.5627 39.5268 49.0234 39.5268ZM25 4.94043C29.5961 4.94043 33.3354 8.67373 33.3354 13.2624C33.3354 17.0526 30.773 20.3648 27.104 21.3172C26.6734 21.429 26.3729 21.8176 26.3729 22.2624V24.0784H23.6271V22.2624C23.6271 21.8176 23.3264 21.4289 22.8959 21.3172C19.227 20.3648 16.6646 17.0526 16.6646 13.2624C16.6646 8.67373 20.4039 4.94043 25 4.94043ZM4.22412 12.8808C4.22412 11.7969 5.10586 10.9151 6.18965 10.9151H14.9823C14.8052 11.6692 14.7114 12.4552 14.7114 13.2625C14.7114 17.686 17.5385 21.5824 21.6739 22.9889V25.0551C21.6739 25.5944 22.1111 26.0316 22.6505 26.0316H27.3494C27.8887 26.0316 28.326 25.5944 28.326 25.0551V22.9889C32.4614 21.5824 35.2885 17.686 35.2885 13.2625C35.2885 12.4552 35.1947 11.6693 35.0176 10.9151H43.8103C44.8941 10.9151 45.7759 11.7969 45.7759 12.8808V39.5268H4.22412V12.8808ZM1.95312 43.438V41.4799H17.8399V45.0596H3.57461C2.68057 45.0596 1.95312 44.3321 1.95312 43.438ZM19.7931 45.0596V41.4799H30.207V45.0596H19.7931ZM48.0469 43.438C48.0469 44.3321 47.3195 45.0595 46.4254 45.0595H32.1601V41.4798H48.0469V43.438Z" fill="white"/>
<path d="M24.3097 19.5276C24.5004 19.7179 24.7501 19.8131 24.9998 19.8131C25.2495 19.8131 25.4992 19.7179 25.6897 19.5276L27.8819 17.3385C28.2635 16.9574 28.264 16.3391 27.883 15.9574C27.5019 15.5757 26.8837 15.5754 26.5019 15.9565L24.9998 17.4565L23.4976 15.9565C23.1159 15.5753 22.4976 15.5759 22.1166 15.9574C21.7355 16.3391 21.7359 16.9574 22.1176 17.3385L24.3097 19.5276Z" fill="white"/>
</g>
<defs>
<clipPath id="clip0_40_3416">
<rect width="50" height="50" fill="white"/>
</clipPath>
</defs>
</svg>
