<svg width="50" height="50" viewBox="0 0 50 50" fill="none" xmlns="http://www.w3.org/2000/svg">
<g clip-path="url(#clip0_40_3431)">
<path d="M25.0009 7.21631C17.2937 7.21631 11.0459 13.4642 11.0459 21.1713C11.0459 27.2863 14.9791 32.4827 20.4536 34.3687V23.5871L21.9083 21.5233L25.0086 17.0518L28.1089 21.5233L29.5636 23.5871V34.3633C35.0301 32.4729 38.9558 27.2806 38.9558 21.1713C38.9558 13.4642 32.708 7.21631 25.0009 7.21631Z" fill="white"/>
<path d="M25 3.78965C25.5393 3.78965 25.9766 3.35244 25.9766 2.81309V0.976562C25.9766 0.437207 25.5393 0 25 0C24.4607 0 24.0234 0.437207 24.0234 0.976562V2.81309C24.0234 3.35244 24.4607 3.78965 25 3.78965Z" fill="white"/>
<path d="M45.195 20.1948H43.3584C42.8191 20.1948 42.3818 20.632 42.3818 21.1714C42.3818 21.7107 42.8191 22.1479 43.3584 22.1479H45.195C45.7343 22.1479 46.1716 21.7107 46.1716 21.1714C46.1716 20.632 45.7343 20.1948 45.195 20.1948Z" fill="white"/>
<path d="M6.64229 20.1948H4.80566C4.26641 20.1948 3.8291 20.632 3.8291 21.1714C3.8291 21.7107 4.26641 22.1479 4.80566 22.1479H6.64229C7.18154 22.1479 7.61885 21.7107 7.61885 21.1714C7.61885 20.632 7.18154 20.1948 6.64229 20.1948Z" fill="white"/>
<path d="M38.5895 6.20088L37.2909 7.49951C36.9095 7.88086 36.9095 8.49922 37.2909 8.88066C37.4816 9.07138 37.7315 9.1667 37.9814 9.1667C38.2313 9.1667 38.4812 9.07138 38.672 8.88066L39.9706 7.58203C40.3519 7.20068 40.3519 6.58232 39.9706 6.20088C39.5892 5.81943 38.9711 5.81943 38.5895 6.20088Z" fill="white"/>
<path d="M11.3288 33.462L10.0302 34.7607C9.6488 35.142 9.6488 35.7604 10.0302 36.1418C10.2209 36.3325 10.4708 36.4279 10.7207 36.4279C10.9706 36.4279 11.2205 36.3325 11.4112 36.1418L12.7098 34.8432C13.0912 34.4618 13.0912 33.8435 12.7098 33.462C12.3284 33.0807 11.7102 33.0807 11.3288 33.462Z" fill="white"/>
<path d="M38.6721 33.462C38.2906 33.0807 37.6724 33.0807 37.2909 33.462C36.9095 33.8434 36.9095 34.4617 37.2909 34.8432L38.5895 36.1418C38.7803 36.3325 39.0302 36.4279 39.2801 36.4279C39.53 36.4279 39.7799 36.3325 39.9706 36.1418C40.3519 35.7605 40.3519 35.1421 39.9706 34.7607L38.6721 33.462Z" fill="white"/>
<path d="M11.4113 6.20081C11.0299 5.81946 10.4117 5.81946 10.0302 6.20081C9.6488 6.58215 9.6488 7.20051 10.0302 7.58196L11.3288 8.88059C11.5195 9.07131 11.7694 9.16663 12.0193 9.16663C12.2692 9.16663 12.5191 9.07131 12.7098 8.88059C13.0912 8.49924 13.0912 7.88088 12.7098 7.49944L11.4113 6.20081Z" fill="white"/>
<path d="M28.8988 20.9607C28.8987 20.9606 28.8987 20.9605 28.8986 20.9604L25.8028 16.4953C25.6204 16.2321 25.3206 16.0752 25.0003 16.0752C24.68 16.0752 24.3802 16.2321 24.1978 16.4953L21.102 20.9604C21.1019 20.9605 21.1019 20.9606 21.1018 20.9607L19.6471 23.0245C19.5311 23.1892 19.4688 23.3856 19.4688 23.5871V49.0233C19.4688 49.5627 19.9061 49.9999 20.4453 49.9999H29.5554C30.0946 49.9999 30.5319 49.5627 30.5319 49.0233V23.5871C30.5319 23.3856 30.4696 23.1892 30.3536 23.0245L28.8988 20.9607ZM21.4218 23.8967L22.4063 22.4999H27.5941L28.5787 23.8967V25.4434C28.3488 25.3817 28.0993 25.3443 27.8323 25.3443C26.3639 25.3443 25.6091 25.9117 25.0002 26.6357C24.3913 25.9117 23.6365 25.3443 22.1681 25.3443C21.9011 25.3443 21.6517 25.3817 21.4217 25.4434V23.8967H21.4218ZM21.4218 27.5992C21.6013 27.4584 21.8714 27.2975 22.1682 27.2975C23.0871 27.2975 23.2696 27.5465 23.9489 28.4731C24.0348 28.5901 24.1243 28.7123 24.2196 28.8392C24.4041 29.0847 24.6933 29.229 25.0002 29.229C25.3071 29.229 25.5963 29.0847 25.7808 28.8392C25.8762 28.7124 25.9657 28.5902 26.0515 28.4731C26.7308 27.5466 26.9133 27.2975 27.8322 27.2975C28.129 27.2975 28.3991 27.4584 28.5786 27.5992V43.0457H21.4217V27.5992H21.4218ZM25.0003 18.7656L26.2353 20.5468H23.7654L25.0003 18.7656ZM21.4218 48.0468V44.9988H28.5787V48.0468H21.4218Z" fill="white"/>
</g>
<defs>
<clipPath id="clip0_40_3431">
<rect width="50" height="50" fill="white"/>
</clipPath>
</defs>
</svg>
