<svg width="50" height="50" viewBox="0 0 50 50" fill="none" xmlns="http://www.w3.org/2000/svg">
<path d="M17.1854 25.5824H0.976562C0.437207 25.5824 0 25.1451 0 24.6059V0.976562C0 0.437305 0.437207 0 0.976562 0H24.6058C25.1451 0 25.5823 0.437305 25.5823 0.976562V15.8598C25.5823 16.399 25.145 16.8363 24.6058 16.8363C24.0665 16.8363 23.6292 16.399 23.6292 15.8598V1.95312H1.95312V23.6293H17.1854C17.7248 23.6293 18.162 24.0666 18.162 24.6059C18.162 25.1451 17.7247 25.5824 17.1854 25.5824Z" fill="white"/>
<path d="M36.8148 25.4006V16.3561C36.8148 14.6049 35.3952 13.1853 33.644 13.1853H16.3563C14.6052 13.1853 13.1855 14.6049 13.1855 16.3561V33.6438C13.1855 35.395 14.6052 36.8146 16.3563 36.8146H25.4009C25.6045 30.6029 30.6031 25.6042 36.8148 25.4006Z" fill="white"/>
<path d="M37.2193 49.9999H37.199C30.1516 49.9999 24.418 44.2663 24.418 37.2188V37.1985C24.418 30.1511 30.1516 24.4175 37.199 24.4175H37.2193C44.2668 24.4175 50.0004 30.1511 50.0004 37.1985V37.2188C50.0004 44.2663 44.2668 49.9999 37.2193 49.9999ZM37.199 26.3706C31.2284 26.3706 26.3711 31.2279 26.3711 37.1985V37.2188C26.3711 43.1895 31.2284 48.0468 37.199 48.0468H37.2193C43.1899 48.0468 48.0473 43.1895 48.0473 37.2188V37.1985C48.0473 31.2279 43.1899 26.3706 37.2193 26.3706H37.199Z" fill="white"/>
</svg>
