<svg width="50" height="50" viewBox="0 0 50 50" fill="none" xmlns="http://www.w3.org/2000/svg">
<g clip-path="url(#clip0_154_1694)">
<path d="M24.1589 49.9997H25.8409L32.872 41.2254C33.3908 40.5037 33.3879 39.5305 32.8646 38.812L28.0429 32.1907H21.9569L17.1352 38.812C16.612 39.5305 16.609 40.5037 17.1278 41.2254L24.1589 49.9997Z" fill="#B2F0FB"/>
<path d="M24.9995 37.2566C23.1515 37.2566 21.6479 38.7652 21.6479 40.6196C21.6479 42.474 23.1515 43.9825 24.9995 43.9825C26.8476 43.9825 28.3511 42.474 28.3511 40.6196C28.3511 38.7652 26.8476 37.2566 24.9995 37.2566ZM24.9995 42.0292C24.2284 42.0292 23.6011 41.3968 23.6011 40.6195C23.6011 39.8421 24.2284 39.2096 24.9995 39.2096C25.7706 39.2096 26.3979 39.8421 26.3979 40.6195C26.3979 41.3968 25.7706 42.0292 24.9995 42.0292Z" fill="#020288"/>
<path d="M24.9984 -0.00012207C16.8427 -0.00012207 10.2075 6.63503 10.2075 14.7908C10.2075 21.6121 14.8771 27.5241 21.4226 29.1465V31.2142H20.4488C19.9096 31.2142 19.4723 31.6515 19.4723 32.1908C19.4723 32.7301 19.9096 33.1674 20.4488 33.1674H29.548C30.0873 33.1674 30.5246 32.7301 30.5246 32.1908C30.5246 31.6515 30.0873 31.2142 29.548 31.2142H28.5743V29.1465C35.1196 27.5241 39.7893 21.6121 39.7893 14.7908C39.7893 6.63503 33.1542 -0.00012207 24.9984 -0.00012207V-0.00012207ZM27.4151 27.4016C26.9545 27.4892 26.6212 27.892 26.6212 28.3609V31.2142H23.3757V28.3609C23.3757 27.892 23.0424 27.4892 22.5817 27.4016C16.5434 26.2519 12.1606 20.9483 12.1606 14.7908C12.1606 7.71209 17.9197 1.953 24.9984 1.953C32.0771 1.953 37.8362 7.71209 37.8362 14.7908C37.8362 20.9483 33.4535 26.2518 27.4151 27.4016Z" fill="#020288"/>
<path d="M29.3144 15.9771C28.7751 15.9771 28.3378 16.4144 28.3378 16.9536C28.3378 17.6045 27.8082 18.1341 27.1572 18.1341C26.5064 18.1341 25.9768 17.6045 25.9768 16.9536C25.9768 16.4144 25.5395 15.9771 25.0002 15.9771C24.4609 15.9771 24.0236 16.4144 24.0236 16.9536C24.0236 17.6045 23.494 18.1341 22.8432 18.1341C22.1922 18.1341 21.6626 17.6045 21.6626 16.9536C21.6626 16.4144 21.2253 15.9771 20.686 15.9771C20.1468 15.9771 19.7095 16.4144 19.7095 16.9536C19.7095 18.6814 21.1152 20.0872 22.8432 20.0872C23.2606 20.0872 23.6591 20.0052 24.0236 19.8563V22.6581C24.0236 23.1974 24.4609 23.6347 25.0002 23.6347C25.5395 23.6347 25.9768 23.1974 25.9768 22.6581V19.8563C26.3413 20.0051 26.7399 20.0872 27.1572 20.0872C28.8852 20.0872 30.2909 18.6814 30.2909 16.9536C30.2909 16.4144 29.8536 15.9771 29.3144 15.9771Z" fill="#020288"/>
<path d="M37.295 3.39294C37.545 3.39294 37.7948 3.29753 37.9855 3.10691L39.4255 1.66697C39.8068 1.28562 39.8068 0.667261 39.4255 0.285815C39.044 -0.0954346 38.4259 -0.0954346 38.0443 0.285815L36.6044 1.72576C36.223 2.1071 36.223 2.72546 36.6044 3.10691C36.7952 3.29763 37.0451 3.39294 37.295 3.39294Z" fill="#020288"/>
<path d="M12.014 26.3153L10.5741 27.7553C10.1927 28.1366 10.1927 28.755 10.5741 29.1364C10.7648 29.327 11.0147 29.4224 11.2646 29.4224C11.5145 29.4224 11.7644 29.327 11.9552 29.1364L13.3951 27.6965C13.7764 27.3151 13.7764 26.6968 13.3951 26.3153C13.0137 25.934 12.3956 25.934 12.014 26.3153Z" fill="#020288"/>
<path d="M37.9831 26.3155C37.6016 25.9342 36.9835 25.9342 36.6019 26.3155C36.2206 26.6968 36.2206 27.3152 36.6019 27.6966L38.0419 29.1366C38.2326 29.3272 38.4825 29.4226 38.7324 29.4226C38.9823 29.4226 39.2322 29.3272 39.4229 29.1366C39.8043 28.7552 39.8043 28.1369 39.4229 27.7554L37.9831 26.3155Z" fill="#020288"/>
<path d="M12.014 3.10706C12.2048 3.29768 12.4547 3.39309 12.7046 3.39309C12.9545 3.39309 13.2044 3.29768 13.3951 3.10706C13.7764 2.72571 13.7764 2.10735 13.3951 1.7259L11.9552 0.28606C11.5738 -0.0951904 10.9556 -0.0951904 10.5741 0.28606C10.1927 0.667407 10.1927 1.28577 10.5741 1.66721L12.014 3.10706Z" fill="#020288"/>
<path d="M43.5598 13.8274H41.9141C41.3748 13.8274 40.9375 14.2647 40.9375 14.804C40.9375 15.3432 41.3748 15.7805 41.9141 15.7805H43.5598C44.099 15.7805 44.5363 15.3432 44.5363 14.804C44.5363 14.2647 44.099 13.8274 43.5598 13.8274Z" fill="#020288"/>
<path d="M8.08613 13.8274H6.44043C5.90117 13.8274 5.46387 14.2647 5.46387 14.804C5.46387 15.3432 5.90117 15.7805 6.44043 15.7805H8.08613C8.62539 15.7805 9.0627 15.3432 9.0627 14.804C9.0627 14.2647 8.62539 13.8274 8.08613 13.8274Z" fill="#020288"/>
</g>
<defs>
<clipPath id="clip0_154_1694">
<rect width="50" height="50" fill="white" transform="translate(0 -0.00012207)"/>
</clipPath>
</defs>
</svg>
