<svg width="50" height="50" viewBox="0 0 50 50" fill="none" xmlns="http://www.w3.org/2000/svg">
<g clip-path="url(#clip0_154_1719)">
<path d="M34.2012 9.13916C30.9811 9.13916 27.9859 10.1064 25.4883 11.7672C29.7583 14.6065 32.5742 19.4731 32.5742 25C32.5742 30.5269 29.7583 35.3935 25.4883 38.2328C27.9859 39.8937 30.9811 40.8608 34.2012 40.8608C42.9267 40.8608 50 33.7598 50 25C50 16.2402 42.9267 9.13916 34.2012 9.13916V9.13916Z" fill="#FFF59B"/>
<path d="M33.5508 25.0001C33.5508 19.1875 30.6011 14.0535 26.1252 11.0267C26.0641 10.974 25.9973 10.9299 25.9267 10.8944C23.2933 9.16738 20.149 8.1626 16.7754 8.1626C7.52549 8.1626 0 15.7159 0 25.0001C0 34.2843 7.52549 41.8376 16.7754 41.8376C20.149 41.8376 23.2933 40.8328 25.9267 39.1058C25.9973 39.0704 26.064 39.0263 26.125 38.9736C30.601 35.9468 33.5508 30.8127 33.5508 25.0001ZM25.4827 37.0388C23.8239 35.8265 22.4581 34.3056 21.4421 32.5824H29.5265C28.4924 34.3292 27.1127 35.8466 25.4827 37.0388ZM20.476 19.3709H30.4969C30.8177 20.1566 31.0734 20.9758 31.2574 21.8216H19.7187C19.9011 20.9806 20.1549 20.1609 20.476 19.3709V19.3709ZM19.3789 25.0001C19.3789 24.5889 19.3957 24.1802 19.4287 23.7747H31.5479C31.5808 24.1789 31.5977 24.5875 31.5977 25.0001C31.5977 25.4127 31.5809 25.8213 31.5479 26.2255H19.4288C19.3957 25.82 19.3789 25.4113 19.3789 25.0001ZM31.2574 28.1786C31.0735 29.0244 30.8177 29.8436 30.4969 30.6293H20.476C20.1549 29.8393 19.9011 29.0196 19.7187 28.1786H31.2574ZM29.5265 17.4178H21.4421C22.4581 15.6946 23.824 14.1737 25.4827 12.9614C27.1127 14.1536 28.4924 15.671 29.5265 17.4178ZM1.95312 25.0001C1.95312 16.7929 8.60234 10.1157 16.7754 10.1157C19.2828 10.1157 21.6468 10.7442 23.7193 11.8525C19.753 15.0371 17.4258 19.8479 17.4258 25.0001C17.4258 30.1523 19.7529 34.9631 23.7193 38.1477C21.6468 39.256 19.2828 39.8845 16.7754 39.8845C8.60234 39.8845 1.95312 33.2073 1.95312 25.0001Z" fill="#020288"/>
</g>
<defs>
<clipPath id="clip0_154_1719">
<rect width="50" height="50" fill="white"/>
</clipPath>
</defs>
</svg>
