<svg width="45" height="45" viewBox="0 0 45 45" fill="none" xmlns="http://www.w3.org/2000/svg">
<path d="M21.7705 21.375L13.7109 16.9629L5.65137 21.375L5.66895 21.3838L5.65137 21.375V31.0605L13.7109 35.4199L21.7705 31.0605V21.375L21.7354 21.3926L21.7705 21.375Z" fill="#E2C4FF"/>
<path d="M42.0557 1.98633H2.94434C1.31836 1.98633 0 3.31348 0 4.93945V40.0693C0 41.6953 1.31836 43.0137 2.94434 43.0137H42.0469C43.6729 43.0137 44.9912 41.6953 44.9912 40.0693V4.93945C45 3.31348 43.6816 1.98633 42.0557 1.98633V1.98633ZM1.75781 4.93945C1.75781 4.28027 2.29395 3.75293 2.94434 3.75293H42.0469C42.7061 3.75293 43.2334 4.28906 43.2334 4.93945V9.37793H1.75781V4.93945ZM43.2422 40.0605C43.2422 40.7197 42.7061 41.2471 42.0557 41.2471H2.94434C2.28516 41.2471 1.75781 40.7109 1.75781 40.0605V11.1357H43.2422V40.0605Z" fill="#020288"/>
<path d="M39.0937 5.67773H38.7686C38.2852 5.67773 37.8896 6.07324 37.8896 6.55664C37.8896 7.04004 38.2852 7.43555 38.7686 7.43555H39.0937C39.5771 7.43555 39.9727 7.04004 39.9727 6.55664C39.9727 6.07324 39.5859 5.67773 39.0937 5.67773Z" fill="#020288"/>
<path d="M33.6445 5.67773H33.3193C32.8359 5.67773 32.4404 6.07324 32.4404 6.55664C32.4404 7.04004 32.8359 7.43555 33.3193 7.43555H33.6445C34.1279 7.43555 34.5234 7.04004 34.5234 6.55664C34.5234 6.07324 34.1279 5.67773 33.6445 5.67773Z" fill="#020288"/>
<path d="M28.1865 5.67773H27.8613C27.3779 5.67773 26.9824 6.07324 26.9824 6.55664C26.9824 7.04004 27.3779 7.43555 27.8613 7.43555H28.1865C28.6699 7.43555 29.0654 7.04004 29.0654 6.55664C29.0654 6.07324 28.6787 5.67773 28.1865 5.67773Z" fill="#020288"/>
<path d="M12.085 5.67773H5.90625C5.42285 5.67773 5.02734 6.07324 5.02734 6.55664C5.02734 7.04004 5.42285 7.43555 5.90625 7.43555H12.085C12.5684 7.43555 12.9639 7.04004 12.9639 6.55664C12.9639 6.07324 12.5684 5.67773 12.085 5.67773Z" fill="#020288"/>
<path d="M26.6045 26.1826H39.3486C39.832 26.1826 40.2275 25.7871 40.2275 25.3037V21.375C40.2275 20.8916 39.832 20.4961 39.3486 20.4961H26.6045C26.1211 20.4961 25.7256 20.8916 25.7256 21.375V25.3037C25.7256 25.7871 26.1123 26.1826 26.6045 26.1826ZM27.4834 22.2539H38.4697V24.4248H27.4834V22.2539Z" fill="#020288"/>
<path d="M26.6045 30.8496H39.3486C39.832 30.8496 40.2275 30.4541 40.2275 29.9707C40.2275 29.4873 39.832 29.0918 39.3486 29.0918H26.6045C26.1211 29.0918 25.7256 29.4873 25.7256 29.9707C25.7256 30.4541 26.1123 30.8496 26.6045 30.8496Z" fill="#020288"/>
</svg>
