<svg width="40" height="40" viewBox="0 0 40 40" fill="none" xmlns="http://www.w3.org/2000/svg">
<path d="M32.5387 23.1259C31.1361 21.51 29.1976 20.4537 27.0796 20.1509L22.2173 19.3884V10.903C22.2173 8.88791 20.5778 7.24854 18.5627 7.24854H18.5081C16.493 7.24854 14.8535 8.88791 14.8535 10.903V24.5304L9.82688 22.3761C8.81721 21.9435 7.66632 22.046 6.74886 22.651C5.83153 23.2558 5.28394 24.2731 5.28394 25.3718V25.4177C5.28394 26.3475 5.68247 27.2353 6.37736 27.8531L14.8536 35.3904V39.0523C14.8536 39.5757 15.2777 39.9997 15.801 39.9997C16.3244 39.9997 16.7484 39.5757 16.7484 39.0523V34.9651C16.7484 34.6945 16.6327 34.4369 16.4305 34.2572L7.63638 26.4373C7.34547 26.1786 7.17873 25.8071 7.17873 25.4178V25.3719C7.17873 24.9052 7.40231 24.49 7.79188 24.2329C8.18183 23.9759 8.65173 23.934 9.08046 24.1178L15.4267 26.8377C15.4851 26.8629 15.5465 26.8826 15.6103 26.8956C15.7052 26.9152 15.8009 26.9195 15.8945 26.91C15.9051 26.909 15.9155 26.907 15.926 26.9056C15.9455 26.9029 15.9652 26.9004 15.9846 26.8966C16.0015 26.8933 16.018 26.8887 16.0346 26.8845C16.0472 26.8812 16.0599 26.8785 16.0724 26.8748C16.0912 26.8692 16.1095 26.8624 16.1278 26.8556C16.1379 26.8519 16.1483 26.8485 16.1583 26.8444C16.1762 26.8371 16.1936 26.8288 16.2109 26.8204C16.2212 26.8155 16.2317 26.811 16.2416 26.8057C16.2572 26.7974 16.2721 26.7884 16.2871 26.7794C16.2986 26.7724 16.3103 26.7659 16.3216 26.7584C16.3342 26.7501 16.3461 26.741 16.3584 26.7321C16.3712 26.7227 16.3842 26.7136 16.3968 26.7035C16.4067 26.6954 16.4161 26.6865 16.4258 26.6781C16.4392 26.6662 16.4528 26.6545 16.4656 26.6418C16.4742 26.6334 16.4821 26.6243 16.4904 26.6156C16.503 26.6022 16.5156 26.589 16.5274 26.5747C16.5365 26.5639 16.5445 26.5524 16.5531 26.5413C16.563 26.5284 16.573 26.5159 16.5822 26.5025C16.5938 26.4854 16.6043 26.4678 16.6148 26.4499C16.6198 26.4415 16.6253 26.4335 16.6301 26.4249C16.6755 26.3426 16.7094 26.2529 16.7288 26.1579C16.742 26.0944 16.748 26.0303 16.748 25.9669V10.903C16.748 9.93269 17.5374 9.14332 18.5078 9.14332H18.5625C19.5329 9.14332 20.3223 9.93269 20.3223 10.903V20.0011C20.3223 20.0361 20.3245 20.0707 20.3282 20.1047C20.2782 20.6015 20.6236 21.0565 21.1229 21.1347L26.7921 22.0236C26.7966 22.0244 26.801 22.025 26.8056 22.0257C30.2349 22.513 32.821 25.4924 32.821 28.9564V29.0531C32.821 30.6561 32.4298 32.2552 31.6897 33.6772L29.1198 38.6147C28.8781 39.079 29.0586 39.6509 29.5226 39.8925C29.6623 39.9652 29.8119 39.9998 29.9593 39.9998C30.3012 39.9998 30.6315 39.8139 30.8003 39.4896L33.3703 34.5521C34.2506 32.8609 34.7157 30.9595 34.7157 29.0531V28.9564C34.7161 26.8144 33.9428 24.7438 32.5387 23.1259Z" fill="#1A3454"/>
<path d="M18.5355 4.7736C19.0589 4.7736 19.4829 4.34955 19.4829 3.82621V0.947394C19.4829 0.424054 19.0589 0 18.5355 0C18.0122 0 17.5881 0.424054 17.5881 0.947394V3.82621C17.5881 4.34955 18.0123 4.7736 18.5355 4.7736Z" fill="#1A3454"/>
<path d="M24.4036 12.4926C24.4036 13.016 24.8276 13.44 25.351 13.44H28.2298C28.7531 13.44 29.1772 13.016 29.1772 12.4926C29.1772 11.9693 28.7531 11.5452 28.2298 11.5452H25.351C24.8277 11.5452 24.4036 11.9694 24.4036 12.4926Z" fill="#1A3454"/>
<path d="M24.6001 7.13299C24.8425 7.13299 25.085 7.04053 25.2701 6.8556L27.3057 4.81996C27.6757 4.44985 27.6757 3.85008 27.3057 3.48009C26.9356 3.11023 26.3358 3.11023 25.9658 3.48009L23.9301 5.5156C23.5601 5.88572 23.5601 6.48548 23.9301 6.85547C24.1151 7.0404 24.3577 7.13299 24.6001 7.13299Z" fill="#1A3454"/>
<path d="M11.0556 6.85545C11.2406 7.04038 11.4832 7.13284 11.7256 7.13284C11.968 7.13284 12.2105 7.04038 12.3956 6.85545C12.7655 6.48533 12.7655 5.88557 12.3956 5.51558L10.3598 3.47994C9.98968 3.11008 9.38991 3.11008 9.01992 3.47994C8.64993 3.85006 8.64993 4.44982 9.01992 4.81981L11.0556 6.85545Z" fill="#1A3454"/>
<path d="M8.13734 13.44H11.0162C11.5395 13.44 11.9635 13.016 11.9635 12.4926C11.9635 11.9693 11.5395 11.5452 11.0162 11.5452H8.13734C7.614 11.5452 7.18994 11.9693 7.18994 12.4926C7.18994 13.016 7.614 13.44 8.13734 13.44Z" fill="#1A3454"/>
</svg>
