<svg width="40" height="40" viewBox="0 0 40 40" fill="none" xmlns="http://www.w3.org/2000/svg">
<path d="M39.4931 33.0976L34.466 29.633C33.6896 29.0979 32.6291 29.6552 32.6291 30.5979V32.8906H25.8208C25.2752 30.1761 22.8728 28.125 20 28.125C17.1272 28.125 14.7248 30.1761 14.1792 32.8906H7.10938V25.8208C9.44492 25.3513 11.2888 23.5074 11.7583 21.1719H28.2416C28.7873 23.8864 31.1896 25.9375 34.0624 25.9375C37.3363 25.9375 39.9999 23.274 39.9999 20C39.9999 17.1272 37.9488 14.7248 35.2343 14.1792V5.9375C35.2343 5.29031 34.7096 4.76562 34.0624 4.76562H25.8208C25.2752 2.05102 22.8728 0 20 0C17.0578 0 14.6098 2.15156 14.1437 4.96367L9.12961 1.50797C8.35305 0.972891 7.29273 1.53031 7.29273 2.47289V4.76562H3.59375C2.94656 4.76562 2.42188 5.29031 2.42188 5.9375C2.42188 6.58469 2.94656 7.10938 3.59375 7.10938H7.29273V9.40211C7.29273 10.352 8.35984 10.8977 9.12961 10.367L14.1437 6.91133C14.6098 9.72344 17.0578 11.875 20 11.875C22.8728 11.875 25.2752 9.82398 25.8208 7.10938H32.8906V14.1792C30.5551 14.6487 28.7112 16.4926 28.2417 18.8281H11.7583C11.2127 16.1135 8.81031 14.0625 5.9375 14.0625C2.66359 14.0625 0 16.726 0 20C0 22.8728 2.05109 25.2752 4.76562 25.8208V34.0625C4.76562 34.7097 5.29031 35.2344 5.9375 35.2344H14.1792C14.7248 37.9489 17.1272 40 20 40C22.8728 40 25.2752 37.9489 25.8208 35.2344H32.6291V37.5271C32.6291 38.477 33.6963 39.0227 34.466 38.492L39.4931 35.0274C40.1673 34.5628 40.1695 33.5637 39.4931 33.0976V33.0976ZM9.63648 7.17125V4.70375L11.4266 5.9375L9.63648 7.17125ZM20 9.53125C18.0184 9.53125 16.4062 7.91906 16.4062 5.9375C16.4062 3.95594 18.0184 2.34375 20 2.34375C21.9816 2.34375 23.5938 3.95594 23.5938 5.9375C23.5938 7.91906 21.9816 9.53125 20 9.53125V9.53125ZM34.0625 16.4062C36.0441 16.4062 37.6562 18.0184 37.6562 20C37.6562 21.9816 36.0441 23.5938 34.0625 23.5938C32.0809 23.5938 30.4688 21.9816 30.4688 20C30.4688 18.0184 32.0809 16.4062 34.0625 16.4062V16.4062ZM2.34375 20C2.34375 18.0184 3.95594 16.4062 5.9375 16.4062C7.91906 16.4062 9.53125 18.0184 9.53125 20C9.53125 21.9816 7.91906 23.5938 5.9375 23.5938C3.95594 23.5938 2.34375 21.9816 2.34375 20V20ZM20 37.6562C18.0184 37.6562 16.4062 36.0441 16.4062 34.0625C16.4062 32.0809 18.0184 30.4688 20 30.4688C21.9816 30.4688 23.5938 32.0809 23.5938 34.0625C23.5938 36.0441 21.9816 37.6562 20 37.6562ZM34.9729 35.2962V32.8288L36.763 34.0625L34.9729 35.2962Z" fill="#1A3454"/>
</svg>
